<mxfile host="Electron" agent="Mozilla/5.0 (Macintosh; Intel Mac OS X 10_15_7) AppleWebKit/537.36 (KHTML, like Gecko) draw.io/26.0.16 Chrome/132.0.6834.196 Electron/34.2.0 Safari/537.36" version="26.0.16">
  <diagram name="Page-1" id="2BokwQYlZ6T_9KJyivmW">
    <mxGraphModel dx="1026" dy="743" grid="1" gridSize="10" guides="1" tooltips="1" connect="1" arrows="1" fold="1" page="1" pageScale="1" pageWidth="850" pageHeight="1100" math="0" shadow="0">
      <root>
        <mxCell id="0" />
        <mxCell id="1" parent="0" />
        <mxCell id="iU7n7ivI7I0KxXx9MVES-2" value="" style="shape=image;verticalLabelPosition=bottom;labelBackgroundColor=default;verticalAlign=top;aspect=fixed;imageAspect=0;image=https://upload.wikimedia.org/wikipedia/commons/thumb/8/8a/Curl-logo.svg/429px-Curl-logo.svg.png;" parent="1" vertex="1">
          <mxGeometry x="95.99000000000001" y="254.01" width="53.02" height="15.94" as="geometry" />
        </mxCell>
        <mxCell id="iU7n7ivI7I0KxXx9MVES-9" value="&lt;font style=&quot;font-size: 14px;&quot;&gt;&lt;b style=&quot;&quot;&gt;mTLS&lt;/b&gt;&lt;/font&gt;" style="edgeStyle=orthogonalEdgeStyle;rounded=0;orthogonalLoop=1;jettySize=auto;html=1;fillColor=#f8cecc;strokeColor=#FF0000;strokeWidth=4;" parent="1" source="iU7n7ivI7I0KxXx9MVES-5" target="iU7n7ivI7I0KxXx9MVES-8" edge="1">
          <mxGeometry relative="1" as="geometry" />
        </mxCell>
        <mxCell id="iU7n7ivI7I0KxXx9MVES-5" value="downstream" style="shape=image;verticalLabelPosition=bottom;labelBackgroundColor=default;verticalAlign=top;aspect=fixed;imageAspect=0;image=data:image/png,iVBORw0KGgoAAAANSUhEUgAACNkAAAL2CAYAAAB2GNL5AAAACXBIWXMAAC4jAAAuIwF4pT92AAAAGXRFWHRTb2Z0d2FyZQBBZG9iZSBJbWFnZVJlYWR5ccllPAAAxXVJREFUeNrs3UFSW1mWP+Bb1TVvegWtjFqAyBWkPHFEMUly4qnFQANGhhUAKwBGHmiAPGVieqKMYGLVCgwLyLB6BUWv4P+/x+9RSTptYzCId+/7vogborqju/CR3r0S76dz/iMBAAAAAAAAAABf9R9KAAAAAAAAAAAAXydkAwAAAAAAAAAAtxCyAQAAAAAAAACAWwjZAAAAAAAAAADALYRsAAAAAAAAAADgFkI2AAAAAAAAAABwCyEbAAAAAAAAAAC4hZANAAAAAAAAAADcQsgGAAAAAAAAAABuIWQDAAAAAAAAAAC3ELIBAAAAAAAAAIBbCNkAAAAAAAAAAMAthGwAAAAAAAAAAOAWQjYAAAAAAAAAAHALIRsAAAAAAAAAALiFkA0AAAAAAAAAANxCyAYAAAAAAAAAAG4hZAMAAAAAAAAAALcQsgEAAAAAAAAAgFsI2QAAAAAAAAAAwC2EbAAAAAAAAAAA4BZCNgAAAAAAAAAAcAshGwAAAAAAAAAAuIWQDQAAAAAAAAAA3ELIBgAAAAAAAAAAbiFkAwAAAAAAAAAAtxCyAQAAAAAAAACAW/xFCQAA+FaXG9NRfoj133kNbqwvWbSP/8zrKq+L4XyyUEkAAAAAAKA0QjYAAHzR5cZ0kB828/o5NeGah7LI63/icTifXKg0AAAAAADQdUI2AAD8weXGdC01wZpXea2v4L9ymdebvGbD+WTpGQAAAAAAALpIyAYAgI/arjURrBnntfZEv8ZZXsdGSgEAAAAAAF0jZAMA0HOXG9NRfniZmnBNVyzyOhC2AQAAAAAAukLIBgCgpy43puO0upFQ97XIa3c4n1x4xgAAAAAAgKckZAMA0CPtSKhxasI1awX96kep6Wxz5VkEAAAAAACegpANAEAPdHQk1F0tU9PV5swzCgAAAAAArJqQDQBAxQoZCXVXi7y2hvPJ0jMMAAAAAACsipANAEBlLjemMQZqJ5U3EuouYmzU8XA+2feMAwAAAAAAqyBkAwBQicuNaXSriWDNuEf/7IvUjJBaeAUAAAAAAACPScgGAKBw7Uiol3mNelyGWWrCNldeEQAAAAAAwGMQsgEAKNCNkVARrhmoyEcRsImgzUwpAAAAAACAhyZkAwBQkJ6OhLqrRV5bw/lkqRQAAAAAAMBDEbIBACiAkVD3cjCcT/aVAQAAAAAAeAhCNgAAHdWOhBqnpnPNQEXuZZmarjYLpQAAAAAAAL6HkA0AQMdcbkwH+WEvr8281lTkQZylJmxzpRQAAAAAAMB9CNkAAHTE5cY0QjXRtWakGo8iAjYxQupIKQAAAAAAgLsSsgEAeEJGQj2JRV67w/nkQikAAAAAAIBvJWQDAPAEjITqhOhoc2CEFAAAAAAA8C2EbAAAVshIqM5ZpqarzZlSAAAAAAAAXyNkAwDwyNqRUBGuic41AxXppAjZRNhmqRQAAAAAAMDnCNkAADySdiRUdK0ZJyOhShBjo2J81JFSAAAAAAAAnxKyAQB4YJcb01FqwjWbqlGki9R0tVkoBQAAAAAAcE3IBgDgARgJVaXoaBOdba6UAgAAAAAAELIBAPgORkJVLwI2W8P55EwpAAAAAACg34RsAADuwUio3lmkJmyzVAoAAAAAAOgnIRsAgDu43JiOUxOuWVeNXorxUfvKAAAAAAAA/SNkAwBwi3Yk1Dg14RojoVimpqvNQikAAAAAAKA/hGwAAL6gHQn1MjUBG/jULK/d4XxypRQAAAAAAFA/IRsAgE8YCcUdRMAmRkgdKQUAAAAAANRNyAYAIBkJxXdbpKarzYVSAAAAAABAnYRsAIBeu9yYRreaCNaMVYMHcJDXkRFSAAAAAABQHyEbAKCX2pFQL/MaqQYPbJnX1nA+WSgFAAAAAADUQ8gGAOiNy41pjIHaSU24ZqAiPLKz1IyQWioFAAAAAACUT8gGAKiekVA8oRgbdTCcT46UAgAAAAAAyiZkAwBUy0goOuQiNSOkLpQCAAAAAADKJGQDAFTFSCg6LjraRGebK6UAAAAAAICyCNkAAFW43JgO8sNeMhKK7ouATXS1OVMKAAAAAAAoh5ANAFC0y43pZn54lYyEojyL1IRtlkoBAAAAAADdJ2QDABSnHQk1Tk24ZqAiFCy62hwP55N9pQAAAAAAgG4TsgEAinFjJFR0r1lTESqyTE1Xm4VSAAAAAABANwnZAACdZyQUPTLLa3c4n1wpBQAAAAAAdIuQDQDQSUZC0WMRsImgzUwpAAAAAACgO4RsAIBOaUdCRbBmnIyEot8WqRkhtVQKAAAAAAB4ekI2AEAnXG5MR6kJ12yqBvzBQV5HRkgBAAAAAMDTErIBAJ5MOxIqQjV7yUgo+JplarraLJQCAAAAAACehpANALByRkLBvZ2lJmyjqw0AAAAAAKyYkA0AsDJGQsGDiIDNwXA+OVIKAAAAAABYHSEbAODRXW5Mx8lIKHhoF6npanOhFAAAAAAA8PiEbACAR9GOhBqnpnONkVDweKKjzYERUgAAAAAA8LiEbACAB9WOhHqZmoANsBrLvHaH88mZUgAAAAAAwOMQsgEAHkQ7Eiq61qyrBjyZCNlE2GapFAAAAAAA8LCEbACAezMSCjopxkYdD+eTfaUAAAAAAICHI2QDANyZkVBQhIvUdLVZKAUAAAAAAHw/IRsA4JsZCQVFOsrrYDifXCkFAAAAAADcn5ANAPBVlxvTGAO1k5rONQMVgSJFwCa62syUAgAAAAAA7kfIBgD4rMuNaXSria41Y9WAaizy2hrOJ0ulAAAAAACAuxGyAQD+oB0JFV1rRqoB1YrxUfvKAAAAAAAA307IBgAwEgr6aZmarjYLpQAAAAAAgNsJ2QBAjxkJBWRnqQnbXCkFAAAAAAB8mZANAPTQ5cZ0MzXhmpFqAFkEbGKE1JFSAAAAAADA5wnZAEBPtCOhxqkJ1wxUBPiMRV67w/nkQikAAAAAAOCPhGwAoHKXG9NBftjLK7rXrKkI8A0O8joyQgoAAAAAAH4nZAMAlTISCvhOy9R0tTlTCgAAAAAAELIBgKoYCQU8ggjZRNhmqRQAAAAAAPSZkA0AVMBIKOCRxdiog+F8cqQUAAAAAAD0lZANABTscmM6Sk24ZqQawApcpKarzUIpAAAAAADoGyEbAChMOxIqOtZEuGagIsATiI420dnmSikAAAAAAOgLIRsAKEQ7EupVXuNkJBTw9CJgszWcT86UAgAAAACAPhCyAYCOa0dCRbhmUzWADlqkJmyzVAoAAAAAAGomZAMAHWQkFJWITifHec3yGuV1mHRhqvq5Hs4n+0oBAAAAAECthGwAoEOMhKISF6kJXMw+eX3Ha/qwfX1Tp2VqutoslAIAAAAAgNoI2QBAB7QjoV4m4QPKNsvrzW0Bi/b1fpJ0aar9tbCbXwtXSgEAAAAAQC2EbADgCV1uTMep6VyzrhoUKkIUs9R0rlne8fW/377+dW2q97Wx+2lHIwAAAAAAKJWQDQCsWDsSapyECyjbMq+DvM6+p1tJez1EV5uRklZrkZqwzYVSAAAAAABQMiEbAFgRI6GoxFlqutYsHvj62ExN2EbwrF4RyjoyQgoAAAAAgFIJ2QDAIzMSigrceyTUHa+VCNjs5bWj5NWK18/WQ4e0AAAAAABgFYRsAOARtGGBCAoYCUXJlukBRkLd4/qJQFp0tRFMq1d0RNp9zNAWAAAAAAA8NCEbAHhAbTgggjVj1aBgjzIS6h7XUwTVorONoFqdIrh1kF9nR0oBAAAAAEAJhGwA4AG0I6Fe5jVSDQoVgYcI1xx0qbtIvrYG+eEwr01PUbUuUjNC6kIpAAAAAADoMiEbALinGyOhIlwzUBEKtczrOK/ZKkdC3eN6G6VmhJRrrV7R0eagy69DAAAAAAD6TcgGAO7ISCgqsUjNSKizgq6962DbnqevWsu8dkt6XQIAAAAA0B9CNgDwjYyEogKdHAl1j2sxgm6HrsWqLVIzQmqpFAAAAAAAdIWQDQB8hZFQVGKZChgJdY/r87qrzZqnuErxWo1uS/tKAQAAAABAFwjZAMBnXG5MB6m5eb+Z3MCnXItU2Eioe1yrcX1GV5uxp7taF6kZIbVQCgAAAAAAnpKQDQDccLkxjVDNq2QMDWWbpcJHQt3j2o1r9iTpOFX763q3pm5MAAAAAACURcgGgN5rO2GMUxOuGagIhVrm9Savoz6HEPL1vJ+aLlTUKV7bEbSZKQUAAAAAAKsmZANAbxkJRSUWeb0ROvjTtR1dbUaqUfXrfqtP3ZoAAAAAAHh6QjYA9I6RUFRiltfxcD65UIqvXusRthGiq9dB6nn3JgAAAAAAVkfIBoBeaEdCxQ336FwzUBEKtUxGQt3n2o/rfkc1qr4uoqvNQikAAAAAAHhMQjYAVK0dGxNda8ZJNwvKtUhGQn3vXjDKD4d5ratGtc5SE7YRQAMAAAAA4FEI2QBQpfaGeoRrNlWDgs2SkVAPvTdER5vobCN0V6cI2Bzka+ZIKQAAAAAAeGhCNgBUw0goKhEhgeO8ZsP5ZKkcj7JXxP5wmITwarbIa1dADQAAAACAhyRkA0DxjISiEhEGODYSaqV7R4RsImwzUI1qRUebAyOkAAAAAAB4CEI2ABTLSCgqMcvrzXA+WSjFk+wjEcy7HiFFnZap6WpzphQAAAAAAHwPIRsAinO5MR2nJlyzrhoUykio7u0rsZ9EV5uRalQrQja7rjkAAAAAAO5LyAaAIrQjocapCdcYCUWpjITq/l5z3dXGPlOnq/Ya3FcKAAAAAADuSsgGgE5rR0K9TE3ABko1S0ZClbTvRMDm0L5TtQi87bomAQAAAAC4CyEbADrJSCgqEB0zZqnpmrFUjiL3oVF+OMlroBrVOsrrIF+jV0oBAAAAAMBthGwA6AwjoajEMq+DvM7cuK9mb9pPzQgp6hTX6Va+Xs+UAgAAAACArxGyAeDJGQlFJeIG/bHxM9XuU4PUdLUZqUa14trd0nkKAAAAAIAvEbIB4Mm0I6EiXDNSDQplJFQ/963DpNtWzWJ81L4yAAAAAADwKSEbAFbqcmMaN6Z3UhOuGagIhVomI6H6vo/ttXsZ9V7jWzpTAQAAAABwk5ANACtxuTFdzw+vkpFQlM1IKG7ua6PUdLVZV41qzfLaFaYDAAAAACAI2QDwqIyEogJxcz3CNQdGQvGFfW4/NSFCI6Tq3QPi+j9SCgAAAACAfhOyAeDBGQlFJZZ5Hec108WCb9j3Yq+LrjabqlGtRWq62lwoBQAAAABAPwnZAPBg2pvMe8lIKMq2SM1IqDOl4B77YIRsImwzUI1qHeR1JHwHAAAAANA/QjYAfLf2pnKMShmpBoUyEoqH3BOjm1cEDndUo1qxT+wK4wEAAAAA9IuQDQD30t5EHqcmXDNQEQq1TEZC8Xj75HpqutqMVKNaEbLZFc4DAAAAAOgHIRsA7uTGSKjoXrOmIhRqkYyEYnX75k67b9oz6xQBveiCdaQUAAAAAAB1E7IB4JsYCUUlZslIKJ5mD42AzUlqAorU6SKvrby/XCgFAAAAAECdhGwA+CIjoajEMq83eR0ZCUUH9tVRasI29tR6RUebA/sNAAAAAEB9hGwA+JN2JFQEa8bJeBPKtcjrzXA+mSkFHdxn91MzQoo6RcBmy0g6AAAAAIC6CNkA8G9th4UI1xhnQslmeR0b2UIBe+4gNV1tRqpRrUVqwjZLpQAAAAAAKJ+QDUDPtSOhIlQTHRUGKkKhlslIKMrdh8f54TDpHFar2JMi+LevFAAAAAAAZROyAegpI6GoxCIZCUUde3Lsw4ftnkydlqnparNQCgAAAACAMgnZAPSMkVBUYpaMhKLePTrCNuuqUfX+tavrFgAAAABAeYRsAHrASCgq8XHkSjISin7s2/upCUTqNFbvfrarCxcAAAAAQFmEbAAq1o6EGic3ailbdKs5djOanu7hJ3mNVKNai9SMkFoqBQAAAABA9wnZAFSo7VwTXWt2VIOCzfJ6M5xPFkpBz/f06EQWI6QGqlGtg6RLFwAAAABA5wnZAFTmcmMawZoI2OhcQ4muR0LNdHaAP+ztwpP1iz1vS7AQAAAAAKC7hGwAKtHegH2bjBWhTEZCwbft9eupGSG1rhrVOktN2EZXGwAAAACAjhGyAajA5cZ0lJqAje41lGaWjISC++z7upbVLQI2B3lvPFIKAAAAAIDuELIBKNzlxnScmq4GUAojoeBh9v+1dv/fVI1qRZev6GpzoRQAAAAAAE9PyAagYAI2FGaZ10FeZ8agwIOeBaP2LBioRrWio82BvRMAAAAA4GkJ2QAUSsCGgpzldWwkFDzqmRBdba5HSFGnZV67eS89UwoAAAAAgKchZANQoLZrwTuVoMOi28IsNeGapXLAys6HQWoCmCPVqNYiNSOk7K0AAAAAACsmZANQmPYG6vu81lSDDlomI6GgC2fFOD8cOiuqFftrhBj3lQIAAAAAYHWEbAAKc7kxjQ42I5WgY4yEgu6dFxGwiaDNWDWqdZGaEVL2XgAAAACAFRCyASjI5cZ0JzU3TKELjISCMs6OUXt2rKtGtY7yOtBBDAAAAADgcQnZABSi7UjwIRn9wdNb5nWc18wNXSjqHNnPD6+cI9WK/Ti62syUAgAAAADgcQjZABSivTm6pxI8oUVqutacKQUUe5YM8sNJMnaw9r16S4cxAAAAAICHJ2QDUABdbHhC0RkhQjUHbthCVefKZmrCNs6VesW+va8MAAAAAAAPR8gGoACXG9Od/HCoEqzQMhkJBbWfLRGwiQ5pO6pR9V4eXW0WSgEAAAAA8P2EbAAKcLkxjS42A5VgBRbJSCjo2xmznpquNuuqUa3Y07eEJgEAAAAAvo+QDUDHtTc/36sEj8hIKOC6a1p0tjFCqt69Pvb5I6UAAAAAALgfIRuAjjMqike0zOtNXke6GwDtmTNoz5xN1ajWIq/dvO9fKAUAAAAAwN0I2QB03OXG9F1+GKkED2iR15vhfDJTCuALZ0+cOzFCaqAa1TpIQpYAAAAAAHciZAPQcZcb038lozt4GLO8jnUvAL7x/Imz53qEFHVapqarzZlSAAAAAADcTsgGoMPasR0fVILvsExGQgHfdxatp2aE1Eg1qhUhmwjbLJUCAAAAAODLhGwAOqwd1/FOJbiHRTISCnjYM2mcmrCN7mp1iiDmQT43jpQCAAAAAODzhGwAOqy9oXmiEtzBLBkJBTzeuRQBmwjajFWjWnF+RFebhVIAAAAAAPyRkA1Ah11uTPfzw55KcIvoPnCcjIQCVnc+jVITAh2oRrWio82BcwUAAAAA4HdCNgAdJmTDLaLbwLGRUMATn1OvkhFStYqAzVY+Z86UAgAAAABAyAag04Rs+IJZXm+M8gA6clYNUtPVZqQa1YrzJsI2S6UAAAAAAPpMyAagw4RsuOF6JNTMTU6go2fWZmrCNrra1CvGR+0rAwAAAADQV0I2AB0mZEMyEgoo69xaa8+tHdWo1jI1XW0WSgEAAAAA9I2QDUCHCdn02iwZCQWUe36N8sNhXuuqUfU5tZvPqSulAAAAAAD6QsgGoMOEbHrHSCigtnNspz3HjJCq99za1W0NAAAAAOgLIRuADhOy6Y1lXgd5nekIAFR4lg1S09VmUzWqtUhN2OZCKQAAAACAmgnZAHRYO27jnUpU6yyvYyOhgJ6caRGyibDNQDWqFYHRI4FRAAAAAKBWf1UCAFipuPF4lNcPw/nkFwEboC/yfhfBwh9TE8SgTtF9730bEgYAAAAAqI5ONgAdppNNVZbJSCiA6/NtPTVdbUaqUa0IVcUIqaVSAAAAAAC1ELIB6DAhmyoYCQXw5XNuJzXdT9ZUo0oRKj3IZ+CRUgAAAAAANRCyAegwIZtixU3FWWrCNUvlAPjqWRcBm+hqM1aNal3ktZXPxAulAAAAAABKJmQD0GFCNsVZ5nWc18xIKIB7nXkneQ1Uo1rR0ebAGQkAAAAAlErIBqDDhGyKsUhN15ozpQD47rNvPzUjpKhTBGy2nJkAAAAAQImEbAA6TMim0+ImYdwgPDASCuDBz79BarrajFSjWovUhG2coQAAAABAMYRsADpMyKaTlslIKIBVnYObqQnbrKlGleIcjU5w+0oBAAAAAJRAyAagw4RsOmWRjIQCeIqzMAI2MT5qRzWqdZHXbj5jF0oBAAAAAHSZkA1Ah7XjMj6oxJMxEgqgO2fiKD8c5rWuGtWapSZso1McAAAAANBJQjYAHXe5Mf1/qrByy7ze5HXkRh9A587F/fzwKhkhVas4dyNoM1MKAAAAAKBrhGwAOk7IZqUWeb1xYw+g82fjIDVdbTZVo+ozeUsnOQAAAACgS4RsADpOyGYlZnkdD+eTC6UAKOqMjJBNhG0GqlGtg6SzHAAAAADQEUI2AB0nZPNolslIKIAazskYG7WX145qVH1mR1ebhVIAAAAAAE9JyAag44RsHtwiGQkFUON5uZ6arjYj1ajWWWrCNsKxAAAAAMCTELIB6DghmwczS0ZCAfTh3IyONtHZZk01qhQBm4N8nh8pBQAAAACwakI2AB0nZPNd4kbccTISCqBvZ2cEbE7y2lSNai3y2hWeBQAAAABWScgGoOOEbO4lbrgdGwkF0PszdJSasM1ANaoVHW0OhGkBAAAAgFUQsgHoOCGbO5nl9WY4nyyUAoAbZ+l+akZIUadlarranCkFAAAAAPCYhGwAOk7I5lbXI6Fmw/lkqRwAfOE8HaSmq81INaoVIZtd7wcAAAAAgMciZAPQcZcb0/f5YV0lPm84nzjLALjLuTrOD4d5ralGlT6Gb/P7g32lAAAAAAAe2l+VAKDzrpQAAB7GcD6Z5Ycf8jpSjSpFeGovQsp5jZQDAAAAAHhIQjYAAECvDOeTq7x284/P8rpQkSpFF8B3lxvTw7x0LQIAAAAAHoSQDQAA0EvD+WSR14/5x4Okc1ytdvL60I4JAwAAAAD4LkI2AABArw3nk/38EGGbM9WoUnSyObncmEZnm4FyAAAAAAD3JWQDAAD03nA+Web1S/4x1lJFqjRKTVebfaUAAAAAAO5DyAYAAKA1nE+im010tTlSjWrtXW5MI2wzUgoAAAAA4C6EbAAAAG4YzidXee2mJmxzoSJVGuQV46MOlQIAAAAA+FZ/UQKAbrvcmL5LzXgDPu+/4maoMgDwiGfxTn7Yy2tNNaoUQaqt/H5CoAoAAAAA+CqdbAAo3boSAPCYhvNJjI76Ia8z1aj2vUR0tdlUCgAAAADga4RsALpPlxYAeGLtCKlf8o/P8lqqSHWiS9Hby43pWCkAAAAAgC8RsgHovkslAIBuGM4ni/zwY14HqlGlk8uN6b4yAAAAAACfI2QDAABwB21Xm/3UjJBaqEh19i43pifKAAAAAAB8SsgGAADgHobzyTKvGB+1lYx3rM3Y6CgAAAAA4FNCNgBwT+fbp+O8TvIaqAZAfw3nk1lqutrMVKMqJ4I2AAAAAMBNQjYAcAfn26dree3n9SH/xxglMc7rQ/zPVAegv9oRUtHRJjrbXKhINSJos64MAAAAAED4ixIAdNvlxnQ/P+ypxBc9G84ni8f+LznfPo0bbK9SE6r5kmVeW89fv1h4WgCc3+25saYaxYtRYD9EkEopAAAAAKDfdLIBgG9zmL4esAmDvN61I6TcVAXoseF8sp8ffsxroRrFizP9RBkAAAAAACEbAHh449SMkNpRCoD+Gs4ny7xifNQvqel2Rrk2LzemznUAAAAA6DkhGwBKN+jo7xXfej883z59146aAqCnhvPJWWq62hypRtH2LjemOtUBAAAAQI8J2QBQukHHf79RXu/Pt0/3jZAC6K/hfHKV125qwjYXKlKkjwFaZQAAAACA/hKyAei+pRJUYS81YZuRUgD013A+ucgrgjYRuLlSkeKMLzemA2UAAAAAgH4SsgHovqUSVGOQV4yPepvXQDkA+ms4n8ToqAjbnKlGcU6UAAAAAAD6ScgGAFZvMzVdbXaUAqC/hvPJMq9f8o/PklBtSUa62QAAAABAPwnZAMDTWMvr8Hz7NMI268oB0F/D+WSRmq42B6pRjD0lAAAAAID+EbIBgG9z8Uj/fyNgE0GbCNysKTNAPw3nk6u89lMTtlmoSOdtXm5MndsAAAAA0DNCNgDwbf7vkf//x+ioD+fbp5tKDdBfw/nkIq8YH7WV15WKdFYEbJzZAAAAANAzQjYA0B1xw+7t+fbpu7wGygHQX8P5ZJYffshrphqd9bMSAAAAAEC/CNkAQPeMUjNCal8pAPqrHSEVHW2is81SRTpHJxsAAAAA6BkhGwDopuhqs3e+fRojpEbKAdBfw/lkkVd0tTlIRkh1yuXG1BkNAAAAAD0iZANA6X6q/N83yCvGR53ktebpBuiv4Xyynx9+zGuhGp0xUgIAAAAA6A8hGwAowziv6GozVgqA/hrOJ8u8YnzUL0lXmy74SQkAAAAAoD+EbAA6LkZEqAKt6GQTHW2is81AOQB6/f7gLD/ECKkj1XhSzmMAAAAA6BEhGwAozyg1XW32jZAC6K/hfHKV125qRkhdqMiTGCgBAAAAAPSHkA0AlGsvr/fn26cjpQDor+F8cpFXBG0icGOE1IpdbkwFXgEAAACgJ4RsAO4oxvTkdZjXv1SDDhjkFeOj3upqA9Bvw/kkRkdF2OZMNVZqXQkAAAAAoB+EbAC+UXQLyesk//ghr5281oQaemXR8d9vMzUjpHY8VQD9NZxPlnn9kn+MtVQRAAAAAICHI2QDcIvz7dNxXu/zj+/yGn/yv/bNZbokQl/RZSlGSHltAvTYcD6JbjbR1eZANQAAAAAAHsbflADgz2IkVGoCNa9SE1yAkkTAJoI2MTbk4PnrF1dKAtA/w/kk9v/9y41pBG4O8xqpCgAAAADA/elkA3DDJyOh9pKADWWL0VERttlUCoD+Gs4nF3k9yz/u5iV4CQAAAABwT0I2AOnWkVB020AJbq3P2/z6ftd2aAKgp4bzSXQ4+yGvmWoAAAAAANydcVFAbxkJVY2BEnyTUWq62hw/f/1iXzkA+qkdIbV1uTF9kx9PnKMAAAAAAN9OyAbonfPt0/XUBGvGBf3ay+QmGN8vwmR7+Rr4OT/uPn/9YqEkAP00nE/iDPjhcmO6n5oRmQAAAAAA3MK4KKA32pFQMQ4qxkKNC/v1l55BHlAEzWJ81GFeujgB9NhwPtlPzQiphWrc20AJAAAAAKAfdLIBqtYGCHbyepncAIFPxbUR4bPoajNTDoB+Gs4ny/zw7HJjupmaEVICmHfjPSYAAAAA9IRONkCVYiRUXnGT6F+pGYEwUBX4rLiRehJdnvJynQD02HA+OUtNV5sj1QAAAAAA+DMhG6AqhY+EotuWlf/7Rnl9yNfPvqcaoL+G88lVXrv5x2d5XagIAAAAAMDvhGyA4sVIqAgG5PUhNSMORiv8r1/3DPTD89cvlj35p+7FtZTXyLMO0F/D+WSR14/5xwjcXKkIAAAAAICQDVCwGG3TgZFQa54JKhTXUoyPehshNuUA6K/hfBKjo7ZUAgAAAABAyAYo0Pn26WY7Eio614xVBB7NZmpGSO0oBUCv6WQDAAAAAJD9TQmAErTdNMZ5vUpP07EG+iquvcN8Df6cH3efv35xoSQAAAAAAAD0kU42QKfdGAkVXWsOk4ANn3G5MR2pwqOLGr/P1+O+EVIAAAAAAAD0kZAN0EmfGQnlpj50w15qwjabSgEAAAAAAECfGBcFdIaRUF8VI3pGykBHxPX5Nl+zZ6kZIbVUEgAAAAAAAGqnkw3w5IyE+ib/pwR0UHSzia42O0oBQI8NlQAAAAAA+kEnG+DJnG+fjlLTtcbYGShXdKA6zNfzy9R0tVkoCQA9PAsBAAAAgB4QsgFWqh0JFaGavaRjDdRkPa93+Ro/yo8Hz1+/uFISAAAAAAAAamJcFLAS7UioGAUVI6FiNNRAVSjQQgluFaOjPuTrXYcqgHoITgIAAAAAJCEb4JHFSKi83qYmXBM332trp/+TZxn+JK7zt/naj842A+UAKNtwPrlQBQAAAAAA46KAR2AkFNAapaarTYyP2lcOAAAAAAAASiZkAzyYtmPFq7zGqb6ONcD97eX94WV+3Hr++sVCOQAAAAAAACiRkA3w3WIkVH6IG+hj1eCJCHV13yCvGB81y4+7z1+/uFISAAAAAAAASvJXJQDu63z7dJzX+/zjuyRgw9NaV4JixF4RI6TsGQAAAAAAABRFJxvgTtqRUOPUjIXSPWR1dP2gJrF3nLQjpKKrzYWSAAAAAAAA0HVCNsA3MRLqyQkhUKPYV97n/eUgPx4ZIQVAoQTPAQAAAKAnjIsCvspIKGAF9lITthkpBQAFMrYSAAAAAHpCJxvgT863T+PbuDvJSChgdQZ5vcv7z1lqRkgtlQQAAAAAAIAu0ckG+Lfz7dP1vE7yj/9KTWcJARv4I+OMHt9marra7CgFAAAAAAAAXaKTDfBxJFR+eJnXSDXubKAEvXKZmhAIjysCfod5b4p9aev56xcXSgLw5GIvNhYJAAAAAOg1IRvoqRsjoeIm9kBF7k3t4PHEzdzoanOUHw+ev36hkxDA07EHAwAAAAC9Z1wU9MxnRkINVAXouAgEfsh7ly5CAAAAAAAAPBmdbKAnjIQCChfdt97mvWyRmhFSSyUBAAAAAABglYRsoGJGQtEjQyXojVFqRkgdP3/9Yl85AAAAAAAAWBUhG6jQ+fbpIDWjoGK0ypqK0ANe5/17vvfyXvdzftx9/vrFQkkAAAAAAAB4bEI2UJHz7dMI1bxKRkLVaKkE8Cfreb3Le98sNWGbKyUBAAAAAADgsfxVCaBsMRIqr528PuT/+DYJ2FRpOJ8sVQG+aJzXh7wPjpUCgKdwuTEdqAIAAAAA1E8nGyiUkVDwJHRK6a7YB0/y3vgyP249f/1iqSQArFC8N3f2AAAAAEDldLKBwsRIqLze5R+jc804CdjAyjx//eIoP/yS3ETrslFqutrsR6cv5QAAAAAAAOChCNlAAYyEgu54/vrFWX74Ma8j1ei06PT1Pu+b9ksAAAAAAAAehJANdFiMhMrrMDVda+JxoCqdfJ7WVaFfnr9+cZXXbmrCNgsV6azYM9/la/StrjYA3+2fSgAAAAAA9J2QDXRQdF6Im8KpCdfsJCOhus7z01PPX7+4yOtZ/jECN1cq0lmbqRkhtaMUAAAAAAAA3JeQDXREOxJq3I6Eepeam8JAAZ6/fhGjo37I60w1OivCcId5j32v+xQAAAAAAAD38TclgKcVI6Hyw6u8xklHFLivJ792YoRUfvglOlHlx5NkvFtXRcAmgjYRjDponzcAAAAAAAC4lU428ESMhIIH1ZnOJM9fv1jkFV1tDjwtnRb7boRtdA0DAAAAAADgm+hkAysUI6FSMwZqL+lyAVV7/vrFfr7mZ6npajNSkU6Kffhtfp5izNdufs6WSgIAAAAAAMCX6GQDKxAjofLaT03XGmNkuK+FEpQlQht5Pcs/buVlLFF3RfjxfbtPAwAAAAAAwGcJ2cAjakdCRagmwjXRvcZIKOih569fzPJDjJCaqUZnxf68l/fsCNuMlAOAO1pXAgAAAACon3FR8AjOt0/H+eFV8sd2oPX89YvoZLOV94c3+fHQ/tBZ8by8y8/TUX48aJ83ALiNMD08gX/8fbL2ne+rL379ber9HpRxva/f47y9ytf4heoB8Ajn0ui+/7f5bFqoIEDZhGzggcRIqPwwTk24xh/Zgc96/vpFfIj6sR1NZL/orp3Y0/PztNt2IgIAYEX+8fdJfL6+uf47/T52+T432r/233XzPy7axwjeXN78n7kZAo96zY/a6zqu7/9Mv4fnRg94jcd1fR24+eeN63uZr++lZwGA9ty4fq95fQb91D5+b7j7S+8/l+369Hzy/hOgw/6iBPB92rEiL1MTsKGffnn++sXZY/+XXG5M36UH+ANTrYbzSXFnWhvOO/G8dl58oN3K1/lSKYC+yu9Dxu2Zxecd5Pci+8oAd3OjE028H74O0nT5vfH1TfpY/3v9s244cKdrftRe98P2cdChz31xTV+217UOOAB1n0nrN86hn9Lv4e6uWbbLGQXQITrZwD0ZCcUN8Ro4Uwbuqg1tPMv7yWZqRkgNVKWTRnl9yM9TjI/aVw6gp5ZKAHyv9mZGvLf6KXXr5vq3ug4IjD75d8UeuUjNjY+FGx/w72tjcOOaH3X8mv/DtZ1/9+tQXXQVOHNdAxR9Hq198h50VNCvP0ifBNHbTjiLG+fUha5sAKulkw3cwfn2abwZixEiRrxw00puvOtk83UldrL5zP6y1+4xdFd8YN1qx34B9EZ+HxLvQd6pxJffD+pkA3/2Sahm1KPP0XFzPt4vXt+cX3o10LPr/mX6vWNNTdf12Y3rWgcrgO6eRWufvAftwxell+37z/9JTejbOQXwiIRs4Budb5/Gje+4AS5cw6eEbDqg9JDNjb0mPvSdJF2yum6W126+9n1gBXpByOb294NCNtD4x98n0aXx59T9rhWrtEzNzfk3umFQ6XV/HazZ7NF1H9d03MgUuAHoxlk0aM+hn9rHvlvcOKeWygHwsIRs4BZuePMNhGy64YfhfFLNBwbBviJctdf/kVIAtROyuf39oJANfXYjWLPp/eut4jOLwE33XsMlfN5+ll8ziw7VbJAfxqkJ1wx6/hKa5fU/+fk5q/w6ib+Nvi/48/sPAlG9e2/ytqBf+Zfa95BHPIs227PI/Zsvi/ec8R7iWODm3q+1t6nc8NZuft79/dr55/x7YH/zcoMvO98+jT8WHCZ/JIQSxIeqaj4kRHAj70Gz1IT8fPuim+JsOMzPU9xQiq42bpIAAL3R3mx9lQRr7vO5JQL1O7mG8fnlOK+ZG78UdO2Pblz7NMaxar+mIxjY/hsHhX5+j9fszMu1N34u6HddCtjc6Ry6vp7jLBKs+Tbr7Yr3n/H3yzfef97Z/xT83idCaEI2zr8uuir5/Pur1xp83vn2adzYPkn+WEiHDhwl6JcYRZTXL/nHZ6miAFGFRnm9z+fGfl7ODACgWnFTI6/44/yH1HQzGPvM/F0Gqfliz79yTU/a4BJ09foft9d+dP0RsPn6Nf0h1+qw7bBQm+OCf/eXXqL9eb/SvkcphYDNtz2vo3i/FO+bkskD32P9xvvPt23XC27x62/TWSr3/sy6zxm9Ov9KuqZnJddbyAY+ow3YjFWCjrlUgn56/vrFIj/8mNeBanRajPeKsI0PpwD9859KQM3ij7I3bmrEH+UHqvLgxvFeMsYWtZ1CoCvX/3W45sS1/83iBkd0rPrQBuhqqtsslXuTcVRp8Ik/K+3vMseesi+eQWufhDzHqvLg10oEbT60QXrh+dvPwFK98vT15pou6Tou+vwTsoFPCNgAXdR2tdnPP/6Qmhm6dNMgPpzmsyTWQDkAesO3wqhS+43huKHx3ufklRnl9a692SG8zVNe/8I1DyP2zgjQ7ddw87IdLVJy1w03GfuhpOd5ka+rpafsT2fQIDqC5R+dQ6sR9b3uxHYikPhFJQcCfK7oh5JGRRV//gnZwA3n26c7yR8OgQ57/vrFMq8YH7WVjBDr+geX9+25AgBQlPbmegRrImAzUpEnMUjNN4t1tmHV1/+ovf7d1Hw4Ea6Jzqdx83Jcwb+n5JuMYy/H6vew2LdKCsC/8az98flruydGuGYnGUv6FOfVOP0etvFlkhvaQECpQdO1St6D8PXzr6QwVfHnn5ANtM63T0epSesCdN7z1y9mqelqM1ONTn8wPczny/v2jAEA6LRPOlf4o3o3xPvId23YxnPCY17/cWPzbWrCdV5rj/cZ8aS9ngel/iN+/W16kR8uSn0O3GSsXkldbK7y9TTzlP0pXOMa7YZ4Howy/bOSgwE/e/qqVlLApvTOiB8J2UD6GLD5+CFXJbinoRLwFNoRUtHRJjrbLFWks+IP1O/yWXPYnjcA5b3ZmU8WqgD1ajtXaMffbaPU3Og4qWHkDJ3bA6JbQHSvMUpgdddzdAnYL/jfUHI3GzcZ61bSPjZz/gjXFHJmCXy3fv1tGsGAZan7o1FgVXtZ0O961o4gLZqQDTTijwkOF+5jkcr+wwIVeP76xSKv6GpzkIyQ6vpZ8+F8+9QfrgGATmjDNdG14p3PxMUYp+bmvLGkPMQeMGj3gOjsLLy1ensFd7WJm4yl/v3BTcZ697TNwt7PHPf4uVoTrinOKP0e+O77HlpyNxt/l65zT40AXEkhuCrOPyEbeu98+zTeEOypBHcQf0SY5fXD89cvnkXAQUnogvxa3M8PP6Ym/EU3xR+u3+az5117/gAArNyNbw3HzfWRihT5nvIwP4fvfaOY79gHrrvX2AOeVtT/fRsOKEb77eOS2/yPvfSqVFKXoot8HS17ePastV28hGvK3j8/dmPrcXfFWcG/+ysv4SqV1MXmoh09WjwhG3Co8O3ig89uasI1W3ktlYSuiddlhL/yj78kXW26bJTX+/Pt032lAABWqb2xETfWx6pRvAjYvO/5TQ7uvgfEDc63SfeaLvn4ZYz8vBwW9nsfFFzzl1529e1thb23Oe7hc7TZvgfdc/5UIZ7HCNv07jNFG5CbFfrrx5ctRl6+1SkprF3N+SdkQ6+db5+W9uabp7HI65cYx5PXUV6CC93kzeEN+XUa3yiLEVJHqtFZcQbt5bMoRkh5/QIAj6odDeXGRp3iOX2nqw3fsA98DGYlowK6aqcdH1XEHt3eZFwUWutBad2DuFVJz2fpnaDuevZcjyaMgOfAS7UqcV6dtGdX396HljwyStC0rj22tFGJ1Zx/QjZ48+2Pi3z5w84s/T4S6kxJKE0EwvKK7ksxQupCRTor3gTH+KiTNvwJAPBg2q4V0R0hbm4IYdTr311tlIIv7AXjdh8YqEanjVITmivleXKTka4oqVv9WTtyrQ9nT7wv+ZB8ObIPZ1evuivma3iRmskHJdrUBbMqJY1KnNV0/gnZYPOBP4o3Rl0dCSUkwb3k1/FFXj+2r22dmLprnFd0tRkrBQDwENpW4NG1Ykc1emOv/TbxQCm4sRdE0O4k+aJZKa5Dc50PRv7623SWyv07g5uM9exxg1RWkPi4B8/J+o0OivTofWh7fo168u8t9VqOs083tzr22tKeyzc11V/Ihr5zkHBtkddWx0dCCUfwXeK1nZquNjozdftDTnS0ic42vmkOUI6BEtA17TeHda3op1FqbnD4mwexF0S4RtCuzM+GpYzfmBVc57GXWhVK6mJz8etv06q/SNm+B42Ajb9r9fezcZxfhz0IMsb5V+o9G93c6lDStJZl2wGqGkI29Nb59ulIFWjfCP3YjoSaKQe1i+5Mef2Sf3yWym1p2QdxRr3PZ9W+EVIARRgoAV0R3+b2zWFS88fWt8ZH9XoviFFxb5MQQenXcQlBm5K7crzyMquCb/F7D0r37KRywqL30o69KfXLrCOdL6tQ0rSW6rq4CdnQZ5LU/bXM6yCv/2pHQhnDRO/k1/0iNV1tDlSj0z62WRUMBQC+xT/+Phkn3xzmk/eTEbQwEqV3e8HHcEbSwbkGnQ/a/PrbdJmaDtElGvRorEmt+13sc4OCfuWZ96D0yPX4w5o76pUcHBh7iRa97w4Ke69f3fknZEPfP6TSL/GB/3ok1H5HR0LBysQ1ENdCasI2CxXprHjDHOOj3uY1UA7gCXnvBB0WLdnzw4nPunxG/PH1nW+r9kp0sHGjsx4ldLQp+SajkRllK+lb/LO280VN7z/X2rGE3oPyNYe1hr7b8W+lfonb+Vf+Z7xSnNV2/gUhG/rsJyXojVkyEgq+KLo5xfWRf9xKbqB2/Y1zdLXZUQrgiej+Bx3U3tyIbw57j8DXXH+TWPCi/j0hbnSOVKI6cWPypKs3KH/9bRrjMpalftbW7avc90CprE4Mbyqrf7yneJd0w+Ab99qK34uWGjQdtN3AKFNJIakqRyUK2QC1ig/2RkLBHbQhtB9Spa1rKxF/QDo83z6NsI0bJADQc+0fqbXm5y7vJd/5Y3rVe0IEbMYqUa3rG9pdVeoNlNgb7YtlKul5W/7623RR0Xmz2e5H3oNyF4P2vWhV71XytT1L5X5x9Wcvy2L/DlDK/rtsw9jVEbIBahMfVoyEgntqR0hFR5vobLNUkc76eEPtfPs0Aje+cQcAPXTj5sZANbiDeO/4trabG3zcE+I59bz24LNgG6bqolnBdX3lpeV5e2THtRQ970H7qRlL6O9R3Pe96Ek76rYmpZ6BY93ciqSLTQcI2QA1vYl5ZiRUr/23EjycfB0tIqyWmo5QdFeMhYiwjW/dAUCPtDfT3dzge5wI2lS1J4ziOVWJ3hh38fr99bfpMj+U+k3ldeP0itv3BqmsLiqzSuoeZ82eVyAPYCe/nt5WFPAoOUjn78qeM+ffPQjZACWLLjURAPihHQm1UJJeGyjBw4uOUKkZIeX66vZr/+359um7vFwHAFC59lufbqbzEARt6tgTPnYnUoleXr9dDBiU/G1l3Ww8X4/l7NffpkV3W4+zJq8YUep9Aw/pY2fOGoI2bdB0YT9lBftxXDeDQn7dRXttVEnIBijRRWpGQv1XOxJq2ZN/t9FXPIm4xqJLVP7xF6/DThulpqvNvlIAQJ3abw/vqAQPSNCmfLpa9fv67dRz/+tv0+hksyy0nr7J7/l6LEWPymi7BsWIUt2eeAzxuvpQSTexUrvZrLfXOWX42fnXDUI2QElmqRkJ9WMfR0IN55MLLwGeUr7u4o9l0dXmSDU6K/7Aune+fRphm5FyAEA92oDNWCV4BII25e4L+6kJ29NPcUOyi2NbSr3JuGYvLGbvK+lb/Ms2fFZqrWOfeZ8EbHjk/Tc1HW2Kfp0VHjTVzaaMPTmulVJCplf5mpjV/HwI2QCd34iTkVDQGfkavMprN/8YnW0Ev7orPpTG+KiTvHyrFWAFLjemI1XgsQjYsAIn7U1LytkXuhqwYLV28muha+9BZgXX86WXVBF8i39150x0sPF3JVahiqBNwde8z5pl2CxoT57V/mQI2QBd1deRUFCECLxFV6n8YwRujJDq9gekD+fbpz4oAUChBGxYoZNKWvX3xaEScOPa7cwNl19/m8bfCGaF1nJkZEbn3xetFfa+aFZonQVseArxentfeFexUs+/NYH7IpQUMj2u/cn4m9cjPbZUgs6+CXmjYw2UIV+rR+fbp9EKM/7A6414dz+gRkeb+EbeltAiAJRDwOaL4gbudVfFf37mf3/9eXKQPj9O4qcb75OESv74vjG+Qfzs19+mulZ2e2+IfWGkEtzY63by2u/Q7/Sm4PMrRmbsell1Vkl/ezrL5+mywDNGwIanFuHRVOKombjm8+8+K/QMjL8dn3n5dXZvHhR0Bl6UeP7dlZANffa/StAZ199wOXbzF8rTXre/nG+fxpu8CNsMVKWTRqnpahMj+I5i9JeSAHf9kJzc0IOVEbD592fF2Hv+2T4uHyP80X4rfj39Hsr5qf3Pfby59DGg3QZtvF/s5t6wlnSx4c/24qZeV25o5N9jkX+fZaF/H4izV8imu14V9LsWNzZGwIYOKTZok8oNmm7G+0yfAbr7/BT0ux734QkRsgGeUnzYjpu9Z272QvnydXx2vn26SM036PZUpLPiuXmZn6stXcOAO/o/JYDV+MffJ/upnwGb+FwY356MUM1iVTeL2z8kLz7zPAxSEy78qX0c9OR5iBtsb/N65mrspPi85eYnn3PSses2brCUGAj7ODIjnw2+zd+990eDVE4HuqvSXkMCNnTxXMuvy4vSOixWEDQ98tLrpJeFfaavnpAN8BRigz12cxfq0wbm9m+MkBqpSifFh7x37fO09f/Zu3vlKJKsYcD1vbH+slewPcEFCCzMaRwikINwcMagMWQQYwBXIHEFAoPAkEFj4OCgcUQEDj3mWEgXQNB7Bau9g6+OOjUjGH70062uk/U8ERWw77s7U51ZVZlVefIcgY4A0B2lDEyfApan5R3xZdc+oJcgn3E5jhafYn4bHzhrLzM1bH/vVtsGsjl06/kQC58PtATfuW+HsbjXkfMZl/Es44K9khndlOn5N042vgiwoauyljLNGmga458gm24+o7O8f+70JRvS/7k0gQtyUAbnn248v3NbgA3Urb3H99ojdtA9Kvc/3RRpJqOE1ENNAQDLF4ujzSwTQR/eD8ftcfXtx+2fIpAjw4fzOMf2eNIeV+PdtrzjTivup4eRzcGd2a0+aSyA8n2dWdArCyxZA1XWStYUOtYvic41TamMEsApwIauOrw+S5BBJuMm5zfxKwnbug/uJjrXp33pFEE2wKJN2+NeMwuuedQeU03CoiaAmqB72nv+MLiuSbaDp4cvq1vv7r+OzDbuIwBYkvIx801f3g/ffty+l3BH6p8iy00JDvqp/KZJpX32wkJzp+bttWaxOSrZ9q2Dk7tSMqJ1ReaFlpHLqVPzpAiwyTIeXVjJyzm0qwCb+dj7wTi2p4nOPQd6X67XLO8KmQNNZU00JznzszDzO/5pKRcFLIqSUCxjsk0HlVJE997df/2yme3MHmiVThq2x4e2nyIw6rESUgBwccoH4zcVz2njvfBxh0qYzFX7u8btH+OSiSh2GY4qe8+Ka/OqO3Xp3iR/Bkzb4z/NbKEx3jX2TptKvjwrr5TrMv78d/nTZoHPRYmmcUeej3ttv+0l7aN4nm+6nDrjVqJzfZnoXN97hp5qDJuW4+A8C8kluP7SF+PZ4NgYx9fnpEelo7J8s3ya9L0gghrvueQ6861gLdFz4WWf+ub/uTzpq3f3X282/apzfxGOUn4/lbFmMfZXtz81AhS+aWV33bjm+ct8xDM8so+pQQ8cn4d4fn/f9XYuMtEMnMXNy+uxwDGs8KfFPVFtcM13+jMWSLYq69Pox033ICd8l4h7/vfmAnezliC3OH7Wl4fulQDALtxfoyZvKcTbbTt6L17+NRSLi/9NcroRfPGvJO0a9+XIFfa3uevh+FXGsOkS+mXQ/BVAakz7Sh+1/XI90fPrQ5MzkK0z8whjYKpn9b8SBcGdm0w2wDzEZDOicscyH1xIWw80A5m1z4nNd/dfxyT9hRfFzornzJu2n+JjolJ/ACdjxyFncvPyem3BGEfvLff6FlxzpAQVXC+L/tG/NewQ32h/z6SvfcoPxXvDb80SS6SUa3NSnqsxJseu35/Ln30co6PUw7hD18dW0n641eQt91GTtWTPwwzzz4eNAJtwVObpt67Mcco4Oj1+LR0LJL3VyDw0jKCDKD2b5Hxj3SxjoOmtDs0j+vyt4FKiZ/W4TwE2wY5/eksmhbmIiedTmQ4uzv7qtt113yGTTcpncUwSs35s64uD8qzf1BTQ+3mI+fP3PW7nIp6VnEpJ/fymop8U84bIePJE737Wzw/L8zP7nHfaHldr/Hgqk82ZHAXW7HT5mjgWcBNBJ31bmLzelUXj5Bkz/tW3RaMO3seZMkFcvagMXuafZxb987KMX9OE98OgjGt3m34H3KTItFLmIZ+Svgf8lPEeqWz8i7lTliCt633bkPF/LlHglI5KQv104/md6wJsgPNonyGHz5P2sBDTXfESuPHu/usP7THUHAAwH+UD+YuKftLhvE6Azd+VNrnalCwbicU1K9iy3w4D6cq9HmV0Or9jNc6vnGfcg9ebfu3KftChc3mcuB1Hbv2lz5eyBBLsJQiwuVLZ/PM049eTMn5FINSTrMEDcd7l/GNc+6k8X6c97NMX5Xruen8dJJ57rDUs290k5zntY8ZTQTb02Z4mON1Dsj0eNbPgmntKhwDzEmXm2iOeL9c9mzstXlzfv7v/eqs9ZB6CfrKDF+YrdhDXMKbGu2HsWrtnp/+3lQWR6+W9OrOHpWQB/RL3edzjkdFjM/HC5KSUl6gh6O0k1kqAQieegYnb/IFHgPY/oaddPrmSUeNF069s0nvHxq9HtWXlKPPLGJcj2OZ2T8a2z96nynXt2eD5W50yh8vy3vWyj30kyIY+8/HvZGJidvvG8zsRXPMkFsM1CbAI7fNl0h7xsfOxZ3SnRbmDT6XUF9AvAiFhTm5ePiwtVkN693EzK4sw0asncyyrzTTxz3ihJ3sjrtNYnPwpQ0mGU9yHeyXo7XpT/+7/Li2QZV2AGQguXKosmRTiO1bXM75vNf0pLxRz0+sla824Dz+4/Z07x8a2cU/6edAkKH2WONDU+Gf8O813gd4RZAN866UgHopKQgEXrn3mbDazhQfPnu463P307v7ryGwz0BwAcHLlQ2X2kjvxznhb9pqzKaUkMmfSGJRAMeoWmx+qXpwsAYJxL9Zc5m7UofYeN3k31Nz1SFjKnCkWGAdJTneny3Oiti1HTT9Kn8VzPYJrrvc1CPxY1rbIbtOHb6vDJPPSrIGmxr/lyZJJaKe2LGEnJcgGOC4ehEpCAUsXz5/2iDSnt5t+1hVO8yLbzLLabGoKAPixY2n6MzsMEIndsnr07GIhruw2Hif9CQ+6UoaGuZu0x0+l/MRBT+7Fo/LFNf7eS2VxvSuyPvPWkpQkqc2tROfa2XIw7bUb2Wu2Kr9WYn7a6+Car4xvUUrqdhnfam+TjXKdd7k/YvybGv84xXM7y7vWy772kyAboCmTrHtKQpHd/uq2CV9lSiat2ncWVvEy++7+6wi2GWoKAPj+mNnk+Vj2NeNmtoAx1ZXzUXYajxOeerx7benB6jwqC5TTHt6Lk2a267/G8phdClR4mrQN45m31nBhyqLuKMnpTkuWuq56Ua7hGsU6xr1SFmrizvn6+FYCu2vfyPgmQTBIxmAE499yZMkgNO3z5htBNtBv4/a4WkpCjTUHFbiiCeoTgX/tETsLM6fU74NBe0T5qCgjJeANAL5QykQ9TPwTHisPtRgl0OZewlNfK9c1+U2bWYaqJz2/FyOrTbx3jiv7aZ3ZhV4CuLK+1z9ouNDrNtG5djmLzWZT7/fSGLN+qrms4Zyfv7VvZBw03S/Jm/VaVTLq4o2SnGevs9sKsoF+igffv0pJqD3NAWQQz6sICmxmZe0s7nT7JSCy2jzUFADwmcxZPyK4ZlMXLk5ZIHriumYJDhfdOp6F4aLvx6wZpr6nSwELWcsKXOl6OZLKZApq6uTzolyvGxVeG9NmllnxkeDvU49vRyUSI9imxnH/YZcDwEugacaghKEysRf67I45W5YNrE/73FeCbKCfpkpCpfW7JqDvoqxdM0vjvaM1OuuwfMC7+68js42XMAB6L/ku4nt2CF+MsuiRra1j0Xmk99Iat9fdbYuUX70fs2aY+pZbHWrbeM5Nk7ajbDYXM28aJJo3jTv8DH1R47jVzAJDJ+6Ucz2HI8AmNjLWmNXmRcfLRmUNSjDf7+Gc7QcmfS8jLcgG+smuCyC1UkLqdnkhnGqRzhq2x4d391+r3Qv0wYom4GvKQlHWRTkBNhesLOxnCybf0HNp7+97muG792M8/2pZgOzaO9lL7ch3ZJo3dfJarrBM1MHRuCUwdG5j3FFWm9tNXRnDB12em5YAsWnCdlUy6mKe3REgNjL+5SDIBgBI68bzO5P2iKw2j7VGZ8XLwRvlo4CePO/ga7aSXh8CbJbY9k2uFP4D2Wzc37VKmmHqq0r5ga7I2qaXPO8uRJZgpmkXM6pUWCbqMOuKcWth49xh2cimrvJRnS4b1eTMZjPo2DzC+LdcB57JgmzoNxHPAJW48fzOZjMrITXRGp0V5aNeaAYA+qR83M34MdIC/BKVHdrZdhXLZuP+rvmevFfJu+bPHWrTaZO3BLTd/IudO8W8aZDkdLu6UL5V0SURz97rpbwRi30mR7bwmuYHXf4GmbWdb7lbzDGSX8NzJciG3rrx/I6JGUBdz/Vpe8QLYXwAFUjZTSOBNpCa+TOcXsZFjkcW4JevLHZkKuUjm00OAmzOroZyGsOOnU/WMgPDUgqSxci0iNu5QLEyFg8ruRbG7Zh1XXmoC5t7HpSg0lrmCYNSNq2TbZ20nUelnBGLeX4PEj2/X+oxQTYAQGVuPL8TLyk/NSKqO/tCJtAGclrZXfdxE06hLHJcSXbasZjxRO91Q0nfn6k/ZLPptscCbM51Px5lmMrsSpcWx8ozbpq0LR+4KxYyd4rrc5TkdHdKQGzX2q+WLDbjEvDBxT+bo91rafsHHQ6KfJq0TZWM0rZ7sovNCLIBAKpz4/mdg/aIF8LIbGPS1z0RaLOlGQCoXLaAg4nFjE563ORZhB6UMh90TyxWbmqG82nbcFLuycyGHTufrDuhR+6Ihcg0hnTx2n3YHjVkmbhnTrr08W7c1BFoc6mr72QlSCHjN2tBptr2qa6aEWQDAFTrxvM7k/a42sw+hMrA0C0P391/PdIMANTo5uX1WOQYJDrlaZM/Q0OVSvaMTIscPrx3TyzgPNIMc7snN5u82VdC1zKsZc2edklQYa/HkGnJxNSluWfMO2vIKKesYXfGu3FTR6BNlDgadvTcMgYrXFEycSHP8CtJvh/Eu+mOHpsRZANATa5oAr7mxvM7m+0fEWwz0Rqd8uLd/dfuWwCqUlL1Z1vkuF2COeigkj1jnOR0h+UjMd1w4P5eiMyLjj937Pl20OQt9XzXrTDX+dOgyfNdr4tZbGoIsHkiwKZzc9BxU0egTVfvj50m56ZQQfX9nVPseK/4iyAbAGpySRPwLTee35m2R5SPil3aUy3SGRFo494FoCbZUvU/UlM9Rz81eT7C+/DeHZERwLvPnJXAt6y7eLsYxJC1ZNSa3fy9HTvGXTqZkqVjlLz/o6yhrGvdHPPiek9fKrGL2WwSB5qO3Bm9bdOXuuovgmwAchElCud04/md+BgaWW2eaI1OiI+8G5oBgIpk2tkeO9HMiRIoH+GzpJRfKxmdWK5x18qZVCbrYvClrgWGlKCladL2HLkV5jd2JDnPSQeDF7N/U4n56D23QKfnoZtN3qxjR7Y6el4ZS0YpmThHpS0zvDtNy5yNQpAN9JPUzXnZYQpzcOP5nYP2iI+iV91XnfBQ2SgAanDz8vqoyVFLPUTQhgWNRMoCxzTBqcZHYh/el39/ywiw2Psx7sVx0tPv4jj1NGlbKhk1n/nTWqL508uOtd2w/WOYuPv3zEfTjHv3mtzfUK+Ud7Uuzicmxr9eu5XkPJ/qqs8JsoF+sqMMoDkMttlrjwi0yZR+v1ZbmgBIbqgJaHLtJL6nnnpKWdL1Kxnl/nY/mrOcxjhpWw7s5p+LLAuMB6V0jrnnnNqzPW4br1K53uTNPNbl+yVjCR6ZK+egtOEoyemO9djnBNkAAL134/mdKJPwU3tIp748w3f3Xw81AwBZJctiM1FGJqeyuDdNcKqxW1imQvd37fdj3IvjhKf+7w625UGTd/HmlrvhXPMnC4xnb7thkzvQ/14HS2/x42f17cQ/YdDRbDZZ5vdfGrkrzi1LoO5YQOTfCbKh75QIAeBQKSEVL4rZd2VktqEJAEgsS8psZaLye+me4Dvc3xcrYzabQUfPK2sZgpHd/OeSKRNQ167RzN9QnggIzantt1hTy1ySsqvz05faspeytOFvuurvBNnQdyLvAPjMjed3Ju0fUULqsda4cJHNxo5n6LaJJoC/Kxk7hklO96ldw+lFFsYM3zOUUFnCteH+vlilvbPNj650tC1j4TbrhsiRu+HMspQXnHTp+drOPQdN3iw2e21bPnLppx77niT+NjAsWaC6ZpywLWWu7MdzfCoo8usE2QAAfKFktdlsZiWkJlrkQj3QBAAYvxZm2swCNEispOrO8KFz4MP7hYrrwkaB5ciWgeWStvQe2wVlgTHLONG1LBOZs9jIuFaHe03eTeydu39KEF/GQAbj39ll2ZDwUld9nSAbAIBvuPH8zrQ9rid/cfSCAQALVEpEjJKc7mO11KuRZSFaGvkLvCbc38tRdvemavsOB8Cla8ti0NHMCF2XZXG2U8GtJThplLTPH5esVeQf+6ZN3uDeYbmPuiZjMIPvuPWPgWNd9XWCbAAAfuDG8zsxmfzJpPJCXHp3//VQMwCQyCjJeUaaZ3OZSpQFqmmCU/Xh/WLEArAsVcuV7fnayWw2iTJ1fY2gwnrHiJ2OBTGOkvZ3zEU3XfZVzUczl43qYjabnSTz+8/mEzcvr4/cDadTgp0HSca/qR77OkE2ANTkZ03AopQSUpHR5nrCF55sbmkCABLJsgNNGZn6ZMhmo2TUxdiRxWbpsu0+VzJq/tZKdjtOoG2rCLAZGG+rnnt+SZmoOj3yzO79GOg77ullCcxVKuo7BNkAAJzCjed3Ju0RWW1iocqH7MWwEANACol2oMliU6cs2R6GumrhBNEtWaLsUp1/5yptOUl4GcRirexdJ5dlUXavS+WNSsaIjMFcEQw6cdlXO/5lzKbX1ZK/Gd/Z1jpafqvLRgnO8aBkV+IbBNlAT727/9rOipzUrIWOuPH8zmb7x9Umb1rULhtqAgCSyLIDzQJ8hUrq7gzviHa3LpY07t3h3XB+su6cfqDrfqxkjxglOd2uZZXIWpbskSu/alk3InbumV0yE44TtqUg05OPgdFWGdZnx3rr+wTZQH/JEpDQyu66rBnQITee35m2R5SPut3IajNX7+6/Nk4B6eyvbgtk759RgnOMOYodaPWaJDjHoRIqCyWNe3f8pgnmo2Rfy/iOfUWJvBPJshjbqTlUyRQxTNjfTwSDVv/MjnslY5mjrpY1zTi3E2R6clk2IDzVVd8nyAYA4JxuPL8TH12ihNQTrTE3FmKAjCyq9EimHWjlwzd1yrKoP9RVCzGVxr1TJonO9ecM41fS68BCYz1ttNOxOdQoYV9H+8mo2A9PGtls5qKUVstW0SAClsz3f/wNIUsmt4ngyB8TZAMAMAc3nt85aI9If3u1UdptHgTZANB1dqCxdOUjfIYFjZ/11kLIYtOt+/HAu6Dxq1Ey47tKNpYsgelde8ZmLBX1VLB3r8bAjM/trj6zM7blXXdCNXME7xgnIMiGvvtdEwAwTzee39lrjwi0iYAbHxLOTjYI6KapJoA/ZfhAZgdaP0wSnONQNy3EWBN0jiCbOSnj1yThqV+6eXl9pAe/KUsWm2kJZO2EUtJmYJyi4zJms7lUMpR2zU7CtlxTIvaHMgQiKTd9QoJsAAAW4MbzO/FiedWkFKjMfzQBHC50DJscWdfsQOuHDBuIrvjoPnd7gujcjz2QdRyzm//bsuzif+qaOrexcapfEmezudXRtsz2TflSI5vb974hDJocGw92ZCA7GUE2dM6ra89G7eFBDEB6N57fmbbH7fav1xvZHwCgJllKRQn27YcsmTOGumquBNF1k/e+OXr7cXuctE2HZTGNY0q2iCztMu7Y+WRcL3nsqu+lccJzXnMPzY0g0/zPceWmT0iQDZ3w6tqzS+2x2R6f2v/4olEiAoCK3Hh+Z9LMstr4wAAAdcjwgcwOtJ7oUjmLH/hZb833HtcE7seeyBpQ9kDX/U2WIOVxl+ZQSUtFKVna33Ew+n2c7LQ7WTIqadlEQaa55wWRKVPp0xMSZMNSvbr2bNAeEVTz3/bYODZZ/KfWqaaPX8hMxAUygaOzbjy/c9Aem80s2GaiRQAgp/LRMMO88ze91SsZ5pc2VM3P1OJlt/tHE8zVOOl5j3TdZ/OnS4napGtzqIyZIWRb67eM/X9LWxr/FjgGZgmWlMXmFATZsBQRdNEe79u/fvrGA9eHl3rEwPEm+juCqjQHF3C9QafdeH5nrz2ifNS99rC7HADyGSY5z4mu6pWpe6dXZLFxP/ZGCSjLeM13MjPCEmVpiwhi7Nr1lm38PCil3ujvc3uScCwcdrQt417K9v1Yyai8beId4xQE2XBhSkmoh6Uk1JvGx5W+if7+EGXBNMX5X1Q0AeR34/mdeEn6qcm7Kw8A+ipDqQNZLvpnP8NJ3ry8PtRVc/G7Jug0afbnL2tWDAuNf3ngWjvTuDlo8m1IHrvcafJlxBiUbCPacj5tKcj0c6MMz27lpk9HkA0Ld6wkVATXbDUyTXRmoFvCvzPSgm6010ME2wx1wZn5WAOVKCWkIqNNZLaZahEASCHDu8xEN3lP7CiZi93jffA/TTBfJbNIxnfmtRIk0WvJAkXG5p3nplQUIWNGjK7eb+OEbXnLLfDnGBgBR5c8u+sjyIaF+UpJqEtapVOW+YIXL1VRPupFZDjSFUDf3Xh+Z9IekdXmcSNbFUBmFo8rV3Y3ZniHkeWif7IE2azoqvP3tV2mnTfVBAuRdfFnpOvSZLHZ6WAmwJ+zPf/aNrRBlKNSf9muhVsdbstsQUuj9t3Z2l+Hr6uvPLsnuup0BNkwV0pCcYaXzE/t9eJlE6A5DLbZbP+42tiZGizAABn5iFS/LIFUFjd6JlHQhWDE8/Ou0H1TTbAQT5Ket5JRTZOlbEgXA7mGyfp6x+VOx++prPdbxkDT3peMKoFGowSn+rTh1ATZMBelJFSUgspWEspL7/LFIBMZbSKzzUBzAH134/mdaXtE+ajbTb+z2lioBqCLUuwmtoO4tyYJzlGQzfntawL6qAQTjhOe+qCUiuil8tsHCU51WsqSdantBk2edZYjyo1wXLqgq/a+G3Z0DMxYNvGBWyBNoNFYV52eIBvO5dW1Z8P2iIw1EVzzsMm3IDbVi50Rk5fIarOphBTAYbBNvDzd1hJAx0w0AT13xX0K51PKruEer5lyXouTdQH/Vo/7LMtv72IwwDBZXysVxWeSlozq8n2XLdvIlRIs2GcZstntKEV7NoJsOLVSEmpUSkK9b6T8Yr422uNDBHBpCgAAoGMyBAf4QNZfWRYxBrrq7MqCFd3uI4vMi2vbSZNz0+SolIzolURlMkIXF6+zldGeeErxFb8lO98u33fjhP3f22w2JcBomOBUZSA7I0E2nNgXJaFeND6KcDJn+bAQ11aUj3ojqw3QZzee35loBQDohq6mDv8KpWT6639JzlMmm7PzfgD5dvIfGfWwr7Jszp10NIBxmKy/f2sg/9yls/dd0rKJox5f+xnGwM6VSsxEkA0/VEFJKJbrPB/5YhCKElIPNSMAALBkWQIDZLLpryx9v6KrzkyGFMi5kz/0cTd/lt/c1V382YJSJx5PfKlkIMvkUsdLHL1M2J59rYaSYQyUxeYcBNnwVR0oCWVXE38Owu2x1V6LUULKdcEP7a9uD7UCAAAL8O8k52kRvr+Ui6rf/zQBfZd0J//hsy9RVrxzK4vUKcpsttfUuIPtl+1a2Sv3JnzNJNvzusNjYLTlNFl73u3bBd8+w68keecZN5yZIBs+U0pCbTbLLwklWw5fikEpAm22lJACAACW9E4CuJeWaaIJ4FDWndd9WmgcJTnPcUfPa2B8oiK/JzvfYcfP73Gy9ly7eXm9b2t6Gcb7rpZKTEOQDYdKSagIqongmo1GkAvdFaWjIthmrcdtYOADAICLJzAA5qSHH9rnRZYAaP7cyZ8xc1ufFhqzBBQ97eh5ZSutuO/JxHdMkp1v1++/nYRzwlHPrvkMv1epqHMSZNNzpSTUh2ZWEmqkRXrl58TnPmiPN+21+z6yL/Ww7/7j8gUAgAsnKADmR9DaGbz9uK0cHPzlacJzjrlE9RsHS6mjQYJT3evwLv5s46TxiZquj04/v0pptp1kbdqbTG7tGLiW4NtBJ0slZvMPTdA/JShh1B4PGh8JyS1e2CKrzdNf/vh1U3MAVMUcBcjoZ01Qp7JYlMVWe76yXWCuVx/3NXwuFhi3Ej5P4pv8uPK+kcXm/AaZOlwQKD+4Pg7a95Npous6Q5BbPL9GiS6DK+01cKUnz4pbCc5x3HBugmx6JEpClQnuSGtQkXiR3miv7xi4Hv3yx68TTQJQBbubAejae4cxFOZ7ne5ohlOxgAnHlEXbeI6Msj3/al5oLOWwMmTr6XomiEGibp94InHCeUya67p9lg06nOnqMLCtPce494aJroEIMr1X80VexsAM85KnDeemXFQPKAn1bTee3zEBrEd8oIvyUVvtYUccAMBi2EVPn983AIBuybpI9KDiPslQJiPslJIrnRNBWMn6fOpRxAnsJzvfQYJzfJlwfKhdht/Y5VKJqQiyqVQEGbTHZnv8t/2PLxofBOmPh+3xKYLLNAUAwHyt7K7bRU9f/VMTwFwpr3d6xmD4QskGk/HeqHmhUamo88u2gfQ/nkZUOI8ZJBgDx02ujVCXbl5eH1V+nWcYA2WxmRNBNpV5de3ZlfaIoJoIrtlo1Lhm+ZYxyMd1/6K9FyKzzUAXAJ6jAMA52bgCLNv/NAF8VcbFoioXGqO8SpOjdMlex8t1ZZt3TjyGOIFs3zcHSc5znKxdb9V6gScZA7teKjEVQTaVKCWhohxUlIUaaRG69NKyxH93DGiR1WZTNwCeowAA0BkDTQDMQ8Kd/EfuVtgdoyTn2fUSK9k2Ttscxkme1ZNkp/zvJOeZLdB0rQSj1ChDlrrOlkrMSJBNYsdKQn1qZiWhhrX9Pr3MnGzEfdIeQ03RCwNNAADAnMlkA97bls0Hcfi2ccJzHla40HjX9TIX/87U6R3PCgRVz1Xb+2/a5MtMUmvJxAcJzlGpqDkSZJPQV0pCDSr9qT5iMu9JUZSPeiOAywQYAABOyTsEsGwWMeHbsi4aPailA25eXh82Ob7JjRPs4h+4panURBMsxMtk5/ugtg5ox8ArCZ7de4Ii50uQTSJKQsFcRJRsZLV5qCkAAAAAILeyk3+S8NRHFXVDliw2L90xczXRBFQqTRKAdgyMTDbTRG07KIGZNckwBhr/5kyQTcfVXhKK5Q5kPf7tsQt1K4LWIjOUlxcAAOBbbl5el8UGFnNvDbUCMEcZF48utc/C9GUzylwpw++Yvv24PUlwngO3M5WaZno+GwMX6m5l1/YowTmOPYLmS5BNR7269mxQSkJFcE3NJaEwWV+mYXt8aO+1LSWkAAAwx+YblDIGgI57+3F73P5xkPDUa1hojACbDN9Ws5QVy/ROcdDAyf1HEyzMk2zjRi2bWUqwbNd/S4ZSiekIsumYV9eerZWSUBFcM2rUfYeLEKWjIthmTVMAdMe7+68HWgFIxnMLAGB5niY851hozD6HzBIoNHaLzN2+JoDlKwEUmZ5xWTKgncStBOeoVNQCCLLpgFIS6mEpCfWmURLqooneI8TL7Jv2PoxjoDkAOvNsBgAAgJMYJz3vUdYGLwFCwwSnumMXP3DK51u2jKZKRl38NXIpwRiepVRiOoJsluiLklBbjYWkZdnTBBwT0bOR1WZTUwAAmD8DAJDD24/b0/aPnYSnnnmhcZTkPO3ih+WbJjvfVJVGSiBFpjYeVpDJLUM2HuPfggiyWQIloSDF5GmjvU8j2GaoOQAAPmMHKADzevcGmLeMi0mDm5fXs5bNyBAgFLv4d9wasPx7URMs3ONk5ztK3t4ZxsCx22IxBNlckFISaqQkFCZOqUQ6wPftfbsV97CuBJZExggAAGp0RRMA81aCKaYJT/1WthO+eXl92OTIzv8yWZsCnFWMgZk2RqXN5JakXOJOyfLHAgiyWbBSEipKQUVwzYtGSSh65pc/fq3hAf4w7uEIlNOjwBL8TxMAAADAiWXMZjO6eXk92ya/LIujY7fEwkw1AXTH24/bEWCTKXNX5kxuSkX1nCCbBYkSM+0RGWsiuCYW6GXBOD07muiSuIdfRKm3CJ7THJ22ogkAAJijoSYAgFTGSc97lOVES0BQhgVGu/gXS9tC9zxNdr63krbzg64/n5VKXCxBNnP0RUmo90kmmV0mMIkuGjazrDabmsKzAwAAAIBuKUEV44Sn/iDRucbaR4ZvcHbxA30bA/faPyaJTjldJrf2fCNJxKDjpynAZsEE2cyBklDQSxsRUBdZq5bw7z7Q/AAAcGH2NAEApJMxuCLKZgyTnGuGUlEHdvEv/prVBGAMnINsSSsyjIFP3QaLJcjmHJSEIrt3918ryXX+l4goH/UmMlld1L90ZXfdR34AALg4gtwBIJm3H7cnTc5SNp1fuLt5eX3Q5CinOXYnLNxAE0Anx8BxsvfYB8maeNTx85solbh4gmzOQEkoKiIwbD7iORBZbR5qCgCAfttf3RbIDgDQDRl3ca8lKJsx0v+LUYLDAOZhnOhcr5QAzs5rzzNDuUSlEi+AIJsTKiWhNtvjv42SUMDfxaC6pRkA5mqoCYCk80IAAJZvnHQu2fWNvRnKZNjFD96V+y5boGGWbDa3On5+ByWTEQsmyOYHSkmoCKqJzDUbBoEqKb0DAACneGHXBAAAdN3bj9sxbx0nPPXOLjTevLw+bHJsQLaLH7onW9bX1N8+SqDhJNEpj7p+giXTXNfPc9xwIQTZfEMpCfWhmZWEGmmRqv1PEzDHZ8dAKwAAldvXBAAAJJEx2CLKZnR1MTpDFhu7+IFza58jNWzQz5TN5lIpxdRlawnaUZDpBRFkc8xXSkJd0SrAKQ00ATBnMkYAAADAGbz9uD1pcmYy71w2m7KDP8MC444r/8KsaALo9BgYz8NpolO+6/zOZa+S4LAUBNk0SkLBBZhoAoCzT441AQAslYBXAMjtacJzXuvoOV3S3ws3TXSu1tI4jX9rgqXIlNlkrQR0dk57XoP2j6HxjyO9DrJREgqgSl7uAACYGzvBACC92MmfLWg2ymaMOnZOGUpF1bCLf+qWpVKDROda00aLcbLzHXX0vNYSXLMyuV2g3gXZvLr27FIpCRVZa5SE6rafNQFwBp7rAAAAABx6+3E768JTZ4JakuzgD3bxX6yhJqBS1Wy0aMfAaZMr0KarAZ0POt5uO2W+wwXpTZDNq2vPBqUk1H+bWUmoge4HAAAAAIDqZQy+GJbgli4YJWivWnbxT92uVGqoCZYmU8moK+3Y16mN1OV8BvqY46oPsimZayK45lOjJBR8SVmdvKSsBwAA828A4ARKCaGM43lXds5nKBVVyy7+/2Q62a4thsOcTCsbAyfJflPXssZ0fQyclj7mAlUdZPPq2rNRI7gGvscEOC9p3wAAwPwbADi5jNlsRss+gZuX14dNjsoAtZSKyjbvtJGXkz5HMvlPhd2Q6Rm5Zizu5fiXSrVBNiV7zQsDPABAWv/UBEBCQ01QJUE2AJDc24/b44Rj+qWbl9eXvdiYIYvNtGQrqkG23+H9hxM9y7z/LV2mMTDGvlEXTqSMwZcS9C0X7B+1/aAoD9X+8b6RoYN+D5YAUAPzOQC6Yr/p3m66b7kuVTQAfNO4PR4mO+cIctlZxr/45uX1S0nmQDXt4s+2XmGDFCeR7RtfdeWCo5xe+0yPsWSU5JRvNd0IHrnV9XlNJaUS06kqk40AGwyWAACwcFNNAABAUhmDMdZuXl4fLOvf3eTIQDGu5QJNmJHHehwnsZLsfKfGwF6PfYdKoOmo4+30m8fLctRWLmrLgA4s2VATAACVm2oCemiiCQAgv7cft6dJx/XRkv69GUpF1biLP9PvGXqycAKp1m7LWFHjGBhBfJkC+dZ6/u//kSiVuNOwFNUE2by69uxhkyfFFfTNVBMAeIYCAABAB7xMeM4XHuxSMggM9edSpMpms+xsE3T++ohsIAP3X2dkymbzoG9jr/EvjyqCbF5dexYP5y3dCZ31H00AcDY3nt+ZagUAWK63H7cnWgEAqhnXx02uTCFhcPPy+vCC/52jBO0yrXSelm2Rf9jAt2WrQDI1BvZ67DuUJNB07PGyPLVksnmhK6s00ATAWeyvbisdCADAvGX5EGkuDAA/9jThOd+t/N93FrXu4s+2aXXFI4XvGCY73/0e9MnY2PdDXS8VtVNrWbMs0gfZvLr2bNiIkq3VQBMAZ3RJEwAAMGdZdhSbCwPAj40TnvOolF1ZuJI5YKAfzTtPaOiRwnf87P7rnEyBpmsXNfZ94UHH20WpqCWrIZPNA91Y7STynmYAAACgQ++pGfxbVwHA95Xd3zsJT310Qf+eDFlsqt3Fn7AE1pUlLYKT5Prw3tfJMTDLcyaeLReaVaZ9nsU1O+hwmxy0fbjTsFSpg2xeXXs2aLqfrolTTozb4/ovf/x6tT3GmmPhpHHM63dNAAAAFypL2v6BrgKAE8m4C3zhm45LsMSa/ls62WxIr2TFyhSAddCjEjyZstkol/i5safL8mXPZCPApg5R1/5Je/z0yx+/3m6PiSa5MBc1uYn+fay5AQDoAVlE6pVloeOKrgKAHyu7wKfJTntQdtgvUqy7dH1RfNqDXfzZgmxuearwFUP3nTFwHtdRO/YNLvDfN+p4ezxtWLrsQTY/68LU4uEdJaEiuOZRe0w1SZ3avj1oj83o6yZPCjoAls8iIZDRQBPUKVHa/ksX/AESADKTzebv7uq3TsiWyXzoccJX3HLfeZbOyegi/iXtu3TXA00nPcq21GnZg2wM2jkdlYSK4JpxBGAs+Xw8jC5IBFK1x/VmFlx1oEUA+AH1vAHoGtlsAKAu44TnvFZKOs1dCdQd6jfzzjO4iCxLJFKeJ9muiYkxsLPuVvbvOauXDZ2QNsjm1bVnMYm08JJHZ0tC3Xh+Z6p7LlYEVzWzrDY1vgz9Uw8DADVb2V2faAV6TJANAFSk7AbPVnYo1kXWFvTPHiX4/b3Yxd/+xph3ZtuoereBvwwT3neTHo6B4ySnOyhZZhamBLCudbgNDhLOWaqVOZOND0Y5xANaSSj+ppSQimsjMtvUVOfSswkAAOq1n+Q8ldcGgJN7mvCcF1UySqmobpkkO9+1Bv5yy/2WwkvXVJpn2M7bj9uqhHTE/2kCFjgY3e5QSSg6KrIatcfV9q+PGyWkALzkAYAxeR6GugoATqZkLpgmO+0r8y7N0/7zYv4w6PjvPmj7a9yjy/P3ZOerZBRHz5N4lqy534yBczZaVLnE4kHHf//Ths4QZMNcJ7jNLK1YBNZcbw8pqzix9nrZbP+IYJuJ1gAAALqopO1PYdGptAGgMhkXru52/J+3COOeXZc7rkuSyvguMjEG9vfaKoFhXQ4S3Mv0PaIPBNkwD9P2eNTMgmvuKQnFWcW1EwFa7V9vN7LacD5DTQAAwIJMkpznLV0FACc2TnjOo3n9g0pmgAyL4r3axf/24/a0yZdladRA9zOCfOmgZHQxBvb32ur6s0sWm44RZMN5xIBzVBLqiZJQzEvJgvRTezzRGgAAQMdkSSM+1FUAcDJvP24fZWnP5NLNy+ujOf2zIsDmUsd/76QEnfTNTsLrUkbFHktSei77fdbnMfBKyTozb3ddo5yGIBtOS0koLkQEbbVHZEiKElJSoP3dVBMAAMBSZHkPHljgAIBTeZnwnO927J+jf+bv94Tn/KChz+66z1LKlCllrs+Y9r05ykQNOvx7xyUQig4RZMNJTRsloWo07PoJttfaXntcLdefQeTzexIAALhgpQ56lncTJaMA4ORj/KTJ981teN4d/eV/P+z474y5105Pr8udJt938eGCMk3QcaX03Cjhqfc+oUB5z82y4X3e11jXAwNfNnSOIBt+JF4s7ikJxbLF9dfMstrIngQAQJdd0QS9eVfOYK186AYATuZxwnM+7+LgKMFv3On5Lv6M38Q3PE566WHG+0uWkD9lyWYz77J0Xc4AOy1BwHSMIBu+ZdweV0tJqLHmoAsig1J73G7/er2RyQWgF97dfz3UCkAyAhr64bdE1+NIdwHAiWXMGnLexcEMpV2e9vy6/C3hOY8Ee/dL6e8H7i9j4AW5O6frdq3p9necpy7LbhJkw3HTZhap/69SEmqvR799ovvzaK/N6K+rTc6dJQAAtbw7QJ9leod8oLsA4GRKNoNsWUMGZ93R3/7vhvG/7/jv2ytlTPp8XWYM/goPG/ok+jtjYJXqCZ+PgeMkpzuvrK1dDzQduzK7SZANYdL8VRJqU0koMojrNK7XZhZsM+nQqSkPAAD0wVQT0GdvP27HPZBlsScW3kZ6DQBOLOOu8bsX/L/THxcvYyDAA9ls+iFxFhulonI/c0dzuG7XXJ+chSCbfhs3SkKRXGRcimu4/eu9phvR/F4agEUwmQaA7nmZ6Fw3dBcAnEzJmpItc0rs6B+c5n+QYHHxiCwTMxmDjeIak82mH7JmsXmp6/42Bk6bPJlbzxsouub65KwyB9ns6b4ziUW6vpaEomIlUOynRuo0oE77mgAAOifTgo9sNgBwOhkDGk471sfiYtcXxcd28c+U4K9pwlPfOG0AGLkkzmJzUEqx8XdZgjuutNffeapLdPm6nbo+uy1tkI2SRqcWE7AIqvmXklDUqpSQiow21xslDPru35oAAIBFSlYyKmxI1w8AJxYLW9m+od9d8H9/Gezi/1zW0lmyKtYt+jfje8ZY133zXTfaZprkdM8UKFOC/650+HcZ/zpOuaj6xYMwykFdVRKKvmiv9Ul7RFabx1qjtwaaAACAC5Dpw1fMkaXrB4ATKNlTxslOOzLXDU/yXyyLi8OO/57YxT9xNX5mnPS8Rye9NsmlPEuyvmM81YNVvOueteTTyPOe8xBkU6ejklA/lZJQJqL0UmRtamYlpNwDAADAImRL3/xAun4AOLGMC7AnzU4z0v75JA3+OrKlB6v0Iut7XMlMyrdledZcOmNp5C5nc5u4PrtPkE1dviwJ5Qbkh97dfz2o+ffFfdAeUT7qdpMvxes3reyuT1y9AACwXOXDV6ZAm0jjboEDAE4+zk+SnfbohOUhM5SKGrsKvypr8NGV9trc1H31KIENw6SnrxRPXe+6t0557UaZqIHrk/MQZFOHmGwqCcVZDfrwI9t7IyYDkdXmiS4HAGCR9le3L2mFXvkt2fmu3by8vqbb6hWLq+3xoT0EVAGcX8aFrtEPxolh0/1vwuOStYUvtO0Sm60nSU9fVsWK5ptN3uD9KEW3oxdPJEtQ39opny0POvxbDtrrc+zS6z5BNnkpCQWn1N4nB+3xqP1rZLbZ0yIAKVioBjK6ogn6o3wAy7YI9OKEu9zJaas8hx62/fxeXwP0bpz/0eJhhiw2v7n6vitrNpuYk7zRfVV40+T9ZvdY9514DJy0f0yTnO7agv67F23systBkE0+8TC718yCa5SEmm+70hMRlBaZn9q/PmoqKiEFUCkL1QBkME52vvFB/IVuq08pwzA69n8atsenkrUAgH6M84NSCuNr40TMAbqe0U6WiR8o7TNNevrKRuWfbz5s8paJkiXk9LIE9T044fW71nQ7QOypSy4HQTZ5xKQpSkJFcM04MnJokrn6jybon/Y+itJRV5s8dSUBALpCVkD4XMYPYWvlAzmVaPtz1P6x8ZX/V3xEfm9BC6BX4/y3Fhu7vrgYXrrkTiRzNo4NAcBp55sRwJe5JKkAhtMbJznPwQmfK13O5rb39uP21CWXgyCbbotAmggCiMCa20pCwfxFNqi4v9q/xjGXwevVtWdeEACA2v1PE8BfyoewjO/sW9/a6U4uZUfmj7ITxYLWG+WjAM40zmfbpLf2jed9hlJRY1fdia7LaKdp4p8Qc5KBnkw138xe7utozZXTPWsOEj2X757gGu5yNjdBYIlkD7KpNZtLTIyOSkI9UhIKFq+9z+JF+apJVjUG+6vbPhxTExkjAKD7sn4QE3SRXAmUOmn5r/io/EFwFcCpZcuu8reFxBLQMOz4ee/YxX8qmbPZXDIPzffe0B6DzO9rJWCEet91137wTOlygE1cm6puJJI9yKbKBScloWBp995BBLY1s2CbiRZJLSb7n/ZXt6W/pxbmBADQcW8/bscHsWnSufN7PZhTCZaJ/rt0yj7/oFwYQPXj/Jclo0YJzlmpqNNdl+Mmdzab7KWH+jTnjIDuYeKfIIvN+Z41sR6fYU3+R5lqHnT43HcEgeWiXBTAF37549e99rje/vVRY2E7s5hQbe2vbr9vD7s0AQC4CFl3E18pH85J5IwBNsdFubAXdpADnFi2AJArX2Qu63qpqGkJZqIf888jI/PQzs85IzB7lPxnyGIzhzZMcp53v3EdD5pZYJ/2ZS4E2QB8wy9//BqRzT81UrRlN2yPD/ur25tKSAEAsEhlN3HWj7cWOBKZQ4DNn/0e/xzlowBOZJzwnO+WcWPYdL/Mi2+wZ59/TpP/jJEMe52dc8ZcMXu2obg/ZLGZzzM6w7vusATUfO29p6v2SrYgEhFk00Gvrj0bagXohlJC6nb71+sdfFkReX06G80s2MYzFgCARcq8A21UPqTTYXMMsDly+M/T9wDf9/bj9rTJFwhy9Gy/m+Bc7eI/u3sV/IYtc5HOzTmjP2oIwn8si81cxsBow3Gyse+4Lo+DSiUmJMgGsFvtBH7549dJe0RWmy6l3xTZenqD9ojyUW/aY6A5AABYgNglmfkj7gsLHN21gACbI5dK38tmBPB92QJBLpUMIWsdP89JCWLiDNq2m0QbVvBTzEO7M+eMfqhhXrhXsj3RrzHw7lfeoQYdPl/XaEKCbADlc07hlz9+3WxmJaQmWiO1+LAQWW2kIQUAFmGgCfqr7PDLvhPbAkcHLTDA5rjIZvThGynWAYzzs2CGabLT3mi6/w3YLv7ze1TJ74h56KbuXOqcM94DXrgv+MoYGOPfJMGpDtrr+Hhw6YMOn+tYpqWcBNkAnNIvf/w6bY8oHxVpOA1+ecXHha391e0ItpHRCbprRRMACQ00Qe9lz2YTYoFjS1d2wwUF2ByJf9eHLz5MA/CXdNlsOn5+BzJNnF/bhntlDlqDDdn1ljbn3GzqCbDZKYGRzFeWoMhbx/6+pj2ZN0E2MKPsDqf2yx+/xstfZLXxEpjb4Qfk/dXtCLiR2Qm6x30J3STQGL6j7ESrYdfkQwscy1eCXS4qwOb4HOyNQCuArxprAu3ZUY8releL7HoxF/Fd6OLmnDHv36jk59TyPtbFd91xkudMPEMulXeprj5HpgLB8hJkA38NuHBqv/zx60F7REabyGxzFKw10DIpRemoT/ur23ZrAsCPCVKHHygfH6cV/JT4OPneAsdylHT9b5rlfRh+qP8B/jbGx7fksZaYG7v453tt1hRYcBhoXDL6sbj5ZgQifIh5f0U/62kpbcSC2jfJecaaT5dLRRn/EhNkAzAHv/zx66Q9rjaz3QI+PuZ1uFtzf3X7fXsMNAcdIhgUAHKqZZFj2MzKB1nguEBlN/GLjvT/p/Z8hnoF4E8WxuZjr5Q5Yk5KoPekop90WDJTGcuFzTcP53mlnWt6rmzq3YUaJznPjfIuox2Zu+xBNlNdCHTJL3/8utkeT7REejHxihJSJuN0wo3nd3xwAoCE3n7c3mnqWeQYNLMFjpGeXayymzjKQ3WprS+V/veOBDAb42N8n2qJc3uqCRYiMq/XtGHrzzKWsuvNdc4Z87qLLkl6Udc/ix0DY/zb0RLnsiPbUm7Zg2z+owsBWODL28b+6naUkBpqDgAAzqimj7wxR34RGVYscCxGyRYU6fq7+g6y0Z7jG/0PcOixJjiXCAKxSLsAZeG2xuszSr98kF3v/PPNUh5qo8Kf90R2rAsjo5v26zXlogDg+wbtEeWjXrSHD8kAAJxKpYsco8YCx9yVLEHvyztIl601yocBhAgQUd75HO3XzpO03+LmoJFtfVLhT4t50ntZbc4839xsZgHdNc7jokzUI718Yc+YGAOnWuJMpqX9SEyQTTeZGAAn8bsmuFCj9oisNiNNAQDAKcUix7Sy3zRoLHDMRSkP9aL9axyXEvV/BNo81INAX5UAEYtkZ6dU1OLVVjbquKOsNiPdfKL55rA9PjV1Zq85fr3jOZ6BuUMFBNl0k51AXKR/agI4scP0+Pur25HZxrMaAIATKYtwtX70jQWOTzcvr6/p6dM7Vh5qlPQnbCkfBvScBcaz2VPS5ULmoNP2j5ozewyaWSnT9zIsfnOuOYj2aXJkSzyPx54pSzHWBOYOfSXIBhAokPhlVBMsTby0fdhf3d5UQgoAgJN4+3F70tS7Yy3mxG/KAod3zBM6lq5/kPynjJpZViN9D/RxfI/vc77Rnd5LTXBh1+i4qT9rwrDMRWI+OtDrfwbXRJbET6V9ajZpr/NNvb6U50tsJhlriVNfr1PNkJ8gG4C8DMTLF+k1I9hmqCkAgGN+1gR8Q80p+0PMiz+UzCYD3f11EYzSHh+autL1R4DNeyUbgJ6yI/30xprgwueg0x78zsis+KkE2wx7Os88HlzTh3lZvFvddosvlaBJ7dVLgmzgr4EYUlnZXd9z7XbCoD2ifNQbWW1gIYaaAIBalJ1+ffgIPGpmCxyCbY6JkkrtsdXMstfUmPXlsLyuQBughyJLiG90JzcucyIufg7al3aPYJv3JctiL+YlEVRUykL1JbjmyG3Pk6U/XyaNjG4ndVCyi1EBQTbQuvH8jgGArCaaoFMvb5/2V7cfagoAesD8Gc6ofIR80pOfO2r+CrbpdSmhssATix61vy/E+LDjTgd6NrYfePadil38y7lOY4x+1LOfPWxmAcAxH92sLfi7ZK15GL+v/Y/vm/5tVHtc3q1YPhndTmasCeohyAYgt981QafEzs2t/dXtKCF1RXMAUKuV3XU7xeB8Hjf9ClYbNbMyUr0rJxS/tyx8vCjvCzU73CVvNzHQ47GdH5taFF+ekkFh3MOfPmhmZToj2OZDCUwZJJ1bXirzyzfNLIB7q/y+vomMWJvu6s6Q0e1kBJlWRJANQP7JC90TATYRaLOlhBRzNNUEAFCHEoRwr+nfh8hh89du4q2aS0l9EVwz6En/RoCNOSvQ17E9nn8TLfFDsh0s/1q91/NrNb7bRmDKUcBNZLgZdnxeeaUEBkW2mv+W+eVaj/uwj1mZMrzfWqv6wXVbMopRiX8kP/+YCGzoRqCvVnbXp/urhwOzrCndFKng19o+etT2lUkm5zVt+rkzBQCqFB/Ybl5ej4/DL3r48wdlrhyLBfE+Ezv6drIHaJSgoVF73O3hvO2ezAQAh+PZUDN811gTdMLtZlZeqO/flK+UY6Odx8V/jrnM7+XPvWVk54tMNeWc4lmyUv60ifMvMid21+PyLsTXCTKtzD80AUAVg/MLzdBZg/Z4s796+MH5XgRGaRIAAEKk7L95ef3npt8fI48WN7aOBdxMsuzyKwshsZM4AmuGPe3DJ6X8BIBx/fJ6ZMiwIP51OxbGO3OtHrTXamS0ee96/cywHBtlnhfX6145/lf+jP/b9DzB4ccCaY7+nf88NifWH98WbX9d5sTOPlem7bU9aQSbfuvatQm7MoJsACp4QW1mKS5NwLv/khYlpJ6u7K5vag4AAEKk7I8U8I2dxE3z1+LC0aJGvOvEbuJOpdYu/RXz+1uNj8jjtm+k6wc49lxsZtna+LuXmqBTc9DIqni9EWjzPZeavwJvvpwPHv31KBDnJPNc7Xw+95TbSfGcH2qGvxFkWiFBNt30b00AnNTK7vrB/uq2F/g8L2YbbX/Fx/goITXRJAAAtGKB40OjNOSXc+dROY7vJP69/Dm9iI/sUvZ/V7S/ABuAz0XGad/o/i7Gbbv4O6bn5UvnOWcdaoaFu+cZkuKZIqPb1wkyrZAgm24aaAIukN2SXuBZzn33vgRHRbCNKGYAgB4rKftvN3YSf8/fdhKXHcRHafuP0vh/uZt471u7Br9I1X80T4//W2x+GjR2HH9PtPF1OzIB/jamK5fxdRYYu3vNjsucSqANXXVPadJUYq1qQzP8KYJMJ5qhPoJsAB8MK7Cyuz7dX91+bPKSzqg91tq+i0AbLwoAYI5Nj5WdxEeBNpzcUZDM8Fv/hWPp/JkPATYA3/e0EWTzpbEm6PQ8VKANnX12CLBJ+by3TvX5nIAK/Z8mAKjGk2a2a5NcYhHuxf7qdmS2GWgO+Lt391+7N4BsZIvkTMoOt3tagg6Ld87bAmwAvjueR0mTqZb4005k+NEMnb9ux+ahdEwE2Lgm8z1L4nmvtNex61gT1EmQDfxlTxOQWSk59EhLpDVsj0/7q9ubmgL+ZqAJoJMssMICWOCg48/96xZKAU5EeaS//KYJzEPhlATYGANruY59O6uUIBv4iwcd6ZWSQxMtkdrG/up2BNsMNQUAHSdIHRakLHA80RJ0yFGAjWc/wMmMNcFs/FDqJeU8VHADS31+CrBJ/xyR0W1GkGnFBNkA1CcmoILGchu0R5SPetMelzQHAED/vP24HVkqx1qCDpg2AmwATjuOx7NTuQxzmazXb/SbIAeW4ZEAm2r0PZvNtAQbUansQTYWkQG+sLK7PvUSVI21ZlZC6qGmoPW7JgCAfikfmMdagiWKwJqrAmwAzkS5jKZ5qgnSzkNjDuobMxfpXnvdyeZZj773pTlA5VIH2fzyx69e8AG+YmV3PSJkH2uJKkQmm6391e3IbHNFcwAA9ItAG5YovrtFBhub3ADONob3vVzGpGT0Ie81HHPQq40N7yxWXF/3lJar7vlx0PP3WNdz5ZSLAqjUyu76poG8KsP2+LC/ur2lhBQAQL+UQJtHWoILNGkE2ADMQ58zudjFX8c89DDothFow2IclDnnWFMYByqyI8i0foJsACq2srseH+MnWqIqUToqgm3WNAUAQH+U1OlS9nMRxu31JsAGYE7P1J7+7gOL5lXNQyPQ5qdmluUO5uUoa6Lrqt5nx6TpZ0Y3QaY9IMimm4aaAJij216AqjNojzf7q9txDDQHAEA/lMWqCLQR/MCiPCqZkwCYz9jd13IZO3q/ymv5eiNzOvMxaQTY9MXjnv3eg1IuksoJsgGad/dfD7VCvVZ2149egCZaozqRzSay2mxqCgCAfiiBNlL2M29xPd0uGZMAmK8+7mh/qturnIceKGPKHDyRNbFXdnr27jrW5f0gyAagByLQpj3sNKjTpfbY2F/djmCboeYAgG6QbY5FkrKfOTtK1W/HJcBixu1J069yGXuyU1R/TUdQrqBvTusoqFuQVr+eF9HvfXrPEGTaE4JsAHpkZXfdToN6XWmP9/ur21vtcUlzUOH1DZDNQBOwSFL2MyfxwVuqfoDFe+q3UtlcdNLMgr4nWoMTiLnmVUHdxsDKTdprfKq7+0GQDfzld01AH6zsrttpULeH7fFpf3V7TVNQEYFj0E1TTQDLJWU/5/SovX5uS9UPcCHGTT++xfUtY4G56Mft+M78WGvwHVEe6qrgg14/KyLIatKDn/pSb/eHIBuAHlrZXY8JzU9eeqsVAQlv9le33ytVAcAC/UcTQDeUlP1XG8FvnMzRTuInmgLgwsbqvgSf7Aje7OX1vdnMNnWai3LcYeZN5aEoXvbgerfe1iOCbAB6amV3/aA9brd/vd3IalOrYTPLarOpKaqZqAMAfFXZHRiBNmOtwXccZjZVHgpgKZ76jVQ8F52UuaggXkIEG/xUrguIZ0S8p9b8fVuQac/UEGTjowDAOazsrh9OeL0AVW1jf3U7gm2GmsKcBwCo17HyUQLp+dK0KTuJffwFWNo4vVf5u/1UEKe5aMlaIqtNf8U887aSpHzDuOLfJsi0Z2oIsvGQBjinktXm6AXIy3CdBu0R5aNetMclzQEAUK+3H7ePAumlqyYclhOzkxigE576bfRgLhpzDllt+mfczLLXeAehb+PEniDT/lEuCoA/reyuT9ojXoAi4EYQY51GzayE1ENNAQBQr7KT+Kg87FSL9NJhCTHZawA6JRafa30mj3UvX8xF4xtzfGueaJGqxbtGZEy8Z87JD54L06bOjSCCTHtIkE1Hvbr2TJYBYGlWdteflBcgUed1ijFma391OzLbXNEcAAD1KjtJ7STul1jciMCaq3ZUAnRuXI5ndI3f28YW1/nGNR8ZHiJ7+r3Gps5a55w/yZjIKbys8DdZR+shQTbdZdGTizTQBHxpZXd92h52vtZt2B4f9le3N5WQAgCo17GdxFFCaqJFqhbBVLHQIagKoLseV/ibXupWfjAfHZe56GOtUYWxOSdnfBZEQMq0pntBkGk/CbIBwkAT8C0ru+tHO1+9ANVro5kF26xpCgBOogRnrmgJyCXSc5edxHFMtUhVxs1soUNpKIAE43FTV9DrVBYLTnjtR+D3ZjMLthlrkZQmZc6pNBTn8dJvITtBNgD80Mru+kF7xAuQGrr1GrTHm/3V7TgGmoOO+acmgG6IMaI9ttq/fmoPwZnfN9QEdFUshEVa92aWtn+qRVKL97PrZaFDXwLkYYGRPs9FIzAr5qG+Neebc14352QOasmAJMi0xwTZwLGHoSaA71vZXd9rj9j1GqnmRarXKRZMI6vNQ01BhyijCUvWjgvDCMRsZsE1MUYoMwgViLT9gm3SmjR/LXRMNAdAvjG4qefb2liPcsb7YO9YlkXzGXNO+nPvH1QydjzVm/0lyAb+MtUEcDIru+sRaRwf43e0RpVi4XRrf3U7gm2GmgOgn6IkVHuM2iMCa943MtdAtQTbpDJuZin6LXQA1PFMz25HVgvmMBedlGCbq42gra6IeabgGhaphixonlc9JsgGgDMpJaRuN7OdBl6m6xTZQ95HWZBYaNUcAP3wRUmoF82spCDQA18E2+xpkc6InZ6Pm1lwjbJQAPWoYQe8UlHMcy66V8pIxXx03MikvgzjRkA3F3O/x/WV+b1mp2TkoacE2QBwLiu765P2iBefx1qjWlEW5NP+6rYMBstloQtYKCWhgCMl2CZ2EkdA/ViLLM2kPSKo5l/tsSm4BqC68Xba5C6RM21/gyzXLOTeOBZs86ixwXPh93Iz+7b/LwHdXLDMa0qCTHvuHxX8ht/bY6grAZZrZXd9c3/1sJ70C8/lKsVC65u2jyftn/fa/vaydcFuPL9z8O7+aw0BzFXJVBZBlBuNjDXAF8ruwsnNy+vx8XPUHnc9KxYu5tmxYPnUAgdAL0Q2m2HSc7fAyKLnopEl4kkc7Xx0rcxFbQKcn5hz/hYB9pqCJV6DkUk52yYvQaZUEWQDQEeUwIvr+6vbo6STI35s2B4f2j5+GoFVmgMgpygJ1cwWzB8Yr4EfKcEeMffbvHl5PeaDRwscnh/zEQtIR4scPtYC9GuM3WnH1hhnBwlPf6wHuch7JeZL7f1yqfkr+PuKljm1eN5EcN+OgG46cF8ftPf0TrmnMxFkiiAbAOZvZXd9vL96+OITu+IfapHqxMvsRtvH8TIbWW0mmgQghygJ1cw+Ro60BnAWR9ltYh5YdhTfagTcnMW0tKPAGgBisW4j2TlPLNCzpLno8ew2g2a2cSTmogOt8915Z8w3X7btpxw9XRNBX6Nk5zzWbQiy6S4TAiC1ld31eOF5tL+6/Vszy2pjZ0GdY9X7UibsUelzADqoZJl7YDwG5uloR3HzV8DNz41Fju+ZNLOy5zsWODp3LV/XCsz5mvp/WoFTXC+bzSxjHHC6e2fa/vEojhJwc1RSyntv08Rc8zfzThLcx3vt/buX6L4VZMohQTbdNdAEXKCfNQGLUrKcXN1fPfxgoCRFnUbxEtv2cQTajDUHQDcoCQVcpGMBN8cXOeJdc9jjZ1C8C8UH4wismZSd1wAAzH8uOm3+ynBzqcxBb5U/Bz1ogmnzeUC3eSeZZAqyUSqKQ4JsALgQK7vrmyXjSWS1WdMi1YmX1xelhFQE29ghAbAkSkJ1xj81AX11fJEj/vPNy+vxwTSOn8ufNe4ujt98FFCzV8pqAQBw8XPRCDA5CgBvSgB4vCevlD9rmIvuNZ8Hc0/1PBmVoLgs60UH7b021msEQTYAXJiV3fWY7N/eX92OSVME2wy0SnXiRfVD28eP2z+fKCHFnHhWwAkoCdU5+gGKkqI+jvHR/+3m5fVhuU/+3fwVeJMh4820HL8f/V1ADQBAp+ei0+Pz0GRz0YPmr4Ca/zSCuanPWpMn8+lYd3FEkA0UN57fmby7/1pDwAVY2V3f2V89fBnYaI+HWqRK0bd3236+V0qGwXkMNAF8XfucvVTG0rvuFSCTsjjwt3liWfAIR38elTeO592ig9em5QixkPG/Y/+3gxIsBABAhXPRklHjyrF55z+PzT8XFYRzFETztfnnnrJP9MCDROf6VHdxRJANAEtRMpw82l/djhqWkdVmqFWqM2iP920fR2rWRyWTEQBz0D5b4wNffIgYaQ2gJsd25k6+998rJajOu9AhcAYAgKN56MGxOejOd+ahg+Z8m1ymyjvBn/dSlizAe+5bjhNkA1CBV9eefWj/uP3LH7+mG+RXdtfjo/b1/dXt2IUf2U8u6dHqRMrHYZSQavv7ieY4lwP3CPRbKQkVWWuGWgPoM8ExAAAsaR46bf7KfgicnSw2pPV/FfwGAxnALNr3w6trz9KWXirBFz8139klQGoRGLK1v7r9oWRf4GwsJkEPRUmo9thsj0/tf3zRCLABAAAAILdRkvOMja/WrfiMIBuAehwGMby69ux9e6QMYogSUu1xu/3rdc/3ah0GhO2vbkfAjYwsAN8RQYntEUE1/21m2d4GWgUAAACAzG5eXh81eTK275RycvCn/9MEANUZNrOsNpvtkTKIYWV3fdL+cbU9HuvOakXWpQi2WdMUAJ+LZ2N7vI/nZJNnVw8AAAAAnMStROeqVBR/I8gGoF6x4z2CbYYZT75ktdlsZiWkJrqzSoP2eBMLye0x0BxAn5WSUA9LSag3jZJQAAAAAFTm5uX1QftHls23e28/bu/pNb4kyKa7VjQBF0jJlnrFZCXKR71pj0HKh+Hu+rQ9onzUvWZW+5L6DJtZVptNTQH0TQQZlpJQEVyz1SgJBQAAAEC9RonO9aXu4msE2XSXoAcu0hVNUL2ICo6sNg+z/oCV3fVxM8tqM9ad1Y57G/ur2xFsM9QcQO2OlYSK4JqR+T8AAAAAPXA30bmOdRdf8w9NAFCFafPjne+xeLf16tqzmMDc++WPX9OluIsSUnHu+6vbET0cu/0FiNUn+jTKR8Xk9VHpc4AqREmoZhZQ86CRsaYvYxoAAAAAzWGpqNgQPkhyuuO3H7etT/BVMtnA5zwsyWp6iv9uLPhEVpsIuEm5a35ld33SHlfbvz5231Zr1B6f9le3R5qC8O7+66FWICsloXpLdiIAAACAv9xKdK5KRfFNgmzgc3uagB6J0lGfXl17tpb1B6zsrm+2f0SwzUR3VikWJ19EOZVYoNYcQDZR/q493jRKQgEAAADQYzcvrx9leM5g+vbj9kSv8S3KRQH0W0xq3ry69iwmC1FCaprtB6zsrsc5X99f3Y5gIdkB6jRsZlltInPREyWkgC4rJaFiTNowJgEAAADAoVGic5XFhu+SyQaAMGxmJaQ2s/6Ald31nWaW1eaJ7qxWLFh/iMwQPW6DqcsAuqmUhIpgz8haE6WhBloFAAAAAA49SHSuY93F99QQZKO8D8B8xM77jVfXnkWwzTDjD4gMJ+3xqJkF2xgf6jRojygf9aZki+ib/7gEoFu+KAn1sFESCgAAAAD+dPPy+pUmz4a0nbcft6d6je9JH2Tzyx+/KhkBMF8x2Xn/6tqzF+2RcqFwZXd9rz0i0CYCbowTdYpSLFFC6qGmAC5aBPm1x6g9IrDmfXkmAQAAAAB/lymLjVJR/JByUQB8y6g9Pr269myU9Qes7K5H6agIttnRnVWKILCt/dXtyGxzRXMAi6YkFAAAAACc3M3L6/EdP8sGtenbj9vWk/ghQTYAfE9MfiKjTWS2GWT8ASu769P2uN3+9XpMkHRplYbt8SEWvntaQgpYsFISKoJqlITiNJSuBAAAAPouAmyyfEsTYMOJCLLprqEm4CK9u//6TXtYMOJ7z6TIarOZuITUpJlltXmsO6sVC98RbKNsCzAXpSTUh2ZWEmqkRTglJSsBAACAvrub6Fyf6i5OQpANcCQWpT+9u//6oabgOzba48Ora8+GGU9+ZXf9oD02m1mwzUR3VmnQHm/2V7fjGGgO4LRKSajN9vhvMysJpRwdZyWTDQAAANBbNy+vD5o8iSUmbz9uT/UaJyHIBjguMpRsvbv/+kN7WFDK5fcL/HfFpCjKR71JnNVmrz2ifNS9xi7zWkXgYGS12dQUVY1RsDBflITacM0xj8tKEwAAAAA99iDRub7UXZyUIBv4nN2mMxFgE4E2W0pI8R2H2Y9eXXuWNvvRyu76uP3jp/YY684qxfNrI0q9xOK55qhibIK5UxIK7xYAAAAACzFKcp4Hbz9uj3UXJyXIBj73P03wmQieiGCbNU3BNxxmP3p17VmUkEq5AF5KSEVGm8hsM9WlVYpr8/3+6vZWe2QPHIwFW9mX4JziWaAkFAs2jcx5mgEAAADoo5uX12NtMcv3+LEe4zQE2QA/MmiPN+/uv45joDn4hsPsR6+uPdtKXEJq0h6R1eZxI4ihVhE4+CmyVmT9ATee39lp/7jaHju6E06vvf+vlJJQEVyjJBSL5DkNAAAA9NndROeqVBSnUkuQjcVQWLyIOI2sNpuagu84zH706tqztNmPVnbX4xqPIIaJ7qxSLKi/2F/djsw2g4w/4MbzO9P2uN3+NY6pLoUfKyWhohxUlIUaaREugI8zAAAAQC/dvLw+aGbrihnsvf24LRsxp1JLkI0LHy5GLE5vvLv/OoJthpqDb4jJ05tX157FMcj4A1Z216PEQ5SPiiAGgZx1imdYZLXZzPoDjmW1eaw74e+OlYT61MxKQpm7cFGUigIAAAD6bJToXJ/qLk5LuSjgLKI00Pt3919vtYcyC3zLYfajV9eebWb9ASu76xHEECWknujOam3EAnx7DDOe/I3ndw7aI+4x2Zeg+EpJqIFW4YIJfgQAAAD6LEupqNhkreQ3pybIBjiPKA306d391yNNwTccZj96de1ZBNsMM/6Ald31g/Z41P41MtvYlV6nQXtE+agoI5UycPDG8zt77RHX6KNG9iV6SkkoOiKy2Iw1AwAAANBHNy+vD5s8m9523n7c9j2dUxNk02FZy6zQO7Eg/eLd/deR2cY1y7ccZj9qn2tb7ZEyiGFld33SHpEtRBBDvUbNrITUw6w/4MbzO5F1KbIvib6nF0pJqIdKQtEhstgAAAAAfXY30bm+1F2chSCbbhtoAhIZNrOsNpuagu84zH706tqzUdYfsLK7HkEMEWwjiKFOEQS2FdkwouRMxh9QSkjdbmbZl6a6lBq19+eglISK4Jot82Y6YiKLDQAAANBXNy+vx/f1UZLTnb79uD3Ra5yFIBv4nFIw57fx7v7rCLYZaoqLnQwkOtfD7Eevrj17nzVj18ruepSCiCCG240ghlrFM+zD/ur2ZuISUpP2iKw2sipQjfZ+XCsloT6VF/ZLWoWOiCx39zQDAAAA0GOjROf6VHdxVoJs4HNKwMzHoD2ifNSb9rD4dTGmCc952Myy2mxmbfSV3fXIZhNZbQQx1GujmQXbrGX9ATee34l7LIJtJsn7YsXl2E9flIR60ygJRTc9iiBczQAAAAD0WKZSUWPdxVkJsoHPyWQzX7EoHVltHmoKvmPj1bVnEWwzzHjyK7vrB+2x2cyCbSa6s0qD9nizv7odxyDjD7jx/M60PaJ8VGRZyBpQKmizZ5SEIpEnykQBAAAAfXbz8vqV9o8rSU53/PbjtsQLnJkgGzjmxvM78UCdaom5ikXRrXf3X0dmmyuag28YtEeUj3rTHikX0ld21/faI4IYHjWyYtUqAgcjq03awMF2nBs3s6w2T3QnXaUkFMmM2/H/kWYAAAAAeu5BonP9TXdxHoJs4O9ks1mMYXt8eHf/9aYSUnzHYfajV9eepQ1iWNldj+CFCGIY684qHQYO7q9uR7DNMOMPiIDS9ogF4evGPLqilIQaKQlFMhFgc08zAAAAAH128/J6fDdfS3K607cft3f0GudRS5DNVFcyR6IXF2ujmQXbrGkKvuEwiOHVtWeR2SZl9qNSQioW3a4bo6oV1+b7/dXtCLhJGTh44/mdSXtEmbPHjexLLEkpCRWloCK4JkpDDbQKSQiwAQAAAJgZNXmyUb/UXZxXLUE2/9GVzNFEEyzcoD3evLv/Oo6B5uAbhu2xlfkHrOyuT9ojsto81p3ViqxLn6K8TdYfcOP5nc32jwi2Eb3PhYlMUO0RGWs+lftIljsyuSfABgAAAOBPmUpFjXUX56VcFHzhxvM700agzUWJRenIavNQU1Czld31zWZWQsqzpU4RHPBmf3U7MtsMso597XG7/WscU13KInxREup9kyeFLByJEntX23F9rCkAAAAADktFDZs82al33n7cnuo1zkuQDXydVGEX57A00Lv7ryPYZqg5qNXK7vq0PaJ8VOx8V5qnTvEMi6w2m1l/wI3ndyKbTWS1eaI7mRcloahAjNuP23E8Amz2NAcAAADAnzJlsbH+y1wIsum2K5pgOW48vzNuLIIv43p//+7+6wi4UTKCapXd75HVRhBDvTYiU0eUw0k6Bh60x6NmFmxjMZkzUxKKSsS4fbVkpQMAAACguHl5fdDkyVZ98Pbj9o5eYx4E2XSbhYjleqoJliIW4T69u/9aCQmqtbK7ftAeEcQQmW0EMdQpXi6ifNSLKJGT8QfceH5nrz0i0CauVYGnnFgpCfWhURKKvOKZF8GwP7Xj9b3IRqdJAAAAAP5mI9G5jnUX8yLIBr4tPqxbVFyOWJB+8+7+68hsM9AcP/bLH79OtEI+K7vrkyg90f71sedNtUbNrITUKOsPuPH8zuFCc3uI8uebSkmozfb4bzMrCSUjIxlNm1lZxwiueSS4BgAAAODrbl5ej7W8TBvsJFdgbgTZwDdEuYxmtnuf5Rk2s6w2m5qCmpUSFBFsI4ihTvGyERltIrNNysCDUkLqdjPLvjRd4phAx5SSUBFUEyWhNhqZGMkpxt/r7XgcwTXjyDinSQAAAAC+K1N5+Mnbj9tTXca8CLKB77jx/M64UcqlCzbe3X8dwTZDTdE7vVmsjd3y7RFBDHGY7NUpnmEfSraPrCWkJs0sIOyx7uy3L0pCjbQICR0vCXU7sstpEgAAAIAfK1lsHiQ65Zd6jXkSZAM/dk8TdMKgPaJ81Iv2sEu+P3pXbmRldz1200cQwxPdX63I9hHBNsOMJ1+y2mw2sxJSE93ZH0pCUYlpoyQUAAAAwHlkymITG61UEWCuBNnAD9x4ficy2Sgb1R2jZlZCaqQpqFWUqYiFv2YWbDPRIlUatEeUj3oTgQtJx8dpe0T5qHvlRYVKRZkzJaGogJJQAAAAAOeUMIvNztuP274DMVe1BNlMdCWLdOP5ncgoIcqxO2IAj4w2kdnGLnqqtbK7vtceEcQQATcmgXVaa2ZZbR4mHiPHzSyrzVh31qWUhIpyUFEWaqRFSOigPJuUhAIAAACYj0xZbMJTXca8yWQDJxc79fc0Q6cM2+PDu/uvN5WQomYru+sR6BdBDIL96hTPr6391e0ItkkZOFhKSMU4ed1YmVt7DV4qJaEia82LMtZCNtNmFqAawTX3lIQCAAAAOL+EWWwmbz9u+17N3AmygROKBcTG4mFXRemKCLYZagpqVUpI3S7PoakWqVIE2ESgTQTcpAwcbMfKSXtEmbPHjexLqRwrCfXfMq4OtAoJTdrjdikJ9URJKAAAAIC52mpyZbF5qctYBEE2cAol0CZ26vtg3z2D9ojyUW/aY6A5qFUpdXEUxECdIt3mp/3V7bXE4+VmuU4nurPblISiAsdLQl1vD1nfAAAAAObs5uX1YZPr++HB24//n737R27rSvMGfDTfAj7PCgYuLkB0hLDhhFVE8qkTJghMBQxQCCytwOQKRAYoBggMBUiQmJNIVUiMDhFZWIDK2MFoB/3dl/eyx3ZLokjhzz0Xz1N1Ct09023ec8/9Q5wf33c0dubYBCGbevubKaifo+uTqGQTbVtUtKmn2JSOqjYvTAVNVVW1Oa/uRXMz0kjx1wC/RPihGK1Mn5erYkTlpajAtHJK60NLKBoi7itaQgEAAABsWNUm6ufMfuyxM8emCNnAI2gdVXvxsH81608jbHO4R8etwtKeiQ3F+Kv9pMJWk3VS2ULqPONnZlSViKo2l07nbkVgq2oJFeEaLaHI1TxpCQUAAACwTTl+l3jltLEpT5pwEJP2sFN8/NrA8zPvLQbfW6b1NutPY7Pq1EzUWmzsXlThqMYq7oVxH+w07biK++ATS/h+UZkilf1Q3Y+aK4KdL6uWYbk+MyP4GM/NxwYgv40KOZbCg+8PUeXtx6RiDXkbx/ucijUAAAAA23N8cBbfLf6S2Y998/b96O/OHpuikg18paPrk6ggETdqf0VbX9E66vdZf/rMVNBUVQupuB+pstVcEUyJ9lE/V6GqHJ+Z74oRVW1ePvK52bIMvkzVEupF1RIqfgnumBUytCrGRTH+U0soAAAAgO06Pji7+6PJ3Khiw0YJ2cAa/KEVxo3ZqK3YkP5l1p/+WoyW6cjHpD08NAtfLqqcFCPuR7EpKfzXTKfF+H3ZHZ1m/Ny89NzcjL+0hIrqVp555GhejOdVS6hzLaEAAAAAtuv44Ox2Xy2V+2s5Wb19P5o7g2ySkA2sSbSvKEZUtImxMiO11SnGb7P+9NxUZOMbU/BwsSmZyhCDl8nmXhdR0SYq27Qyf25+77n59aIlVKyHVIZrTt07ydQ4nl3FM+z7YoxNBwAAAMD2VQGb+K6xleGPf+EMsmlNCdn4y0Zq4w9VbS7NRm3Fy8FPs/40wjYd00FTRVuN2KhMwn9NFvewqGpznnELqXn13PTLzwNpCUVDrNKfW0JpeQgAAACwI38I2OTYZeDD2/ejsbPIpjUiZNNbDHwRS60cXZ98KMbLVG4aWp/1FS8I0T7q52L4i38a6+mbM+G/5vupGL8tu6NOxs/N86T60hepWkJFKygtochZXOtaQgEAAADUROYBm3DlLLIN2kXBBh1dn7wrRmwYRuDGxkF9nRbj91l/epr5cTwvxo3TycfE5mUxhP+arRW/AC27o18yrmoTz83vq/vZX5+bcX9b7fMJjhBVnN9UhmteJC2hyNM4aQkFAAAAUCvHB2cRrPkt5Ruwie+T/aExW/GkKQcyaQ//2cDzM+8tBt9bps1QVUr5uRjPzEa9r7tiPD+6PlllfD/sVGut1ZBz8n1xL5xbmusVLWZSWf3EJn0zxS8UF0/fnGX7S0X13HxVHctVzvflr7xWv6neHX5KKtaQ9z0p/pJoHK0MTQcAAABAfRwfnDVhv2D89v3oubPJNgjZ1Nu73mLwnWXaLLP+tJOaFYBoqotiXEYLk0zvifEidPdSlDshmw2pNu+F/5otqhZFOxbVi/K7PuM94cdUVlsThiPne9CVijUAAAAA9XN8cNZK5R5BpwGH8+3b96OVs8o2CNnUXG8xeGKZNk/11/lNCUA0WTyMo6rNPON7Y5T1e5X5C5KQzYZFC5ok/Nd0UdEmKttoXZjH9RjhGuE3cjYuxuvinuP5DQAAAOyF44OzaPF+W8n37fvRh5r/rHf7lPE9ZBP+wE8VG7ZKyKbmhGyabdafNiEAsQ9uUhm2yXZzurhH5lzqT8hmC6qqNsJ/zbYqxsunb85uTEUtr8HTpCUUedMSCgAAANhLxwdnsd/32x/+o/gO9r/js06BmwaGa+6oYsNWCdnUnJDNfpj1p6epDNtoB1Ff8RJ0cXR9cpnxffKbap2dZvajC9ls0bI7Ev5rvvgF76VN8Fpcb63qnty0X2rZL1pCAQAAAHvt+OCsU3z8+on/c3wf+49UBm5WO/r54nv/u+rZTfseMub171Yh2yRkU3NCNvujaiGVYwBi38RGUlS1eZfx/TJe9nJqDSRkswNVVQ3hv+a6rTjx9M3ZuanYyfUV9+EfPPPJ3DhpCQUAAAAQIZaoDvPqC/5fV8WYpzJ08+7t+9G7Df088b1+pxh/S2WwptXg6f++mMe5Vcg2CdnUnJDN/pn1p/HQyykAsa+ios1F5i2kzlMerYEuinvhuSW3fVULKeG/Zotf4l7aJN/aNRXXUvzFyKHZIFPx3jNOZUhvZToAAAAAbkMt5+nx+y3xHe2qGMvqc3X3n3+u1VQVpLn7njE+499HqKaV9mePcV7M0fdWINsmZFNzQjb7a9afxgNZ+4h6ixedl0fXJzcZ3zvjRStCXZ0a/5hCNjtWVd0Q/mu22+Dg0zdnH0zF2q+fuG5OPdNpwDvPRTFu3CcAAAAA/uz44CxaRXXMxNapYsNONClk81tq4F8FC9nst1l/2kr1D0BQ9tOMsM0q43vos2qt1XEDWMimJpbdUZwHQYHmio3zqGozNhVruV7i2a0lFE14x7lS7QoAAADg04RsdkIVG3bmPxp0LP6iksaJ0EYx4gHxd2u81iKg8ltVfShLvcUgNtG+TWU1C/iop29uS15+l8qesTRPhKd+XnZHv1bVV3iEaAkVc1j8yxinZoRMf6+K94Fvi/v+3wVsAAAAAO7VMQVbd2EK2JUmVbJpZEJQJRvuzPrT2PyMfo4vzEatRe/MqGozz/h+GvfSV6k+1cFUsqmhZXdU5+pHrOnaq4JV3H89fFM9n6NyTcuMkKlV0hIKAAAA4EGOD87iu8H/MRNbNX77fvTcNLArQjY1J2TDX83601jndQpA8HHxF+AXR9cn2W5SFffV81SP1kBCNjVVBQuE/5ptVYznKll88ho4rO6Tp2aDjGkJBQAAAPBIxwdnnVRWtWZ7vn37frQyDezKf5iCepu0h4IU/ElUSClGtGt5mbSQqrMIHfw+609Pcz2AKtgSa+3G6eRjotJBMV5W6+SdGWmkVvyCuOyOfqlCVaQ/tYT6LQnYkKd4hxwnLaEAAAAAvpbvTbfrQsCGXROycWMmU0fXJ1EpRQCi/tfvz7P+9NditHI8gN5isCrG34t/GcNLCx/19M3Zu2II/zVbtAf7fdkd7W3VoggZFeO8GL+nslVax7IgQ6vqXh3hmqhS5dkOAAAA8HUUTNie2H+4NA3smpANZOzo+mRVDAGI+uuksqrNea4H0FsMIsz1nZcXPufpmzPhv2aL4OCrqOBStUnaC8WxtooRoZroqxzt0VqWAhmax/ticZ+OcM1lVCIzJQAAAABr8V+mYGtevn0/8r0WOydkAw1wdH1yF4C4MBu19tOsP42wTSfHH763GHwoxl1roLnTycdEVYRoPZKE/5os7mG/VVVdGltxrzi2Z1VLqKhcc+q0k6E/toT6vhgCkAAAAADr1zIFWzF/+340Ng3UgZANNMTR9cmHYpwnAYgcXraifdQvxchyc7q3GLwrxvdpe62BpMAzVG3mCv81W1R1ibDNs6YcUNUS6kXVEuqXpCUUeVolLaEAAAAAtqVlCjYu9qKemwbq4klTDmTSHsZfGncaeI6+7y0Gc0uVh5r1py9SuQH6jdmo9UvBxdH1SbYtmIp7b6yvaKOyyU32eRXqIVNVa6FXSWChySJU9TLXzfxoCVU9M595bpKx+J3hSsUaAAAAgO05Pjj7p1nYuGgTdWkaqAshm/oTsuHRqkopmw5A8PXiGn95dH3yLuN7cKdaa61NzI+QTTNEhZAk/Ndkt8HBp2/OLjNak/F8/DEJgJG3cXXtrUwFAAAAwPYcH5zFH5j+ZiY2KtpE2SOiVpoUsjlP5cZd0wjZ8NVm/WknbS4AwfpEW53LaP3lXvznFyghm+aIdjyprGpzajYaKwKDUdVmXuM1GOvvR89FMrYqxut4byiutQ+mAwAAAGD7jg/OOsXHr2ZiY+J7r+/evh+tTAV18h+mAJrv6PpkXoxvUxnioL4inPLbrD/NtvJQbzE4Lz5irc2dTj4mNoOLEb1TIzjlxbiZ4q83fl12R6+qQEstREuoYkTg9PdUBr1aThUZiufr8+I++m0xzgVsAAAAAHbq0BRs1HMBG+pIyAb2yNH1yXkSgKi7VjF+mfWnMVo5HkBvMVhVlWciSGHzj4+KKiexSZyE/5os2oP9XrVk2pnin98pxi+pDNecJu3KyNO4GN8V983vizE2HQAAAAC14LvGzbl8+350YxqoIyGb+pOAZK2Ork9WxRCAqL/YlI6qNi9yPYDeYjBOZahr7HTyKVGJIQn/Nf2XzF+W3VFUtmlt6x8aFXSKcVqMCNb8Wt1TITerVAYR/zMqgBXjnSkBAAAAqJW/mYKNmL99P3ppGqirJ005kEl7eJ7KVitNFCm9l1EdwpJlnWb96TfVdfPCbNRabKq9jLZfGd+jO6lsz/KY4OC8qoxDw1UVT6Kdj/R/c11UwapNraFW8fFjUrGGzL9EKMZrFWsAAAAA6u344Cz+wK9jJtZqVYzv3r4fKRRAbQnZ5CNuJBe9xeDSsmXdZv1pvAA8NgDB9sT1f3F0fZLti0V1r44N8IdsfgvZ7JGoQJKE//bhl6SoyjFf47rpVPcWFWvI2bgYVyrWAAAAAOTh+ODsn2ZhrWL/6/u370e+H6PWhGzyEzeV573FwM2FtZv1p3EdPTQAwfZfMJ4fXZ9k24eyuF+3UlmtpPOF/xUhmz1UhSaE/5ptXIyXT9+cfXjkGoln1bPq/a9lOsn4uX4V10NxLaxMBwAAAEAejg/O4vvJ/zETa/WdgA05ELLJ121Fi95ioFQWazXrT1up3NhWDaDe5qkM26wyvm8/q9Za675jFbLZX8vuKJ7vwn/NdVup7+mbs8sHrIm4Z5xaF2Quviy40hIKAAAAIE/HB2ed4uNXM7E2z9++H41NAzkQssnbbUWL3mJwYymzbrP+9EsDEOz2HnB1dH1ynvG9+0taA30o7nP/6XTvrypUIfzXbPNUVrV595l1EL+0/pDKgA3kKr4oeL3OdmkAAAAAbN/xwVl8X/2LmVgLARuyImTTDPNUhm1WljTrNOtPvyQAwe7FtR9VbeYZ38OjJVC0kPpoa6Di/vbEaWbZHQn/Nd9FMS7/2EKqOO+nqaxao3UYudISCgAAAKBhjg/OztP+7k2vk4AN2WlSyOY0lRu0++r2y/veYnBuWbNus/70swEIaiNeQl4eXZ9k20auuJe/qF5K/9QCRsiGO8vuSPiv+VZxL6ueOVpCkTMtoQAAAAAa6vjgLPbNTs3EVxGwIUtNCtl0kr53YZXKqjZzU8G6zfrTjwYgqJUI2ETQJtuXkqqFVLyc/qs1kJANf7XsjiKAEVVtOmYDqJl4BmsJBQAAANBgxwdnsS/dMROPEntZ3799P3pnKsiRkE1zjYvxsrcYfDAVrFPVQupPAQhqaZ7KsE22LyjVfT3WWkvIhk9ZdkfCf0BdvhiI9+8rLaEAAAAAmu/44Oz34qNlJh4s9q2eC9iQMyGbZrutaNFbDMamgnWb9adxzf3sBaL2LopxmWsLqaqqzQut8PicqoWU8B+wC6vqWXvz9M2ZcDsAAADAnjg+OPunWXiwm1QGbHyPRtaEbPbDPJVhG4lA1qqqanNXRYL6WsVLy9H1ydxU0GTL7ijeBYT/gG19IXClJRQAAADA/jk+ODssPn4zEw/y8u370aVpoAmaFLKJzf7/cUo/67aihRZSrNusP22lcmO7YzZqLTYEo4XUylTQZMvu6DwJ/wHrpyUUAAAAABGy6STFH76U9lA0zpMmHcykPYyQzTdO62et4kbWWwzmpoJ1m/Wnp8XHK9dhrcUG4cXR9Ym0MI227I5aSfgPWN/7s5ZQAAAAANw6PjiLLg+vzMS9Lt6+v/2jWGiUpoVsfik+njmtX+S2552qNqxb1UIqXixOzUat3SaHj65PJIdptGV3dJqE/4DHvy9rCQUAAADAnxwfnJ0n1dQ/Z57K6jUrU0ETNS1kIzX4MLcVLXqLgYoWrN2sP+2ksopEy2zUWlz/UdlG4I7GWnZHwn/AQ96PI1xzoSUUAAAAAB9zfHAWraI6ZuLfzFNZvWZuKmiypoVsWsXH707rg91WtOgtBipasHaz/vS8+PgxqSJRZ6tivDy6PrkxFXziOo7n62kxbnKufrTsjuKXngjbHDqrwEeehVfFGGsJBQAAAMDnCNn8m9g3uHr7fjQ2FeyDJ007oEl76Kb2eLcVLbSQYt2qDfqfXZu1N09lC6mVqaC6duOajZDcs78+K3KufrTs3vaAFf4D7p590RJK0BQAAACAL3J8cBbdVeI75taeT8U8qVzDHmpiyOY0lZv5PM6qGC97i4GNBtZu1p8+q65PG9v1FcGJq6Prk3NTsdfX6mn1C8LhZ9bJ85yrHy27o1YS/oN9ftZpCQUAAADAVzk+OIvv0O/+UHVf9r7iu7VxKivXrKwC9tGTJh7UpD2MllEtp/erzFPZQsrNkbWa9afxkvFTMV6YjVqL0n7RQmpuKvbm2ozn5ml6WIWX22dFztWPlt1R/PLzynsD7IW4V2kJBQAAAMDaHR+cxXfN/y+Vf9jZatjh3f3R2n+/fT9SqIG919SQzWlSzWZdN8yr3mJwbipYt1l/elhdp4dmo9bGqQzb2Ixs7rUYL/w/pDJg8+hnRc7Vj5bdkfAfNNs8aQkFAAAAwJZUFW46xfhb9ZljlZv4Y+x5KoM1c2cV/teTph6YajZrv4lGCyk3UNZu1p/GpvZPSQupOosQRQRtxqaiUdfeafp8S6iHWqWyqk22z4pldyT8B816dmkJBQAAAMDOHR+ctVL5vXOMp6ncw67T99CxF7wqxjKVwZp3b9+P/PE1fEKTQzad4uNXp3itxqkM27ipslZVm5po1/LMbNRavFhl3RrItfaollCPelbkXP1o2R0J/0G+4hn1uhiXWkIBAAAAUGfHB2fxHfRd2CY+49//3/TnAM7df/415tVnfF+2/MN/9uHt+9E7ZwIe5kmTD27SHsamvdYP63Vb0aK3GIxNBes2608jZBPXbcts1NpFMS61kMrq2uqkr2sJ9ahnRc7Vj6oWUlHVRvgP8hBfCrx++ubMOyoAAAAAe6FqS/WvAI62TrAdTQ/ZxE0lqtlo+7B+cZN+3lsMVqaCdZr1p3Hd3lWRoL7i2s+6NdCeXE+nqQzXdHb4rIiwTbZJ+GV3FHMXYZuWFQW1NC7G1dM3Z/7iBgAAAACAjXvS9AOctIcRsImgjZYPm3HRWwzOTQPrNutP49qNqjYds1FrN6kM26hqU59r5y6oFuGaVl2eFSnj6kdVVRvhP6iPVdISCgAAAACAHXiyDwdZBW1+c7o3ZpXKqjZzU8G6zfrTu41tQbn6ig3Oi6Prk0tTsdNrJZ51P6bttYR61LMi5+pHy+5I+A92K+4fWkIBAAAAALAzT/blQCft4Wkq2z2wObcVLXqLgb8oZq2qyhyxsX1qNmptnjJvDZTp9RHXxS5bQj3qWZFz9aNld3Ra3ZOE/2A7xklLKAAAAAAAauDJPh3spD18lsqgjU2xzbmtaNFbDFS0YO1m/WmnuoZbZqPW4vq/0EJqo9dCHVtCPfhZkXP1o6qFlPAfbPY+cZW0hAIAAAAAoEae7NsBV62jfk2CNps2L8bL3mLgL45Zu1l/ep7KFlLU1yqVVW1uTMVa136rWvunDTmkeEY8z7n60bI76iThP1j3feFKSygAAAAAAOroyT4e9KQ9jIBNBG0OLYGNu61ooYUU61aFDWJju2M2ai1CNhG2WZmKr1rvUYntxwav9+yrHy27o/PqHAnxwuOMi/H66ZuzuakAAAAAAKCunuzzwU/aw/OkGsY2rFJZ1UZFC9Zu1p+eprJli43t+rpt+XF0fXJuKh60tmNNx/qO4EZrX54VOVc/WnZHcZ6E/+CBz4dijJ++OVuZDgAAAAAA6u7Jvk9A1T4qNug7lsPG3Va06C0GK1PBOlVhhAjMvTAbtRYtQCJEMTcVn13PrWo9R/WafQyPxfp4nnP1o2V3FOfu5yT8B597HmgJBQAAAABAdp6YgtKkPTxNqmFsw+1fLPcWg3NTwbrN+tNOdR1rBVdv2bcG2tD6bXpLqAc/K3KufrTsjoT/4N+Nk5ZQAAAAAABkTMjmDybtYWyIxQb9qdnYuNuKFr3FYG4qWLdZf3qeyrCC0Fx9RYgiqtqM93yt7ltLqEc9K3KufrTsjiL0F1VthP/Y5/u9llAAAAAAADSCkM1HTNrDTio3xFpmY+NuK1r0FgMVLVirquVOhOaemY1am6fMWwN9xfrc55ZQDzVOZdgm22fFsjt6UZ1z55t9Eff1i2LcPH1z5j0PAAAAAIBGELL5jEl7eJ7KDTE267aiRW8xGJsK1q1qwRNhm5bZqLWLnFsDPWA9dlJZtUb465HPipyrHy27o1YS/qP5bopxpSUUAAAAAABNJGRzj0l72EplVZuO2di4eTGe9xaDlalgnaqWPBGYe2E2ai2u/ec5twb6zPp7Vq3BltO8nmdFztWPlt2R8B9NEyG4cSrDNd7jAAAAAABoLCGbLzRpD2NDLMI22jxsXrSPOjcNrNusPz2sruNDs1Fr45R5a6BqvbVSWbXm1LNjM8+KYlzmuk6W3VGsibsWUpCrVdISCgAAAACAPSJk8wCT9lA1jO1ZpbKqzdxUsG6z/vRuY1vwob5iszZaSF1muL46SUuorT4rcq5+tOyOIvQXVW06TicZ0RIKAAAAAIC9JGTzCJP2sJPKDTHVMDZvXIyXvcXAX0ezVlULn6hqIwhRb/NUVrV5l8F60hJqd2LD/3nO1Y+W3ZHwH3WnJRQAAAAAAHtPyOYrTNpDG2LbcVvRorcYXJoK1q2qOhJhm5bZqLVatgbSEqp+z4ocqx/dqVpIvarWE9TFqhhXxRhrCQUAAAAAwL4TsvlKk/awlcoNMdUwNm+eyqo270wF61RVIbkLzVFfq1RWtbmpwZrpFB8/JGGI2j4r6l796HOW3VGsL+E/6nAtRdWaG1MBAAAAAAAlIZs1mbSHEbKJsE3LbGzcbUULLaRYt6oqSWxsd8xGrcWGb4QoVjtYI6eprFyjXWD9RUWbi8xbSJ0n4T+260N1j73QEgoAAAAAAP6dkM0aTdpD1TC2Z5XKqjb+upq1q4IUEZrT/qe+ttYaqApfxZr40ZrI81lRh+pHj7XsjmL9Cf+xjWtFSygAAAAAALiHkM0GTNrDqHAQG/Qds7FxtxUteovBylSwTlULqbiOT81GrUVLoAhRzDewBuIeriVUg54Vu6h+tC7L7igq5kXYRtCLdYp7p5ZQAAAAAADwhYRsNmjSHt5VtbEhtlm3FS16i8GlqWDdqqBFhG20B6q3tbUG0hKq0c+Kq2KNnOd6AMvu6JvqveKF08lXXgtaQgEAAAAAwCMI2WxY1UIq/vL8mdnYuNuKFr3FYG4qWLdZf3qetAuqu9g4fv6Y1kBaQu3fs2IT1Y+2ZdkddZLwHw+3KsbrYlxqCQUAAAAAAI8jZLMlk/awk8qwTctsbNxtRYveYmADibWqghhxHXfMRq3NUxm2WX3BOY2QQgRrTk3bfj4r1lH9aFeW3ZGKeXzpPfH10zdnY1MBAAAAAABfR8hmyybt4XkqN8TYrNuKFr3F4MZUsG6z/jQqU0XYxsZ2ve8Bn2wNVLWE+iEJTFknZVWbca4HsOyOWqmsaqNiHn8V6/rq6Zuzd6YCAAAAAADWQ8hmBybtYSuphrEt81SGbVamgnWa9acRsInA3AuzUWtx7UdVm3l1zuJ8RbimZWr467PiS6of1dWyO4qQzStr2z0vaQkFAAAAAAAbI2SzQ5P28DSVG2KqYWzWbUWL3mJwbipYt6rdUITmDs1Grc2TYCP3u/hU9aMcLLsj4b/9vsdpCQUAAAAAABsmZLNjk/bQhtj2rFJZ1WZuKli3WX/6orqWheagAc+KqH6U6wEsu6MI/UWIt+N0Nt44aQkFAAAAAABbI2RTE5P2sJPKDTHVMDZvXIyXvcVAGwXWataftqrr+JnZgGY8K46uT7J9Viy7I+G/Zrqt0Je0hAIAAAAAgK0TsqmZSXt4Xnz8mGyIbVpsSkXQZmwqWLdZf9pJZQupltmA7J8V0ULqMtcDqFpIxf1I+C9/Ua3mSksoAAAAAADYHSGbGpq0h62kGsa2zFMZttFmgbWa9aexsX1XRQJowLPi6Pok22fFsjvqJOG/XI2L8frpm7O5qQAAAAAAgN0SsqmxSXsYIZsI27TMxsZdFONSCynWbdafHlbXccdsQJZW1TPiJufWUXeW3dF5Ev7LwV1LqPHTN2cr0wEAAAAAAPUgZFNzk/YwqmHEZtgLs7Fxq2I87y0Gc1PBus3607uqNlrBQR5uinF1dH3SuGfCsjtqpbKqTcdprh0toQAAAAAAoMaEbDIxaQ+jGkZsiB2ajY2LjdVoIbUyFaxT1UIqqtqcmg2opageMk5luKbxz4Bld3Ra3ZOE/3Yv1p2WUAAAAAAAUHNCNpmZtIeqYWxHbLRe9BaDS1NRm7Uf7dN+rNZ+VBx6l+uxzPrTTipDcy1nFmphlRrUEuohlt2Rinm7fdfQEgoAAAAAADIiZJOhqoVUbNA/MxsbF0GOrAMdDVjrp6kM17T+8n+OAFQEobLdEJ/1p+ep3NwGdqOxLaEeatkddVJZ1UbFvM1bpSrU9fTN2QfTAQAAAAAA+RCyydikPewk1TC2JftAR2ZrO9Z0hE8iSPa5qk2rVLb2usn1WGf9aau6jjvOPGzFXrWEeqhld3Se/rdqGOt1G+rSEgoAAAAAAPIlZJO5qtLHXQspNis2Zp/nHOjIYD3ftYTqPPC/Oq/OzSrXY5/1p3HsEbaxsQ2bEfeH29Y8+9YS6qGW3VErCf+t891hnMpwzcp0AAAAAABA3oRsGqKq/GFDbDvmKfNAR83W7udaQj1EbGReFeflPNe5mPWnMRcRmHthZcBa79lRtUZA8oGW3VGE/14lFfMeI94RtIQCAAAAAICGEbJpmEl7eJrKDTHVMDYr+0BHDdZqK31ZS6iHepfKFlLzXOdm1p92quv40EqBR9+jI1RzoSXU11l2R8J/D6MlFAAAAAAANJiQTQNVlUFig/7UbGxc9oGOHazPTiqr1jzb8D/qshgXxbnJtoLArD89r+ZKaA6+zCppCbURy+4oQn9RMU/4799pCQUAAAAAAHtCyKbBqjCDahjbMU5l2Mam7sfXYoREIlQT1RBaW/xHf6jOyzjXuZv1p63qOn5mJcEnzZOWUFux7I5eVPdy4b8/hLq0hAIAAAAAgP0gZLMHJu3heVINYxuyD3RsYO21qrV3uuP1Ny/G8+LcrHKdy1l/GiGbCNu0rCz41z1XS6gdqFpIRVWbfQ3/xTMlqtYIdQEAAAAAwJ4RstkTVdghNsQ6ZmPj5inzQMca1luss220hHqoaB91nuu8zvrT2NiOChIvXGbssbi3vi7GpZZQu7XsjjrVu0VrDw73X6EuLaEAAAAAAGB/CdnsmUl7GKGH2BBT1WbzLopxuS8tpHbYEuqhVqkMQc1znetZfxot4KKqTcdlxh6Ja/b10fXJ2FTUR1XV5q6FVBPFM0NLKAAAAAAA4JaQzR6qwhCqYWzHKmUe6PiC9dRKZTuo3FqS3VTnJttN01l/erexLTRHk42LcXV0ffLOVNTXsjuKZ0GTKubFc1tLKAAAAAAA4E+EbPbYpD2MahixIXZoNjYu+0DHR9ZPp/j4IZUBm1zF+YgWUpe5HkDVQiqu42cuMxpklbSEytKyO4pnQlTayjH8pyUUAAAAAADwWUI2RFhCNYztyD7QUa2X01RWrWlSOGtejJfFucm2UsasP+2kMmzTcqmR+bWoJVTmqhZSEbQ5zeRHXqUq1KUlFAAAAAAA8DlCNtyqWv7EhphqGJsXQY7nOQU6Mm4J9VARgLrIteJQVdXmLjQHORknLaEaZ9kddar7UaemP+K8GK+fvjkbO1sAAAAAAMCXELLhT6oWQKphbEftAx0NaQn1UKtUVrW5yfUAZv1pq7qOOy4zaizufVfFGB9dn6xMR3PVMGwzjrX39M2ZUBcAAAAAAPAgQjb8m0l7qBrG9qxSDQMdDW0J9VA31blZ5XoAs/40zmNUqNIKjjqJYMOVllD7pwrb7Cq4GfdyLaEAAAAAAICvImTDJ03awwhYxAZ9x2xs3M4DHX8IVzW9JdRDxEZsVBu6zPUAqhZScR2fOp3s2LgYr4+uT+amYr8tu6O4L0V7yh+28I4Rz9f/1hIKAAAAAABYByEb7lVVNVENY/NuW6f0FoPzLZ/fCFNFsObUKfikqLwRIah5rgcw60871XV86HSy7fta0hKKT/hD4OZv1f3pa+9Rsc7iXv2PYtyoWgMAAAAAAKyTkA1fpKpyohrGdmwl0FGFp7ZRRaBJoqJNVLbJdtN21p+eJ9WK2M59TEsoHqVqK9Wqxn9Vn5/yj+oznpmrp2/OVmYQAAAAAADYFCEbHmTSHnaKj5/T5ze8WI+1Bzr+0BLqB+fw0eJ8PC/Oy02uBzDrT1vVddxxOlmzcdISCgAAAAAAgIYSsuFRJu3hefHxk5nYuAh0RFWb8VeeLy2h1m+eyrDNKtcDmPWn0aIlwjaq2vC196m4R11pCQUAAAAAAECTCdnwaJP2sJVUw9iWeXpEoENLqK2IakPnuf7ws/40AjYRmHvhVPJAcT+6KMbN0fXJB9MBAAAAAABA0wnZ8NUm7aFqGNtzb6Cjagl1msrKNS1TthWrVIag5rkewKw/Payu40Onk3tEq7QrLaEAAAAAAADYN0I2rEUV7FANYztW6SOBjqqyUJyDCD0JPO3GOJXtvbKt6jHrT19U68ga4o+0hAIAAAAAAGDvCdmwVpP2sFN8vEqqYWxDVJN4nspWUD8mLaHqIsIIEbQZ53oAs/60VV3Hz5zOvbdKWkIBAAAAAADALSEbNmLSHqqGwb6bpzJs8y7XA5j1p51UtpBqOZ17R0soAAAAAAAA+AshGzamal+kGgb7LqqAXObaQmrWn0ZQ7i40R7PFGo1wzYWWUAAAAAAAAPDvhGzYuEl7GCGbCNu0zAZ7alWM573FYJ7rAcz608PqOu44nY1cn1fFGGsJBQAAAAAAAJ8mZMNWTNpD1TCgrBISLaRWuR7ArD89TWXYRiu4/M1T2RLqxlQAAAAAAADA/YRs2KpJe6gaBvsuKoVc9BaDy1wPoGohFdfxqdOZ5frTEgoAAAAAAAAeQciGnZi0h3dVbVTDYF+9S2ULqXe5HsCsP+0UHz8nreBysEpaQgEAAAAAAMBXEbJhZ6oWUrFB/8xssMeiok1Utsk2+DDrT8+TVnB1NU9aQgEAAAAAAMBaCNmwc5P2sJNUw2C/rYrxsrcYZBuEmPWnreo67jidtTBOWkIBAAAAAADAWgnZUBuT9vA8qYbB/okKNuNiXPUWg1XuBzPrT6MyVYRttILbvlg/r4txqSUUAAAAAAAArJ+QDbUyaQ9bSTUM9sOqGBfFuMm5VdTHzPrTCNhEYO6F07wV82K8Pro+GZsKAAAAAAAA2BwhG2pp0h6eFh+vkmoYNE+0hIqqNfOmH+isP+1U1/Gh074R41hLR9cn70wFAAAAAAAAbJ6QDbU1aQ9Vw6ApGtUS6qFm/emL6loWmvt6sX60hAIAAAAAAIAdELKh9ibtYSephkGeVqmhLaEeataftqrr+Jll8SjzpCUUAAAAAAAA7JSQDdmYtIfnxcePSTUM6m9ejIt9aAn1ULP+NEI2EbZpmY0vMk5aQgEAAAAAAEAtCNmQlUl72EqqYVBPUanmJpXhmpXp+LRZf6oV3P1r6aoY46PrE2sJAAAAAAAAakLIhixN2kPVMKiLVaoCEfveEuqhZv3pYXUdd8zGrahWc6UlFAAAAAAAANSTkA3ZmrSHqmGwS/NiXPUWgxtT8XVm/emL6lre11Zw42K8Pro+mVsNAAAAAAAAUF9CNmRv0h5GNYyfi3FoNtgwLaE2pGohFdfxsz1aS1pCAQAAAAAAQEaEbGiMSXu479Uw2JxV0hJqK2b9aSeVYZtWQw9RSygAAAAAAADIlJANjVK1kNqnahhs1rwYr3uLwdhUbNesPz1PZWiuKWINaQkFAAAAAAAAGROyoZEm7WEnNbsaBps1LsZVbzF4Zyp2Z9aftqrruJPpIXy4W0taQgEAAAAAAED+hGxorKqqzV0LKbjPqhivi3GpJVS9zPrT0+LjVcqnFVyspYti3Bxdn1hLAAAAAAAA0BBCNjTepD1spbyrYbBZ86QlVO3N+tMI2ETQ5rTGP+ZNKqvWzJ0xAAAAAAAAaB4hG/bGpD08TXlVw2CzxklLqOzM+tNOKqtTdWryI2kJBQAAAAAAAHtCyIa9UrWQqns1DDZnlbSEaoSqhVSEbVo7XEtaQgEAAAAAAMAeEbJhL03aw04qwzaHZmMvRLWaKy2hmmfWnz4rPn5M26tsoyUUAAAAAAAA7CkhG/bapD08T+UGvRZSzTQuxuveYjA3Fc02609bqaxQ9f/S+sNzWkIBAAAAAAAAQjYwaQ9bxcfPaXuVMNisCERcFWPcWwxWpmP/VIGbuJ7/Vn22HvE/My/GP+JT1RoAAAAAAAAgCNlAZdIeRtuZCNuoapMnLaH4pFl/2qn+5eEnrvHV3VCtBgAAAAAAAPgYIRv4g0l7GJvvPxXjhdnIxjhpCQUAAAAAAADAhgnZwEdM2sOodhFVbQ7NRi1pCQUAAAAAAADAVgnZwGdM2sOoaBOVbbSQqodVMS60hAIAAAAAAABg24Rs4B6T9rBVfLwqxjOzsTM3xbjSEgoAAAAAAACAXRGygS80aQ87qWwh1TIbWxEtocapDNesTAcAAAAAAAAAuyRkAw8waQ+jbdRdCyk2Y1WMi2Lc9BaDD6YDAAAAAAAAgDoQsoFHmLSHh6lsIdUxG2ujJRQAAAAAAAAAtSVkA19h0h6epjJs843ZeBQtoQAAAAAAAADIgpANfKWqhVQEbU7NxhdbJS2hAAAAAAAAAMiIkA2syaQ97BQfPxejZTY+aZ7KqjU3pgIAAAAAAACAnAjZwJpN2sPz4uMnM/EvUakmQjUXWkIBAAAAAAAAkCshG9iASXvYSmVVm84eT8OqGFfFGGsJBQAAAAAAAEDuhGxggybt4bNUhm2+2aPDnictoQAAAAAAAABoGCEb2LBJexgBm2gf9aLBh6klFAAAAAAAAACNJmQDWzJpDzvFx6tiHDbosFbFeF2MSy2hAAAAAAAAAGgyIRvYskl7GBVtorJNzi2k5sV43VsMxs4oAAAAAAAAAPtAyAZ2YNIetlJZ1eZZZj/6uBhXvcXgnbMIAAAAAAAAwD4RsoEdmrSHEbKJsE2rxj/mKmkJBQAAAAAAAMCeE7KBHZu0h9E26q6FVJ3Mk5ZQAAAAAAAAAHBLyAZqYtIeHqayqk1nxz/KOGkJBQAAAAAAAAB/ImQDNTNpD09TWdWmtcV/bLSBukpaQgEAAAAAAADARwnZQE1tKWwT1WqutIQCAAAAAAAAgM8TsoGam7SHneLjh2I8K8Y3a/ifjEo1N8V43VsM5mYYAAAAAAAAAO4nZAMZmbSHh6kM2/ytGPGvvzR0M09l1Zp/9BaDGzMJAAAAAAAAAA8jZAOZqyrdfMqqtxiszBIAAAAAAAAAAAAAAAAAAAAAG/V/TAEAAAAAAAAAAHyekA0AAAAAAAAAANxDyAYAAAAAAAAAAO4hZAMAAAAAAAAAAPcQsgEAAAAAAAAAgHsI2QAAAAAAAAAAwD2EbAAAAAAAAAAA4B5CNgAAAAAAAAAAcA8hGwAAAAAAAAAAuIeQDQAAAAAAAAAA3EPIBgAAAAAAAAAA7iFkAwAAAAAAAAAA9xCyAQAAAAAAAACAewjZAAAAAAAAAADAPYRsAAAAAAAAAADgHkI2AAAAAAAAAABwDyEbAAAAAAAAAAC4h5ANAAAAAAAAAADcQ8gGAAAAAAAAAADuIWQDAAAAAAAAAAD3ELIBAAAAAAAAAIB7CNkAAAAAAAAAAMA9hGwAAAAAAAAAAOAeQjYAAAAAAAAAAHAPIRsAAAAAAAAAALiHkA0AAAAAAAAAANzj/wswANKOqJt2PHfQAAAAAElFTkSuQmCC;" parent="1" vertex="1">
          <mxGeometry x="200" y="204.01" width="146.44" height="49.01" as="geometry" />
        </mxCell>
        <mxCell id="iU7n7ivI7I0KxXx9MVES-6" value="" style="image;aspect=fixed;perimeter=ellipsePerimeter;html=1;align=center;shadow=0;dashed=0;spacingTop=3;image=img/lib/active_directory/generic_server.svg;" parent="1" vertex="1">
          <mxGeometry x="730" y="205" width="28.000000000000004" height="50" as="geometry" />
        </mxCell>
        <mxCell id="iU7n7ivI7I0KxXx9MVES-7" value="" style="image;aspect=fixed;perimeter=ellipsePerimeter;html=1;align=center;shadow=0;dashed=0;spacingTop=3;image=img/lib/active_directory/laptop_client.svg;" parent="1" vertex="1">
          <mxGeometry x="95.99" y="204.01" width="45" height="50" as="geometry" />
        </mxCell>
        <mxCell id="iU7n7ivI7I0KxXx9MVES-12" style="edgeStyle=orthogonalEdgeStyle;rounded=0;orthogonalLoop=1;jettySize=auto;html=1;" parent="1" source="iU7n7ivI7I0KxXx9MVES-8" target="iU7n7ivI7I0KxXx9MVES-6" edge="1">
          <mxGeometry relative="1" as="geometry" />
        </mxCell>
        <mxCell id="iU7n7ivI7I0KxXx9MVES-8" value="upstream" style="shape=image;verticalLabelPosition=bottom;labelBackgroundColor=default;verticalAlign=top;aspect=fixed;imageAspect=0;image=data:image/png,iVBORw0KGgoAAAANSUhEUgAACNkAAAL2CAYAAAB2GNL5AAAACXBIWXMAAC4jAAAuIwF4pT92AAAAGXRFWHRTb2Z0d2FyZQBBZG9iZSBJbWFnZVJlYWR5ccllPAAAxXVJREFUeNrs3UFSW1mWP+Bb1TVvegWtjFqAyBWkPHFEMUly4qnFQANGhhUAKwBGHmiAPGVieqKMYGLVCgwLyLB6BUWv4P+/x+9RSTptYzCId+/7vogborqju/CR3r0S76dz/iMBAAAAAAAAAABf9R9KAAAAAAAAAAAAXydkAwAAAAAAAAAAtxCyAQAAAAAAAACAWwjZAAAAAAAAAADALYRsAAAAAAAAAADgFkI2AAAAAAAAAABwCyEbAAAAAAAAAAC4hZANAAAAAAAAAADcQsgGAAAAAAAAAABuIWQDAAAAAAAAAAC3ELIBAAAAAAAAAIBbCNkAAAAAAAAAAMAthGwAAAAAAAAAAOAWQjYAAAAAAAAAAHALIRsAAAAAAAAAALiFkA0AAAAAAAAAANxCyAYAAAAAAAAAAG4hZAMAAAAAAAAAALcQsgEAAAAAAAAAgFsI2QAAAAAAAAAAwC2EbAAAAAAAAAAA4BZCNgAAAAAAAAAAcAshGwAAAAAAAAAAuIWQDQAAAAAAAAAA3ELIBgAAAAAAAAAAbiFkAwAAAAAAAAAAtxCyAQAAAAAAAACAW/xFCQAA+FaXG9NRfoj133kNbqwvWbSP/8zrKq+L4XyyUEkAAAAAAKA0QjYAAHzR5cZ0kB828/o5NeGah7LI63/icTifXKg0AAAAAADQdUI2AAD8weXGdC01wZpXea2v4L9ymdebvGbD+WTpGQAAAAAAALpIyAYAgI/arjURrBnntfZEv8ZZXsdGSgEAAAAAAF0jZAMA0HOXG9NRfniZmnBNVyzyOhC2AQAAAAAAukLIBgCgpy43puO0upFQ97XIa3c4n1x4xgAAAAAAgKckZAMA0CPtSKhxasI1awX96kep6Wxz5VkEAAAAAACegpANAEAPdHQk1F0tU9PV5swzCgAAAAAArJqQDQBAxQoZCXVXi7y2hvPJ0jMMAAAAAACsipANAEBlLjemMQZqJ5U3EuouYmzU8XA+2feMAwAAAAAAqyBkAwBQicuNaXSriWDNuEf/7IvUjJBaeAUAAAAAAACPScgGAKBw7Uiol3mNelyGWWrCNldeEQAAAAAAwGMQsgEAKNCNkVARrhmoyEcRsImgzUwpAAAAAACAhyZkAwBQkJ6OhLqrRV5bw/lkqRQAAAAAAMBDEbIBACiAkVD3cjCcT/aVAQAAAAAAeAhCNgAAHdWOhBqnpnPNQEXuZZmarjYLpQAAAAAAAL6HkA0AQMdcbkwH+WEvr8281lTkQZylJmxzpRQAAAAAAMB9CNkAAHTE5cY0QjXRtWakGo8iAjYxQupIKQAAAAAAgLsSsgEAeEJGQj2JRV67w/nkQikAAAAAAIBvJWQDAPAEjITqhOhoc2CEFAAAAAAA8C2EbAAAVshIqM5ZpqarzZlSAAAAAAAAXyNkAwDwyNqRUBGuic41AxXppAjZRNhmqRQAAAAAAMDnCNkAADySdiRUdK0ZJyOhShBjo2J81JFSAAAAAAAAnxKyAQB4YJcb01FqwjWbqlGki9R0tVkoBQAAAAAAcE3IBgDgARgJVaXoaBOdba6UAgAAAAAAELIBAPgORkJVLwI2W8P55EwpAAAAAACg34RsAADuwUio3lmkJmyzVAoAAAAAAOgnIRsAgDu43JiOUxOuWVeNXorxUfvKAAAAAAAA/SNkAwBwi3Yk1Dg14RojoVimpqvNQikAAAAAAKA/hGwAAL6gHQn1MjUBG/jULK/d4XxypRQAAAAAAFA/IRsAgE8YCcUdRMAmRkgdKQUAAAAAANRNyAYAIBkJxXdbpKarzYVSAAAAAABAnYRsAIBeu9yYRreaCNaMVYMHcJDXkRFSAAAAAABQHyEbAKCX2pFQL/MaqQYPbJnX1nA+WSgFAAAAAADUQ8gGAOiNy41pjIHaSU24ZqAiPLKz1IyQWioFAAAAAACUT8gGAKiekVA8oRgbdTCcT46UAgAAAAAAyiZkAwBUy0goOuQiNSOkLpQCAAAAAADKJGQDAFTFSCg6LjraRGebK6UAAAAAAICyCNkAAFW43JgO8sNeMhKK7ouATXS1OVMKAAAAAAAoh5ANAFC0y43pZn54lYyEojyL1IRtlkoBAAAAAADdJ2QDABSnHQk1Tk24ZqAiFCy62hwP55N9pQAAAAAAgG4TsgEAinFjJFR0r1lTESqyTE1Xm4VSAAAAAABANwnZAACdZyQUPTLLa3c4n1wpBQAAAAAAdIuQDQDQSUZC0WMRsImgzUwpAAAAAACgO4RsAIBOaUdCRbBmnIyEot8WqRkhtVQKAAAAAAB4ekI2AEAnXG5MR6kJ12yqBvzBQV5HRkgBAAAAAMDTErIBAJ5MOxIqQjV7yUgo+JplarraLJQCAAAAAACehpANALByRkLBvZ2lJmyjqw0AAAAAAKyYkA0AsDJGQsGDiIDNwXA+OVIKAAAAAABYHSEbAODRXW5Mx8lIKHhoF6npanOhFAAAAAAA8PiEbACAR9GOhBqnpnONkVDweKKjzYERUgAAAAAA8LiEbACAB9WOhHqZmoANsBrLvHaH88mZUgAAAAAAwOMQsgEAHkQ7Eiq61qyrBjyZCNlE2GapFAAAAAAA8LCEbACAezMSCjopxkYdD+eTfaUAAAAAAICHI2QDANyZkVBQhIvUdLVZKAUAAAAAAHw/IRsA4JsZCQVFOsrrYDifXCkFAAAAAADcn5ANAPBVlxvTGAO1k5rONQMVgSJFwCa62syUAgAAAAAA7kfIBgD4rMuNaXSria41Y9WAaizy2hrOJ0ulAAAAAACAuxGyAQD+oB0JFV1rRqoB1YrxUfvKAAAAAAAA307IBgAwEgr6aZmarjYLpQAAAAAAgNsJ2QBAjxkJBWRnqQnbXCkFAAAAAAB8mZANAPTQ5cZ0MzXhmpFqAFkEbGKE1JFSAAAAAADA5wnZAEBPtCOhxqkJ1wxUBPiMRV67w/nkQikAAAAAAOCPhGwAoHKXG9NBftjLK7rXrKkI8A0O8joyQgoAAAAAAH4nZAMAlTISCvhOy9R0tTlTCgAAAAAAELIBgKoYCQU8ggjZRNhmqRQAAAAAAPSZkA0AVMBIKOCRxdiog+F8cqQUAAAAAAD0lZANABTscmM6Sk24ZqQawApcpKarzUIpAAAAAADoGyEbAChMOxIqOtZEuGagIsATiI420dnmSikAAAAAAOgLIRsAKEQ7EupVXuNkJBTw9CJgszWcT86UAgAAAACAPhCyAYCOa0dCRbhmUzWADlqkJmyzVAoAAAAAAGomZAMAHWQkFJWITifHec3yGuV1mHRhqvq5Hs4n+0oBAAAAAECthGwAoEOMhKISF6kJXMw+eX3Ha/qwfX1Tp2VqutoslAIAAAAAgNoI2QBAB7QjoV4m4QPKNsvrzW0Bi/b1fpJ0aar9tbCbXwtXSgEAAAAAQC2EbADgCV1uTMep6VyzrhoUKkIUs9R0rlne8fW/377+dW2q97Wx+2lHIwAAAAAAKJWQDQCsWDsSapyECyjbMq+DvM6+p1tJez1EV5uRklZrkZqwzYVSAAAAAABQMiEbAFgRI6GoxFlqutYsHvj62ExN2EbwrF4RyjoyQgoAAAAAgFIJ2QDAIzMSigrceyTUHa+VCNjs5bWj5NWK18/WQ4e0AAAAAABgFYRsAOARtGGBCAoYCUXJlukBRkLd4/qJQFp0tRFMq1d0RNp9zNAWAAAAAAA8NCEbAHhAbTgggjVj1aBgjzIS6h7XUwTVorONoFqdIrh1kF9nR0oBAAAAAEAJhGwA4AG0I6Fe5jVSDQoVgYcI1xx0qbtIvrYG+eEwr01PUbUuUjNC6kIpAAAAAADoMiEbALinGyOhIlwzUBEKtczrOK/ZKkdC3eN6G6VmhJRrrV7R0eagy69DAAAAAAD6TcgGAO7ISCgqsUjNSKizgq6962DbnqevWsu8dkt6XQIAAAAA0B9CNgDwjYyEogKdHAl1j2sxgm6HrsWqLVIzQmqpFAAAAAAAdIWQDQB8hZFQVGKZChgJdY/r87qrzZqnuErxWo1uS/tKAQAAAABAFwjZAMBnXG5MB6m5eb+Z3MCnXItU2Eioe1yrcX1GV5uxp7taF6kZIbVQCgAAAAAAnpKQDQDccLkxjVDNq2QMDWWbpcJHQt3j2o1r9iTpOFX763q3pm5MAAAAAACURcgGgN5rO2GMUxOuGagIhVrm9Savoz6HEPL1vJ+aLlTUKV7bEbSZKQUAAAAAAKsmZANAbxkJRSUWeb0ROvjTtR1dbUaqUfXrfqtP3ZoAAAAAAHh6QjYA9I6RUFRiltfxcD65UIqvXusRthGiq9dB6nn3JgAAAAAAVkfIBoBeaEdCxQ336FwzUBEKtUxGQt3n2o/rfkc1qr4uoqvNQikAAAAAAHhMQjYAVK0dGxNda8ZJNwvKtUhGQn3vXjDKD4d5ratGtc5SE7YRQAMAAAAA4FEI2QBQpfaGeoRrNlWDgs2SkVAPvTdER5vobCN0V6cI2Bzka+ZIKQAAAAAAeGhCNgBUw0goKhEhgeO8ZsP5ZKkcj7JXxP5wmITwarbIa1dADQAAAACAhyRkA0DxjISiEhEGODYSaqV7R4RsImwzUI1qRUebAyOkAAAAAAB4CEI2ABTLSCgqMcvrzXA+WSjFk+wjEcy7HiFFnZap6WpzphQAAAAAAHwPIRsAinO5MR2nJlyzrhoUykio7u0rsZ9EV5uRalQrQja7rjkAAAAAAO5LyAaAIrQjocapCdcYCUWpjITq/l5z3dXGPlOnq/Ya3FcKAAAAAADuSsgGgE5rR0K9TE3ABko1S0ZClbTvRMDm0L5TtQi87bomAQAAAAC4CyEbADrJSCgqEB0zZqnpmrFUjiL3oVF+OMlroBrVOsrrIF+jV0oBAAAAAMBthGwA6AwjoajEMq+DvM7cuK9mb9pPzQgp6hTX6Va+Xs+UAgAAAACArxGyAeDJGQlFJeIG/bHxM9XuU4PUdLUZqUa14trd0nkKAAAAAIAvEbIB4Mm0I6EiXDNSDQplJFQ/963DpNtWzWJ81L4yAAAAAADwKSEbAFbqcmMaN6Z3UhOuGagIhVomI6H6vo/ttXsZ9V7jWzpTAQAAAABwk5ANACtxuTFdzw+vkpFQlM1IKG7ua6PUdLVZV41qzfLaFaYDAAAAACAI2QDwqIyEogJxcz3CNQdGQvGFfW4/NSFCI6Tq3QPi+j9SCgAAAACAfhOyAeDBGQlFJZZ5Hec108WCb9j3Yq+LrjabqlGtRWq62lwoBQAAAABAPwnZAPBg2pvMe8lIKMq2SM1IqDOl4B77YIRsImwzUI1qHeR1JHwHAAAAANA/QjYAfLf2pnKMShmpBoUyEoqH3BOjm1cEDndUo1qxT+wK4wEAAAAA9IuQDQD30t5EHqcmXDNQEQq1TEZC8Xj75HpqutqMVKNaEbLZFc4DAAAAAOgHIRsA7uTGSKjoXrOmIhRqkYyEYnX75k67b9oz6xQBveiCdaQUAAAAAAB1E7IB4JsYCUUlZslIKJ5mD42AzUlqAorU6SKvrby/XCgFAAAAAECdhGwA+CIjoajEMq83eR0ZCUUH9tVRasI29tR6RUebA/sNAAAAAEB9hGwA+JN2JFQEa8bJeBPKtcjrzXA+mSkFHdxn91MzQoo6RcBmy0g6AAAAAIC6CNkA8G9th4UI1xhnQslmeR0b2UIBe+4gNV1tRqpRrUVqwjZLpQAAAAAAKJ+QDUDPtSOhIlQTHRUGKkKhlslIKMrdh8f54TDpHFar2JMi+LevFAAAAAAAZROyAegpI6GoxCIZCUUde3Lsw4ftnkydlqnparNQCgAAAACAMgnZAPSMkVBUYpaMhKLePTrCNuuqUfX+tavrFgAAAABAeYRsAHrASCgq8XHkSjISin7s2/upCUTqNFbvfrarCxcAAAAAQFmEbAAq1o6EGic3ailbdKs5djOanu7hJ3mNVKNai9SMkFoqBQAAAABA9wnZAFSo7VwTXWt2VIOCzfJ6M5xPFkpBz/f06EQWI6QGqlGtg6RLFwAAAABA5wnZAFTmcmMawZoI2OhcQ4muR0LNdHaAP+ztwpP1iz1vS7AQAAAAAKC7hGwAKtHegH2bjBWhTEZCwbft9eupGSG1rhrVOktN2EZXGwAAAACAjhGyAajA5cZ0lJqAje41lGaWjISC++z7upbVLQI2B3lvPFIKAAAAAIDuELIBKNzlxnScmq4GUAojoeBh9v+1dv/fVI1qRZev6GpzoRQAAAAAAE9PyAagYAI2FGaZ10FeZ8agwIOeBaP2LBioRrWio82BvRMAAAAA4GkJ2QAUSsCGgpzldWwkFDzqmRBdba5HSFGnZV67eS89UwoAAAAAgKchZANQoLZrwTuVoMOi28IsNeGapXLAys6HQWoCmCPVqNYiNSOk7K0AAAAAACsmZANQmPYG6vu81lSDDlomI6GgC2fFOD8cOiuqFftrhBj3lQIAAAAAYHWEbAAKc7kxjQ42I5WgY4yEgu6dFxGwiaDNWDWqdZGaEVL2XgAAAACAFRCyASjI5cZ0JzU3TKELjISCMs6OUXt2rKtGtY7yOtBBDAAAAADgcQnZABSi7UjwIRn9wdNb5nWc18wNXSjqHNnPD6+cI9WK/Ti62syUAgAAAADgcQjZABSivTm6pxI8oUVqutacKQUUe5YM8sNJMnaw9r16S4cxAAAAAICHJ2QDUABdbHhC0RkhQjUHbthCVefKZmrCNs6VesW+va8MAAAAAAAPR8gGoACXG9Od/HCoEqzQMhkJBbWfLRGwiQ5pO6pR9V4eXW0WSgEAAAAA8P2EbAAKcLkxjS42A5VgBRbJSCjo2xmznpquNuuqUa3Y07eEJgEAAAAAvo+QDUDHtTc/36sEj8hIKOC6a1p0tjFCqt69Pvb5I6UAAAAAALgfIRuAjjMqike0zOtNXke6GwDtmTNoz5xN1ajWIq/dvO9fKAUAAAAAwN0I2QB03OXG9F1+GKkED2iR15vhfDJTCuALZ0+cOzFCaqAa1TpIQpYAAAAAAHciZAPQcZcb038lozt4GLO8jnUvAL7x/Imz53qEFHVapqarzZlSAAAAAADcTsgGoMPasR0fVILvsExGQgHfdxatp2aE1Eg1qhUhmwjbLJUCAAAAAODLhGwAOqwd1/FOJbiHRTISCnjYM2mcmrCN7mp1iiDmQT43jpQCAAAAAODzhGwAOqy9oXmiEtzBLBkJBTzeuRQBmwjajFWjWnF+RFebhVIAAAAAAPyRkA1Ah11uTPfzw55KcIvoPnCcjIQCVnc+jVITAh2oRrWio82BcwUAAAAA4HdCNgAdJmTDLaLbwLGRUMATn1OvkhFStYqAzVY+Z86UAgAAAABAyAag04Rs+IJZXm+M8gA6clYNUtPVZqQa1YrzJsI2S6UAAAAAAPpMyAagw4RsuOF6JNTMTU6go2fWZmrCNrra1CvGR+0rAwAAAADQV0I2AB0mZEMyEgoo69xaa8+tHdWo1jI1XW0WSgEAAAAA9I2QDUCHCdn02iwZCQWUe36N8sNhXuuqUfU5tZvPqSulAAAAAAD6QsgGoMOEbHrHSCigtnNspz3HjJCq99za1W0NAAAAAOgLIRuADhOy6Y1lXgd5nekIAFR4lg1S09VmUzWqtUhN2OZCKQAAAACAmgnZAHRYO27jnUpU6yyvYyOhgJ6caRGyibDNQDWqFYHRI4FRAAAAAKBWf1UCAFipuPF4lNcPw/nkFwEboC/yfhfBwh9TE8SgTtF9730bEgYAAAAAqI5ONgAdppNNVZbJSCiA6/NtPTVdbUaqUa0IVcUIqaVSAAAAAAC1ELIB6DAhmyoYCQXw5XNuJzXdT9ZUo0oRKj3IZ+CRUgAAAAAANRCyAegwIZtixU3FWWrCNUvlAPjqWRcBm+hqM1aNal3ktZXPxAulAAAAAABKJmQD0GFCNsVZ5nWc18xIKIB7nXkneQ1Uo1rR0ebAGQkAAAAAlErIBqDDhGyKsUhN15ozpQD47rNvPzUjpKhTBGy2nJkAAAAAQImEbAA6TMim0+ImYdwgPDASCuDBz79BarrajFSjWovUhG2coQAAAABAMYRsADpMyKaTlslIKIBVnYObqQnbrKlGleIcjU5w+0oBAAAAAJRAyAagw4RsOmWRjIQCeIqzMAI2MT5qRzWqdZHXbj5jF0oBAAAAAHSZkA1Ah7XjMj6oxJMxEgqgO2fiKD8c5rWuGtWapSZso1McAAAAANBJQjYAHXe5Mf1/qrByy7ze5HXkRh9A587F/fzwKhkhVas4dyNoM1MKAAAAAKBrhGwAOk7IZqUWeb1xYw+g82fjIDVdbTZVo+ozeUsnOQAAAACgS4RsADpOyGYlZnkdD+eTC6UAKOqMjJBNhG0GqlGtg6SzHAAAAADQEUI2AB0nZPNolslIKIAazskYG7WX145qVH1mR1ebhVIAAAAAAE9JyAag44RsHtwiGQkFUON5uZ6arjYj1ajWWWrCNsKxAAAAAMCTELIB6DghmwczS0ZCAfTh3IyONtHZZk01qhQBm4N8nh8pBQAAAACwakI2AB0nZPNd4kbccTISCqBvZ2cEbE7y2lSNai3y2hWeBQAAAABWScgGoOOEbO4lbrgdGwkF0PszdJSasM1ANaoVHW0OhGkBAAAAgFUQsgHoOCGbO5nl9WY4nyyUAoAbZ+l+akZIUadlarranCkFAAAAAPCYhGwAOk7I5lbXI6Fmw/lkqRwAfOE8HaSmq81INaoVIZtd7wcAAAAAgMciZAPQcZcb0/f5YV0lPm84nzjLALjLuTrOD4d5ralGlT6Gb/P7g32lAAAAAAAe2l+VAKDzrpQAAB7GcD6Z5Ycf8jpSjSpFeGovQsp5jZQDAAAAAHhIQjYAAECvDOeTq7x284/P8rpQkSpFF8B3lxvTw7x0LQIAAAAAHoSQDQAA0EvD+WSR14/5x4Okc1ytdvL60I4JAwAAAAD4LkI2AABArw3nk/38EGGbM9WoUnSyObncmEZnm4FyAAAAAAD3JWQDAAD03nA+Web1S/4x1lJFqjRKTVebfaUAAAAAAO5DyAYAAKA1nE+im010tTlSjWrtXW5MI2wzUgoAAAAA4C6EbAAAAG4YzidXee2mJmxzoSJVGuQV46MOlQIAAAAA+FZ/UQKAbrvcmL5LzXgDPu+/4maoMgDwiGfxTn7Yy2tNNaoUQaqt/H5CoAoAAAAA+CqdbAAo3boSAPCYhvNJjI76Ia8z1aj2vUR0tdlUCgAAAADga4RsALpPlxYAeGLtCKlf8o/P8lqqSHWiS9Hby43pWCkAAAAAgC8RsgHovkslAIBuGM4ni/zwY14HqlGlk8uN6b4yAAAAAACfI2QDAABwB21Xm/3UjJBaqEh19i43pifKAAAAAAB8SsgGAADgHobzyTKvGB+1lYx3rM3Y6CgAAAAA4FNCNgBwT+fbp+O8TvIaqAZAfw3nk1lqutrMVKMqJ4I2AAAAAMBNQjYAcAfn26dree3n9SH/xxglMc7rQ/zPVAegv9oRUtHRJjrbXKhINSJos64MAAAAAED4ixIAdNvlxnQ/P+ypxBc9G84ni8f+LznfPo0bbK9SE6r5kmVeW89fv1h4WgCc3+25saYaxYtRYD9EkEopAAAAAKDfdLIBgG9zmL4esAmDvN61I6TcVAXoseF8sp8ffsxroRrFizP9RBkAAAAAACEbAHh449SMkNpRCoD+Gs4ny7xifNQvqel2Rrk2LzemznUAAAAA6DkhGwBKN+jo7xXfej883z59146aAqCnhvPJWWq62hypRtH2LjemOtUBAAAAQI8J2QBQukHHf79RXu/Pt0/3jZAC6K/hfHKV125qwjYXKlKkjwFaZQAAAACA/hKyAei+pRJUYS81YZuRUgD013A+ucgrgjYRuLlSkeKMLzemA2UAAAAAgH4SsgHovqUSVGOQV4yPepvXQDkA+ms4n8ToqAjbnKlGcU6UAAAAAAD6ScgGAFZvMzVdbXaUAqC/hvPJMq9f8o/PklBtSUa62QAAAABAPwnZAMDTWMvr8Hz7NMI268oB0F/D+WSRmq42B6pRjD0lAAAAAID+EbIBgG9z8Uj/fyNgE0GbCNysKTNAPw3nk6u89lMTtlmoSOdtXm5MndsAAAAA0DNCNgDwbf7vkf//x+ioD+fbp5tKDdBfw/nkIq8YH7WV15WKdFYEbJzZAAAAANAzQjYA0B1xw+7t+fbpu7wGygHQX8P5ZJYffshrphqd9bMSAAAAAEC/CNkAQPeMUjNCal8pAPqrHSEVHW2is81SRTpHJxsAAAAA6BkhGwDopuhqs3e+fRojpEbKAdBfw/lkkVd0tTlIRkh1yuXG1BkNAAAAAD0iZANA6X6q/N83yCvGR53ktebpBuiv4Xyynx9+zGuhGp0xUgIAAAAA6A8hGwAowziv6GozVgqA/hrOJ8u8YnzUL0lXmy74SQkAAAAAoD+EbAA6LkZEqAKt6GQTHW2is81AOQB6/f7gLD/ECKkj1XhSzmMAAAAA6BEhGwAozyg1XW32jZAC6K/hfHKV125qRkhdqMiTGCgBAAAAAPSHkA0AlGsvr/fn26cjpQDor+F8cpFXBG0icGOE1IpdbkwFXgEAAACgJ4RsAO4oxvTkdZjXv1SDDhjkFeOj3upqA9Bvw/kkRkdF2OZMNVZqXQkAAAAAoB+EbAC+UXQLyesk//ghr5281oQaemXR8d9vMzUjpHY8VQD9NZxPlnn9kn+MtVQRAAAAAICHI2QDcIvz7dNxXu/zj+/yGn/yv/bNZbokQl/RZSlGSHltAvTYcD6JbjbR1eZANQAAAAAAHsbflADgz2IkVGoCNa9SE1yAkkTAJoI2MTbk4PnrF1dKAtA/w/kk9v/9y41pBG4O8xqpCgAAAADA/elkA3DDJyOh9pKADWWL0VERttlUCoD+Gs4nF3k9yz/u5iV4CQAAAABwT0I2AOnWkVB020AJbq3P2/z6ftd2aAKgp4bzSXQ4+yGvmWoAAAAAANydcVFAbxkJVY2BEnyTUWq62hw/f/1iXzkA+qkdIbV1uTF9kx9PnKMAAAAAAN9OyAbonfPt0/XUBGvGBf3ay+QmGN8vwmR7+Rr4OT/uPn/9YqEkAP00nE/iDPjhcmO6n5oRmQAAAAAA3MK4KKA32pFQMQ4qxkKNC/v1l55BHlAEzWJ81GFeujgB9NhwPtlPzQiphWrc20AJAAAAAKAfdLIBqtYGCHbyepncAIFPxbUR4bPoajNTDoB+Gs4ny/zw7HJjupmaEVICmHfjPSYAAAAA9IRONkCVYiRUXnGT6F+pGYEwUBX4rLiRehJdnvJynQD02HA+OUtNV5sj1QAAAAAA+DMhG6AqhY+EotuWlf/7Rnl9yNfPvqcaoL+G88lVXrv5x2d5XagIAAAAAMDvhGyA4sVIqAgG5PUhNSMORiv8r1/3DPTD89cvlj35p+7FtZTXyLMO0F/D+WSR14/5xwjcXKkIAAAAAICQDVCwGG3TgZFQa54JKhTXUoyPehshNuUA6K/hfBKjo7ZUAgAAAABAyAYo0Pn26WY7Eio614xVBB7NZmpGSO0oBUCv6WQDAAAAAJD9TQmAErTdNMZ5vUpP07EG+iquvcN8Df6cH3efv35xoSQAAAAAAAD0kU42QKfdGAkVXWsOk4ANn3G5MR2pwqOLGr/P1+O+EVIAAAAAAAD0kZAN0EmfGQnlpj50w15qwjabSgEAAAAAAECfGBcFdIaRUF8VI3pGykBHxPX5Nl+zZ6kZIbVUEgAAAAAAAGqnkw3w5IyE+ib/pwR0UHSzia42O0oBQI8NlQAAAAAA+kEnG+DJnG+fjlLTtcbYGShXdKA6zNfzy9R0tVkoCQA9PAsBAAAAgB4QsgFWqh0JFaGavaRjDdRkPa93+Ro/yo8Hz1+/uFISAAAAAAAAamJcFLAS7UioGAUVI6FiNNRAVSjQQgluFaOjPuTrXYcqgHoITgIAAAAAJCEb4JHFSKi83qYmXBM332trp/+TZxn+JK7zt/naj842A+UAKNtwPrlQBQAAAAAA46KAR2AkFNAapaarTYyP2lcOAAAAAAAASiZkAzyYtmPFq7zGqb6ONcD97eX94WV+3Hr++sVCOQAAAAAAACiRkA3w3WIkVH6IG+hj1eCJCHV13yCvGB81y4+7z1+/uFISAAAAAAAASvJXJQDu63z7dJzX+/zjuyRgw9NaV4JixF4RI6TsGQAAAAAAABRFJxvgTtqRUOPUjIXSPWR1dP2gJrF3nLQjpKKrzYWSAAAAAAAA0HVCNsA3MRLqyQkhUKPYV97n/eUgPx4ZIQVAoQTPAQAAAKAnjIsCvspIKGAF9lITthkpBQAFMrYSAAAAAHpCJxvgT863T+PbuDvJSChgdQZ5vcv7z1lqRkgtlQQAAAAAAIAu0ckG+Lfz7dP1vE7yj/9KTWcJARv4I+OMHt9marra7CgFAAAAAAAAXaKTDfBxJFR+eJnXSDXubKAEvXKZmhAIjysCfod5b4p9aev56xcXSgLw5GIvNhYJAAAAAOg1IRvoqRsjoeIm9kBF7k3t4PHEzdzoanOUHw+ev36hkxDA07EHAwAAAAC9Z1wU9MxnRkINVAXouAgEfsh7ly5CAAAAAAAAPBmdbKAnjIQCChfdt97mvWyRmhFSSyUBAAAAAABglYRsoGJGQtEjQyXojVFqRkgdP3/9Yl85AAAAAAAAWBUhG6jQ+fbpIDWjoGK0ypqK0ANe5/17vvfyXvdzftx9/vrFQkkAAAAAAAB4bEI2UJHz7dMI1bxKRkLVaKkE8Cfreb3Le98sNWGbKyUBAAAAAADgsfxVCaBsMRIqr528PuT/+DYJ2FRpOJ8sVQG+aJzXh7wPjpUCgKdwuTEdqAIAAAAA1E8nGyiUkVDwJHRK6a7YB0/y3vgyP249f/1iqSQArFC8N3f2AAAAAEDldLKBwsRIqLze5R+jc804CdjAyjx//eIoP/yS3ETrslFqutrsR6cv5QAAAAAAAOChCNlAAYyEgu54/vrFWX74Ma8j1ei06PT1Pu+b9ksAAAAAAAAehJANdFiMhMrrMDVda+JxoCqdfJ7WVaFfnr9+cZXXbmrCNgsV6azYM9/la/StrjYA3+2fSgAAAAAA9J2QDXRQdF6Im8KpCdfsJCOhus7z01PPX7+4yOtZ/jECN1cq0lmbqRkhtaMUAAAAAAAA3JeQDXREOxJq3I6Eepeam8JAAZ6/fhGjo37I60w1OivCcId5j32v+xQAAAAAAAD38TclgKcVI6Hyw6u8xklHFLivJ792YoRUfvglOlHlx5NkvFtXRcAmgjYRjDponzcAAAAAAAC4lU428ESMhIIH1ZnOJM9fv1jkFV1tDjwtnRb7boRtdA0DAAAAAADgm+hkAysUI6FSMwZqL+lyAVV7/vrFfr7mZ6npajNSkU6Kffhtfp5izNdufs6WSgIAAAAAAMCX6GQDKxAjofLaT03XGmNkuK+FEpQlQht5Pcs/buVlLFF3RfjxfbtPAwAAAAAAwGcJ2cAjakdCRagmwjXRvcZIKOih569fzPJDjJCaqUZnxf68l/fsCNuMlAOAO1pXAgAAAACon3FR8AjOt0/H+eFV8sd2oPX89YvoZLOV94c3+fHQ/tBZ8by8y8/TUX48aJ83ALiNMD08gX/8fbL2ne+rL379ber9HpRxva/f47y9ytf4heoB8Ajn0ui+/7f5bFqoIEDZhGzggcRIqPwwTk24xh/Zgc96/vpFfIj6sR1NZL/orp3Y0/PztNt2IgIAYEX+8fdJfL6+uf47/T52+T432r/233XzPy7axwjeXN78n7kZAo96zY/a6zqu7/9Mv4fnRg94jcd1fR24+eeN63uZr++lZwGA9ty4fq95fQb91D5+b7j7S+8/l+369Hzy/hOgw/6iBPB92rEiL1MTsKGffnn++sXZY/+XXG5M36UH+ANTrYbzSXFnWhvOO/G8dl58oN3K1/lSKYC+yu9Dxu2Zxecd5Pci+8oAd3OjE028H74O0nT5vfH1TfpY/3v9s244cKdrftRe98P2cdChz31xTV+217UOOAB1n0nrN86hn9Lv4e6uWbbLGQXQITrZwD0ZCcUN8Ro4Uwbuqg1tPMv7yWZqRkgNVKWTRnl9yM9TjI/aVw6gp5ZKAHyv9mZGvLf6KXXr5vq3ug4IjD75d8UeuUjNjY+FGx/w72tjcOOaH3X8mv/DtZ1/9+tQXXQVOHNdAxR9Hq198h50VNCvP0ifBNHbTjiLG+fUha5sAKulkw3cwfn2abwZixEiRrxw00puvOtk83UldrL5zP6y1+4xdFd8YN1qx34B9EZ+HxLvQd6pxJffD+pkA3/2Sahm1KPP0XFzPt4vXt+cX3o10LPr/mX6vWNNTdf12Y3rWgcrgO6eRWufvAftwxell+37z/9JTejbOQXwiIRs4Budb5/Gje+4AS5cw6eEbDqg9JDNjb0mPvSdJF2yum6W126+9n1gBXpByOb294NCNtD4x98n0aXx59T9rhWrtEzNzfk3umFQ6XV/HazZ7NF1H9d03MgUuAHoxlk0aM+hn9rHvlvcOKeWygHwsIRs4BZuePMNhGy64YfhfFLNBwbBviJctdf/kVIAtROyuf39oJANfXYjWLPp/eut4jOLwE33XsMlfN5+ll8ziw7VbJAfxqkJ1wx6/hKa5fU/+fk5q/w6ib+Nvi/48/sPAlG9e2/ytqBf+Zfa95BHPIs227PI/Zsvi/ec8R7iWODm3q+1t6nc8NZuft79/dr55/x7YH/zcoMvO98+jT8WHCZ/JIQSxIeqaj4kRHAj70Gz1IT8fPuim+JsOMzPU9xQiq42bpIAAL3R3mx9lQRr7vO5JQL1O7mG8fnlOK+ZG78UdO2Pblz7NMaxar+mIxjY/hsHhX5+j9fszMu1N34u6HddCtjc6Ry6vp7jLBKs+Tbr7Yr3n/H3yzfef97Z/xT83idCaEI2zr8uuir5/Pur1xp83vn2adzYPkn+WEiHDhwl6JcYRZTXL/nHZ6miAFGFRnm9z+fGfl7ODACgWnFTI6/44/yH1HQzGPvM/F0Gqfliz79yTU/a4BJ09foft9d+dP0RsPn6Nf0h1+qw7bBQm+OCf/eXXqL9eb/SvkcphYDNtz2vo3i/FO+bkskD32P9xvvPt23XC27x62/TWSr3/sy6zxm9Ov9KuqZnJddbyAY+ow3YjFWCjrlUgn56/vrFIj/8mNeBanRajPeKsI0PpwD9859KQM3ij7I3bmrEH+UHqvLgxvFeMsYWtZ1CoCvX/3W45sS1/83iBkd0rPrQBuhqqtsslXuTcVRp8Ik/K+3vMseesi+eQWufhDzHqvLg10oEbT60QXrh+dvPwFK98vT15pou6Tou+vwTsoFPCNgAXdR2tdnPP/6Qmhm6dNMgPpzmsyTWQDkAesO3wqhS+43huKHx3ufklRnl9a692SG8zVNe/8I1DyP2zgjQ7ddw87IdLVJy1w03GfuhpOd5ka+rpafsT2fQIDqC5R+dQ6sR9b3uxHYikPhFJQcCfK7oh5JGRRV//gnZwA3n26c7yR8OgQ57/vrFMq8YH7WVjBDr+geX9+25AgBQlPbmegRrImAzUpEnMUjNN4t1tmHV1/+ovf7d1Hw4Ea6Jzqdx83Jcwb+n5JuMYy/H6vew2LdKCsC/8az98flruydGuGYnGUv6FOfVOP0etvFlkhvaQECpQdO1St6D8PXzr6QwVfHnn5ANtM63T0epSesCdN7z1y9mqelqM1ONTn8wPczny/v2jAEA6LRPOlf4o3o3xPvId23YxnPCY17/cWPzbWrCdV5rj/cZ8aS9ngel/iN+/W16kR8uSn0O3GSsXkldbK7y9TTzlP0pXOMa7YZ4Howy/bOSgwE/e/qqVlLApvTOiB8J2UD6GLD5+CFXJbinoRLwFNoRUtHRJjrbLFWks+IP1O/yWXPYnjcA5b3ZmU8WqgD1ajtXaMffbaPU3Og4qWHkDJ3bA6JbQHSvMUpgdddzdAnYL/jfUHI3GzcZ61bSPjZz/gjXFHJmCXy3fv1tGsGAZan7o1FgVXtZ0O961o4gLZqQDTTijwkOF+5jkcr+wwIVeP76xSKv6GpzkIyQ6vpZ8+F8+9QfrgGATmjDNdG14p3PxMUYp+bmvLGkPMQeMGj3gOjsLLy1ensFd7WJm4yl/v3BTcZ697TNwt7PHPf4uVoTrinOKP0e+O77HlpyNxt/l65zT40AXEkhuCrOPyEbeu98+zTeEOypBHcQf0SY5fXD89cvnkXAQUnogvxa3M8PP6Ym/EU3xR+u3+az5117/gAArNyNbw3HzfWRihT5nvIwP4fvfaOY79gHrrvX2AOeVtT/fRsOKEb77eOS2/yPvfSqVFKXoot8HS17ePastV28hGvK3j8/dmPrcXfFWcG/+ysv4SqV1MXmoh09WjwhG3Co8O3ig89uasI1W3ktlYSuiddlhL/yj78kXW26bJTX+/Pt032lAABWqb2xETfWx6pRvAjYvO/5TQ7uvgfEDc63SfeaLvn4ZYz8vBwW9nsfFFzzl1529e1thb23Oe7hc7TZvgfdc/5UIZ7HCNv07jNFG5CbFfrrx5ctRl6+1SkprF3N+SdkQ6+db5+W9uabp7HI65cYx5PXUV6CC93kzeEN+XUa3yiLEVJHqtFZcQbt5bMoRkh5/QIAj6odDeXGRp3iOX2nqw3fsA98DGYlowK6aqcdH1XEHt3eZFwUWutBad2DuFVJz2fpnaDuevZcjyaMgOfAS7UqcV6dtGdX396HljwyStC0rj22tFGJ1Zx/QjZ48+2Pi3z5w84s/T4S6kxJKE0EwvKK7ksxQupCRTor3gTH+KiTNvwJAPBg2q4V0R0hbm4IYdTr311tlIIv7AXjdh8YqEanjVITmivleXKTka4oqVv9WTtyrQ9nT7wv+ZB8ObIPZ1evuivma3iRmskHJdrUBbMqJY1KnNV0/gnZYPOBP4o3Rl0dCSUkwb3k1/FFXj+2r22dmLprnFd0tRkrBQDwENpW4NG1Ykc1emOv/TbxQCm4sRdE0O4k+aJZKa5Dc50PRv7623SWyv07g5uM9exxg1RWkPi4B8/J+o0OivTofWh7fo168u8t9VqOs083tzr22tKeyzc11V/Ihr5zkHBtkddWx0dCCUfwXeK1nZquNjozdftDTnS0ic42vmkOUI6BEtA17TeHda3op1FqbnD4mwexF0S4RtCuzM+GpYzfmBVc57GXWhVK6mJz8etv06q/SNm+B42Ajb9r9fezcZxfhz0IMsb5V+o9G93c6lDStJZl2wGqGkI29Nb59ulIFWjfCP3YjoSaKQe1i+5Mef2Sf3yWym1p2QdxRr3PZ9W+EVIARRgoAV0R3+b2zWFS88fWt8ZH9XoviFFxb5MQQenXcQlBm5K7crzyMquCb/F7D0r37KRywqL30o69KfXLrCOdL6tQ0rSW6rq4CdnQZ5LU/bXM6yCv/2pHQhnDRO/k1/0iNV1tDlSj0z62WRUMBQC+xT/+Phkn3xzmk/eTEbQwEqV3e8HHcEbSwbkGnQ/a/PrbdJmaDtElGvRorEmt+13sc4OCfuWZ96D0yPX4w5o76pUcHBh7iRa97w4Ke69f3fknZEPfP6TSL/GB/3ok1H5HR0LBysQ1ENdCasI2CxXprHjDHOOj3uY1UA7gCXnvBB0WLdnzw4nPunxG/PH1nW+r9kp0sHGjsx4ldLQp+SajkRllK+lb/LO280VN7z/X2rGE3oPyNYe1hr7b8W+lfonb+Vf+Z7xSnNV2/gUhG/rsJyXojVkyEgq+KLo5xfWRf9xKbqB2/Y1zdLXZUQrgiej+Bx3U3tyIbw57j8DXXH+TWPCi/j0hbnSOVKI6cWPypKs3KH/9bRrjMpalftbW7avc90CprE4Mbyqrf7yneJd0w+Ab99qK34uWGjQdtN3AKFNJIakqRyUK2QC1ig/2RkLBHbQhtB9Spa1rKxF/QDo83z6NsI0bJADQc+0fqbXm5y7vJd/5Y3rVe0IEbMYqUa3rG9pdVeoNlNgb7YtlKul5W/7623RR0Xmz2e5H3oNyF4P2vWhV71XytT1L5X5x9Wcvy2L/DlDK/rtsw9jVEbIBahMfVoyEgntqR0hFR5vobLNUkc76eEPtfPs0Aje+cQcAPXTj5sZANbiDeO/4trabG3zcE+I59bz24LNgG6bqolnBdX3lpeV5e2THtRQ970H7qRlL6O9R3Pe96Ek76rYmpZ6BY93ciqSLTQcI2QA1vYl5ZiRUr/23EjycfB0tIqyWmo5QdFeMhYiwjW/dAUCPtDfT3dzge5wI2lS1J4ziOVWJ3hh38fr99bfpMj+U+k3ldeP0itv3BqmsLiqzSuoeZ82eVyAPYCe/nt5WFPAoOUjn78qeM+ffPQjZACWLLjURAPihHQm1UJJeGyjBw4uOUKkZIeX66vZr/+359um7vFwHAFC59lufbqbzEARt6tgTPnYnUoleXr9dDBiU/G1l3Ww8X4/l7NffpkV3W4+zJq8YUep9Aw/pY2fOGoI2bdB0YT9lBftxXDeDQn7dRXttVEnIBijRRWpGQv1XOxJq2ZN/t9FXPIm4xqJLVP7xF6/DThulpqvNvlIAQJ3abw/vqAQPSNCmfLpa9fv67dRz/+tv0+hksyy0nr7J7/l6LEWPymi7BsWIUt2eeAzxuvpQSTexUrvZrLfXOWX42fnXDUI2QElmqRkJ9WMfR0IN55MLLwGeUr7u4o9l0dXmSDU6K/7Aune+fRphm5FyAEA92oDNWCV4BII25e4L+6kJ29NPcUOyi2NbSr3JuGYvLGbvK+lb/Ms2fFZqrWOfeZ8EbHjk/Tc1HW2Kfp0VHjTVzaaMPTmulVJCplf5mpjV/HwI2QCd34iTkVDQGfkavMprN/8YnW0Ev7orPpTG+KiTvHyrFWAFLjemI1XgsQjYsAIn7U1LytkXuhqwYLV28muha+9BZgXX86WXVBF8i39150x0sPF3JVahiqBNwde8z5pl2CxoT57V/mQI2QBd1deRUFCECLxFV6n8YwRujJDq9gekD+fbpz4oAUChBGxYoZNKWvX3xaEScOPa7cwNl19/m8bfCGaF1nJkZEbn3xetFfa+aFZonQVseArxentfeFexUs+/NYH7IpQUMj2u/cn4m9cjPbZUgs6+CXmjYw2UIV+rR+fbp9EKM/7A6414dz+gRkeb+EbeltAiAJRDwOaL4gbudVfFf37mf3/9eXKQPj9O4qcb75OESv74vjG+Qfzs19+mulZ2e2+IfWGkEtzY63by2u/Q7/Sm4PMrRmbsell1Vkl/ezrL5+mywDNGwIanFuHRVOKombjm8+8+K/QMjL8dn3n5dXZvHhR0Bl6UeP7dlZANffa/StAZ199wOXbzF8rTXre/nG+fxpu8CNsMVKWTRqnpahMj+I5i9JeSAHf9kJzc0IOVEbD592fF2Hv+2T4uHyP80X4rfj39Hsr5qf3Pfby59DGg3QZtvF/s5t6wlnSx4c/24qZeV25o5N9jkX+fZaF/H4izV8imu14V9LsWNzZGwIYOKTZok8oNmm7G+0yfAbr7/BT0ux734QkRsgGeUnzYjpu9Z272QvnydXx2vn26SM036PZUpLPiuXmZn6stXcOAO/o/JYDV+MffJ/upnwGb+FwY356MUM1iVTeL2z8kLz7zPAxSEy78qX0c9OR5iBtsb/N65mrspPi85eYnn3PSses2brCUGAj7ODIjnw2+zd+990eDVE4HuqvSXkMCNnTxXMuvy4vSOixWEDQ98tLrpJeFfaavnpAN8BRigz12cxfq0wbm9m+MkBqpSifFh7x37fO09f/Zu3vlKJKsYcD1vbH+slewPcEFCCzMaRwikINwcMagMWQQYwBXIHEFAoPAkEFj4OCgcUQEDj3mWEgXQNB7Bau9g6+OOjUjGH70062uk/U8ERWw77s7U51ZVZlVefIcgY4A0B2lDEyfApan5R3xZdc+oJcgn3E5jhafYn4bHzhrLzM1bH/vVtsGsjl06/kQC58PtATfuW+HsbjXkfMZl/Es44K9khndlOn5N042vgiwoauyljLNGmga458gm24+o7O8f+70JRvS/7k0gQtyUAbnn248v3NbgA3Urb3H99ojdtA9Kvc/3RRpJqOE1ENNAQDLF4ujzSwTQR/eD8ftcfXtx+2fIpAjw4fzOMf2eNIeV+PdtrzjTivup4eRzcGd2a0+aSyA8n2dWdArCyxZA1XWStYUOtYvic41TamMEsApwIauOrw+S5BBJuMm5zfxKwnbug/uJjrXp33pFEE2wKJN2+NeMwuuedQeU03CoiaAmqB72nv+MLiuSbaDp4cvq1vv7r+OzDbuIwBYkvIx801f3g/ffty+l3BH6p8iy00JDvqp/KZJpX32wkJzp+bttWaxOSrZ9q2Dk7tSMqJ1ReaFlpHLqVPzpAiwyTIeXVjJyzm0qwCb+dj7wTi2p4nOPQd6X67XLO8KmQNNZU00JznzszDzO/5pKRcFLIqSUCxjsk0HlVJE997df/2yme3MHmiVThq2x4e2nyIw6rESUgBwccoH4zcVz2njvfBxh0qYzFX7u8btH+OSiSh2GY4qe8+Ka/OqO3Xp3iR/Bkzb4z/NbKEx3jX2TptKvjwrr5TrMv78d/nTZoHPRYmmcUeej3ttv+0l7aN4nm+6nDrjVqJzfZnoXN97hp5qDJuW4+A8C8kluP7SF+PZ4NgYx9fnpEelo7J8s3ya9L0gghrvueQ6861gLdFz4WWf+ub/uTzpq3f3X282/apzfxGOUn4/lbFmMfZXtz81AhS+aWV33bjm+ct8xDM8so+pQQ8cn4d4fn/f9XYuMtEMnMXNy+uxwDGs8KfFPVFtcM13+jMWSLYq69Pox033ICd8l4h7/vfmAnezliC3OH7Wl4fulQDALtxfoyZvKcTbbTt6L17+NRSLi/9NcroRfPGvJO0a9+XIFfa3uevh+FXGsOkS+mXQ/BVAakz7Sh+1/XI90fPrQ5MzkK0z8whjYKpn9b8SBcGdm0w2wDzEZDOicscyH1xIWw80A5m1z4nNd/dfxyT9hRfFzornzJu2n+JjolJ/ACdjxyFncvPyem3BGEfvLff6FlxzpAQVXC+L/tG/NewQ32h/z6SvfcoPxXvDb80SS6SUa3NSnqsxJseu35/Ln30co6PUw7hD18dW0n641eQt91GTtWTPwwzzz4eNAJtwVObpt67Mcco4Oj1+LR0LJL3VyDw0jKCDKD2b5Hxj3SxjoOmtDs0j+vyt4FKiZ/W4TwE2wY5/eksmhbmIiedTmQ4uzv7qtt113yGTTcpncUwSs35s64uD8qzf1BTQ+3mI+fP3PW7nIp6VnEpJ/fymop8U84bIePJE737Wzw/L8zP7nHfaHldr/Hgqk82ZHAXW7HT5mjgWcBNBJ31bmLzelUXj5Bkz/tW3RaMO3seZMkFcvagMXuafZxb987KMX9OE98OgjGt3m34H3KTItFLmIZ+Svgf8lPEeqWz8i7lTliCt633bkPF/LlHglI5KQv104/md6wJsgPNonyGHz5P2sBDTXfESuPHu/usP7THUHAAwH+UD+YuKftLhvE6Azd+VNrnalCwbicU1K9iy3w4D6cq9HmV0Or9jNc6vnGfcg9ebfu3KftChc3mcuB1Hbv2lz5eyBBLsJQiwuVLZ/PM049eTMn5FINSTrMEDcd7l/GNc+6k8X6c97NMX5Xruen8dJJ57rDUs290k5zntY8ZTQTb02Z4mON1Dsj0eNbPgmntKhwDzEmXm2iOeL9c9mzstXlzfv7v/eqs9ZB6CfrKDF+YrdhDXMKbGu2HsWrtnp/+3lQWR6+W9OrOHpWQB/RL3edzjkdFjM/HC5KSUl6gh6O0k1kqAQieegYnb/IFHgPY/oaddPrmSUeNF069s0nvHxq9HtWXlKPPLGJcj2OZ2T8a2z96nynXt2eD5W50yh8vy3vWyj30kyIY+8/HvZGJidvvG8zsRXPMkFsM1CbAI7fNl0h7xsfOxZ3SnRbmDT6XUF9AvAiFhTm5ePiwtVkN693EzK4sw0asncyyrzTTxz3ihJ3sjrtNYnPwpQ0mGU9yHeyXo7XpT/+7/Li2QZV2AGQguXKosmRTiO1bXM75vNf0pLxRz0+sla824Dz+4/Z07x8a2cU/6edAkKH2WONDU+Gf8O813gd4RZAN866UgHopKQgEXrn3mbDazhQfPnu463P307v7ryGwz0BwAcHLlQ2X2kjvxznhb9pqzKaUkMmfSGJRAMeoWmx+qXpwsAYJxL9Zc5m7UofYeN3k31Nz1SFjKnCkWGAdJTneny3Oiti1HTT9Kn8VzPYJrrvc1CPxY1rbIbtOHb6vDJPPSrIGmxr/lyZJJaKe2LGEnJcgGOC4ehEpCAUsXz5/2iDSnt5t+1hVO8yLbzLLabGoKAPixY2n6MzsMEIndsnr07GIhruw2Hif9CQ+6UoaGuZu0x0+l/MRBT+7Fo/LFNf7eS2VxvSuyPvPWkpQkqc2tROfa2XIw7bUb2Wu2Kr9WYn7a6+Car4xvUUrqdhnfam+TjXKdd7k/YvybGv84xXM7y7vWy772kyAboCmTrHtKQpHd/uq2CV9lSiat2ncWVvEy++7+6wi2GWoKAPj+mNnk+Vj2NeNmtoAx1ZXzUXYajxOeerx7benB6jwqC5TTHt6Lk2a267/G8phdClR4mrQN45m31nBhyqLuKMnpTkuWuq56Ua7hGsU6xr1SFmrizvn6+FYCu2vfyPgmQTBIxmAE499yZMkgNO3z5htBNtBv4/a4WkpCjTUHFbiiCeoTgX/tETsLM6fU74NBe0T5qCgjJeANAL5QykQ9TPwTHisPtRgl0OZewlNfK9c1+U2bWYaqJz2/FyOrTbx3jiv7aZ3ZhV4CuLK+1z9ouNDrNtG5djmLzWZT7/fSGLN+qrms4Zyfv7VvZBw03S/Jm/VaVTLq4o2SnGevs9sKsoF+igffv0pJqD3NAWQQz6sICmxmZe0s7nT7JSCy2jzUFADwmcxZPyK4ZlMXLk5ZIHriumYJDhfdOp6F4aLvx6wZpr6nSwELWcsKXOl6OZLKZApq6uTzolyvGxVeG9NmllnxkeDvU49vRyUSI9imxnH/YZcDwEugacaghKEysRf67I45W5YNrE/73FeCbKCfpkpCpfW7JqDvoqxdM0vjvaM1OuuwfMC7+68js42XMAB6L/ku4nt2CF+MsuiRra1j0Xmk99Iat9fdbYuUX70fs2aY+pZbHWrbeM5Nk7ajbDYXM28aJJo3jTv8DH1R47jVzAJDJ+6Ucz2HI8AmNjLWmNXmRcfLRmUNSjDf7+Gc7QcmfS8jLcgG+smuCyC1UkLqdnkhnGqRzhq2x4d391+r3Qv0wYom4GvKQlHWRTkBNhesLOxnCybf0HNp7+97muG792M8/2pZgOzaO9lL7ch3ZJo3dfJarrBM1MHRuCUwdG5j3FFWm9tNXRnDB12em5YAsWnCdlUy6mKe3REgNjL+5SDIBgBI68bzO5P2iKw2j7VGZ8XLwRvlo4CePO/ga7aSXh8CbJbY9k2uFP4D2Wzc37VKmmHqq0r5ga7I2qaXPO8uRJZgpmkXM6pUWCbqMOuKcWth49xh2cimrvJRnS4b1eTMZjPo2DzC+LdcB57JgmzoNxHPAJW48fzOZjMrITXRGp0V5aNeaAYA+qR83M34MdIC/BKVHdrZdhXLZuP+rvmevFfJu+bPHWrTaZO3BLTd/IudO8W8aZDkdLu6UL5V0SURz97rpbwRi30mR7bwmuYHXf4GmbWdb7lbzDGSX8NzJciG3rrx/I6JGUBdz/Vpe8QLYXwAFUjZTSOBNpCa+TOcXsZFjkcW4JevLHZkKuUjm00OAmzOroZyGsOOnU/WMgPDUgqSxci0iNu5QLEyFg8ruRbG7Zh1XXmoC5t7HpSg0lrmCYNSNq2TbZ20nUelnBGLeX4PEj2/X+oxQTYAQGVuPL8TLyk/NSKqO/tCJtAGclrZXfdxE06hLHJcSXbasZjxRO91Q0nfn6k/ZLPptscCbM51Px5lmMrsSpcWx8ozbpq0LR+4KxYyd4rrc5TkdHdKQGzX2q+WLDbjEvDBxT+bo91rafsHHQ6KfJq0TZWM0rZ7sovNCLIBAKpz4/mdg/aIF8LIbGPS1z0RaLOlGQCoXLaAg4nFjE563ORZhB6UMh90TyxWbmqG82nbcFLuycyGHTufrDuhR+6Ihcg0hnTx2n3YHjVkmbhnTrr08W7c1BFoc6mr72QlSCHjN2tBptr2qa6aEWQDAFTrxvM7k/a42sw+hMrA0C0P391/PdIMANTo5uX1WOQYJDrlaZM/Q0OVSvaMTIscPrx3TyzgPNIMc7snN5u82VdC1zKsZc2edklQYa/HkGnJxNSluWfMO2vIKKesYXfGu3FTR6BNlDgadvTcMgYrXFEycSHP8CtJvh/Eu+mOHpsRZANATa5oAr7mxvM7m+0fEWwz0Rqd8uLd/dfuWwCqUlL1Z1vkuF2COeigkj1jnOR0h+UjMd1w4P5eiMyLjj937Pl20OQt9XzXrTDX+dOgyfNdr4tZbGoIsHkiwKZzc9BxU0egTVfvj50m56ZQQfX9nVPseK/4iyAbAGpySRPwLTee35m2R5SPil3aUy3SGRFo494FoCbZUvU/UlM9Rz81eT7C+/DeHZERwLvPnJXAt6y7eLsYxJC1ZNSa3fy9HTvGXTqZkqVjlLz/o6yhrGvdHPPiek9fKrGL2WwSB5qO3Bm9bdOXuuovgmwAchElCud04/md+BgaWW2eaI1OiI+8G5oBgIpk2tkeO9HMiRIoH+GzpJRfKxmdWK5x18qZVCbrYvClrgWGlKCladL2HLkV5jd2JDnPSQeDF7N/U4n56D23QKfnoZtN3qxjR7Y6el4ZS0YpmThHpS0zvDtNy5yNQpAN9JPUzXnZYQpzcOP5nYP2iI+iV91XnfBQ2SgAanDz8vqoyVFLPUTQhgWNRMoCxzTBqcZHYh/el39/ywiw2Psx7sVx0tPv4jj1NGlbKhk1n/nTWqL508uOtd2w/WOYuPv3zEfTjHv3mtzfUK+Ud7Uuzicmxr9eu5XkPJ/qqs8JsoF+sqMMoDkMttlrjwi0yZR+v1ZbmgBIbqgJaHLtJL6nnnpKWdL1Kxnl/nY/mrOcxjhpWw7s5p+LLAuMB6V0jrnnnNqzPW4br1K53uTNPNbl+yVjCR6ZK+egtOEoyemO9djnBNkAAL134/mdKJPwU3tIp748w3f3Xw81AwBZJctiM1FGJqeyuDdNcKqxW1imQvd37fdj3IvjhKf+7w625UGTd/HmlrvhXPMnC4xnb7thkzvQ/14HS2/x42f17cQ/YdDRbDZZ5vdfGrkrzi1LoO5YQOTfCbKh75QIAeBQKSEVL4rZd2VktqEJAEgsS8psZaLye+me4Dvc3xcrYzabQUfPK2sZgpHd/OeSKRNQ167RzN9QnggIzantt1hTy1ySsqvz05faspeytOFvuurvBNnQdyLvAPjMjed3Ju0fUULqsda4cJHNxo5n6LaJJoC/Kxk7hklO96ldw+lFFsYM3zOUUFnCteH+vlilvbPNj650tC1j4TbrhsiRu+HMspQXnHTp+drOPQdN3iw2e21bPnLppx77niT+NjAsWaC6ZpywLWWu7MdzfCoo8usE2QAAfKFktdlsZiWkJlrkQj3QBAAYvxZm2swCNEispOrO8KFz4MP7hYrrwkaB5ciWgeWStvQe2wVlgTHLONG1LBOZs9jIuFaHe03eTeydu39KEF/GQAbj39ll2ZDwUld9nSAbAIBvuPH8zrQ9rid/cfSCAQALVEpEjJKc7mO11KuRZSFaGvkLvCbc38tRdvemavsOB8Cla8ti0NHMCF2XZXG2U8GtJThplLTPH5esVeQf+6ZN3uDeYbmPuiZjMIPvuPWPgWNd9XWCbAAAfuDG8zsxmfzJpPJCXHp3//VQMwCQyCjJeUaaZ3OZSpQFqmmCU/Xh/WLEArAsVcuV7fnayWw2iTJ1fY2gwnrHiJ2OBTGOkvZ3zEU3XfZVzUczl43qYjabnSTz+8/mEzcvr4/cDadTgp0HSca/qR77OkE2ANTkZ03AopQSUpHR5nrCF55sbmkCABLJsgNNGZn6ZMhmo2TUxdiRxWbpsu0+VzJq/tZKdjtOoG2rCLAZGG+rnnt+SZmoOj3yzO79GOg77ullCcxVKuo7BNkAAJzCjed3Ju0RWW1iocqH7MWwEANACol2oMliU6cs2R6GumrhBNEtWaLsUp1/5yptOUl4GcRirexdJ5dlUXavS+WNSsaIjMFcEQw6cdlXO/5lzKbX1ZK/Gd/Z1jpafqvLRgnO8aBkV+IbBNlAT727/9rOipzUrIWOuPH8zmb7x9Umb1rULhtqAgCSyLIDzQJ8hUrq7gzviHa3LpY07t3h3XB+su6cfqDrfqxkjxglOd2uZZXIWpbskSu/alk3InbumV0yE44TtqUg05OPgdFWGdZnx3rr+wTZQH/JEpDQyu66rBnQITee35m2R5SPut3IajNX7+6/Nk4B6eyvbgtk759RgnOMOYodaPWaJDjHoRIqCyWNe3f8pgnmo2Rfy/iOfUWJvBPJshjbqTlUyRQxTNjfTwSDVv/MjnslY5mjrpY1zTi3E2R6clk2IDzVVd8nyAYA4JxuPL8TH12ihNQTrTE3FmKAjCyq9EimHWjlwzd1yrKoP9RVCzGVxr1TJonO9ecM41fS68BCYz1ttNOxOdQoYV9H+8mo2A9PGtls5qKUVstW0SAClsz3f/wNIUsmt4ngyB8TZAMAMAc3nt85aI9If3u1UdptHgTZANB1dqCxdOUjfIYFjZ/11kLIYtOt+/HAu6Dxq1Ey47tKNpYsgelde8ZmLBX1VLB3r8bAjM/trj6zM7blXXdCNXME7xgnIMiGvvtdEwAwTzee39lrjwi0iYAbHxLOTjYI6KapJoA/ZfhAZgdaP0wSnONQNy3EWBN0jiCbOSnj1yThqV+6eXl9pAe/KUsWm2kJZO2EUtJmYJyi4zJms7lUMpR2zU7CtlxTIvaHMgQiKTd9QoJsAAAW4MbzO/FiedWkFKjMfzQBHC50DJscWdfsQOuHDBuIrvjoPnd7gujcjz2QdRyzm//bsuzif+qaOrexcapfEmezudXRtsz2TflSI5vb974hDJocGw92ZCA7GUE2dM6ra89G7eFBDEB6N57fmbbH7fav1xvZHwCgJllKRQn27YcsmTOGumquBNF1k/e+OXr7cXuctE2HZTGNY0q2iCztMu7Y+WRcL3nsqu+lccJzXnMPzY0g0/zPceWmT0iQDZ3w6tqzS+2x2R6f2v/4olEiAoCK3Hh+Z9LMstr4wAAAdcjwgcwOtJ7oUjmLH/hZb833HtcE7seeyBpQ9kDX/U2WIOVxl+ZQSUtFKVna33Ew+n2c7LQ7WTIqadlEQaa55wWRKVPp0xMSZMNSvbr2bNAeEVTz3/bYODZZ/KfWqaaPX8hMxAUygaOzbjy/c9Aem80s2GaiRQAgp/LRMMO88ze91SsZ5pc2VM3P1OJlt/tHE8zVOOl5j3TdZ/OnS4napGtzqIyZIWRb67eM/X9LWxr/FjgGZgmWlMXmFATZsBQRdNEe79u/fvrGA9eHl3rEwPEm+juCqjQHF3C9QafdeH5nrz2ifNS99rC7HADyGSY5z4mu6pWpe6dXZLFxP/ZGCSjLeM13MjPCEmVpiwhi7Nr1lm38PCil3ujvc3uScCwcdrQt417K9v1Yyai8beId4xQE2XBhSkmoh6Uk1JvGx5W+if7+EGXBNMX5X1Q0AeR34/mdeEn6qcm7Kw8A+ipDqQNZLvpnP8NJ3ry8PtRVc/G7Jug0afbnL2tWDAuNf3ngWjvTuDlo8m1IHrvcafJlxBiUbCPacj5tKcj0c6MMz27lpk9HkA0Ld6wkVATXbDUyTXRmoFvCvzPSgm6010ME2wx1wZn5WAOVKCWkIqNNZLaZahEASCHDu8xEN3lP7CiZi93jffA/TTBfJbNIxnfmtRIk0WvJAkXG5p3nplQUIWNGjK7eb+OEbXnLLfDnGBgBR5c8u+sjyIaF+UpJqEtapVOW+YIXL1VRPupFZDjSFUDf3Xh+Z9IekdXmcSNbFUBmFo8rV3Y3ZniHkeWif7IE2azoqvP3tV2mnTfVBAuRdfFnpOvSZLHZ6WAmwJ+zPf/aNrRBlKNSf9muhVsdbstsQUuj9t3Z2l+Hr6uvPLsnuup0BNkwV0pCcYaXzE/t9eJlE6A5DLbZbP+42tiZGizAABn5iFS/LIFUFjd6JlHQhWDE8/Ou0H1TTbAQT5Ket5JRTZOlbEgXA7mGyfp6x+VOx++prPdbxkDT3peMKoFGowSn+rTh1ATZMBelJFSUgspWEspL7/LFIBMZbSKzzUBzAH134/mdaXtE+ajbTb+z2lioBqCLUuwmtoO4tyYJzlGQzfntawL6qAQTjhOe+qCUiuil8tsHCU51WsqSdantBk2edZYjyo1wXLqgq/a+G3Z0DMxYNvGBWyBNoNFYV52eIBvO5dW1Z8P2iIw1EVzzsMm3IDbVi50Rk5fIarOphBTAYbBNvDzd1hJAx0w0AT13xX0K51PKruEer5lyXouTdQH/Vo/7LMtv72IwwDBZXysVxWeSlozq8n2XLdvIlRIs2GcZstntKEV7NoJsOLVSEmpUSkK9b6T8Yr422uNDBHBpCgAAoGMyBAf4QNZfWRYxBrrq7MqCFd3uI4vMi2vbSZNz0+SolIzolURlMkIXF6+zldGeeErxFb8lO98u33fjhP3f22w2JcBomOBUZSA7I0E2nNgXJaFeND6KcDJn+bAQ11aUj3ojqw3QZzee35loBQDohq6mDv8KpWT6639JzlMmm7PzfgD5dvIfGfWwr7Jszp10NIBxmKy/f2sg/9yls/dd0rKJox5f+xnGwM6VSsxEkA0/VEFJKJbrPB/5YhCKElIPNSMAALBkWQIDZLLpryx9v6KrzkyGFMi5kz/0cTd/lt/c1V382YJSJx5PfKlkIMvkUsdLHL1M2J59rYaSYQyUxeYcBNnwVR0oCWVXE38Owu2x1V6LUULKdcEP7a9uD7UCAAAL8O8k52kRvr+Ui6rf/zQBfZd0J//hsy9RVrxzK4vUKcpsttfUuIPtl+1a2Sv3JnzNJNvzusNjYLTlNFl73u3bBd8+w68keecZN5yZIBs+U0pCbTbLLwklWw5fikEpAm22lJACAACW9E4CuJeWaaIJ4FDWndd9WmgcJTnPcUfPa2B8oiK/JzvfYcfP73Gy9ly7eXm9b2t6Gcb7rpZKTEOQDYdKSagIqongmo1GkAvdFaWjIthmrcdtYOADAICLJzAA5qSHH9rnRZYAaP7cyZ8xc1ufFhqzBBQ97eh5ZSutuO/JxHdMkp1v1++/nYRzwlHPrvkMv1epqHMSZNNzpSTUh2ZWEmqkRXrl58TnPmiPN+21+z6yL/Ww7/7j8gUAgAsnKADmR9DaGbz9uK0cHPzlacJzjrlE9RsHS6mjQYJT3evwLv5s46TxiZquj04/v0pptp1kbdqbTG7tGLiW4NtBJ0slZvMPTdA/JShh1B4PGh8JyS1e2CKrzdNf/vh1U3MAVMUcBcjoZ01Qp7JYlMVWe76yXWCuVx/3NXwuFhi3Ej5P4pv8uPK+kcXm/AaZOlwQKD+4Pg7a95Npous6Q5BbPL9GiS6DK+01cKUnz4pbCc5x3HBugmx6JEpClQnuSGtQkXiR3miv7xi4Hv3yx68TTQJQBbubAejae4cxFOZ7ne5ohlOxgAnHlEXbeI6Msj3/al5oLOWwMmTr6XomiEGibp94InHCeUya67p9lg06nOnqMLCtPce494aJroEIMr1X80VexsAM85KnDeemXFQPKAn1bTee3zEBrEd8oIvyUVvtYUccAMBi2EVPn983AIBuybpI9KDiPslQJiPslJIrnRNBWMn6fOpRxAnsJzvfQYJzfJlwfKhdht/Y5VKJqQiyqVQEGbTHZnv8t/2PLxofBOmPh+3xKYLLNAUAwHyt7K7bRU9f/VMTwFwpr3d6xmD4QskGk/HeqHmhUamo88u2gfQ/nkZUOI8ZJBgDx02ujVCXbl5eH1V+nWcYA2WxmRNBNpV5de3ZlfaIoJoIrtlo1Lhm+ZYxyMd1/6K9FyKzzUAXAJ6jAMA52bgCLNv/NAF8VcbFoioXGqO8SpOjdMlex8t1ZZt3TjyGOIFs3zcHSc5znKxdb9V6gScZA7teKjEVQTaVKCWhohxUlIUaaRG69NKyxH93DGiR1WZTNwCeowAA0BkDTQDMQ8Kd/EfuVtgdoyTn2fUSK9k2Ttscxkme1ZNkp/zvJOeZLdB0rQSj1ChDlrrOlkrMSJBNYsdKQn1qZiWhhrX9Pr3MnGzEfdIeQ03RCwNNAADAnMlkA97bls0Hcfi2ccJzHla40HjX9TIX/87U6R3PCgRVz1Xb+2/a5MtMUmvJxAcJzlGpqDkSZJPQV0pCDSr9qT5iMu9JUZSPeiOAywQYAABOyTsEsGwWMeHbsi4aPailA25eXh82Ob7JjRPs4h+4panURBMsxMtk5/ugtg5ox8ArCZ7de4Ii50uQTSJKQsFcRJRsZLV5qCkAAAAAILeyk3+S8NRHFXVDliw2L90xczXRBFQqTRKAdgyMTDbTRG07KIGZNckwBhr/5kyQTcfVXhKK5Q5kPf7tsQt1K4LWIjOUlxcAAOBbbl5el8UGFnNvDbUCMEcZF48utc/C9GUzylwpw++Yvv24PUlwngO3M5WaZno+GwMX6m5l1/YowTmOPYLmS5BNR7269mxQSkJFcE3NJaEwWV+mYXt8aO+1LSWkAAAwx+YblDIGgI57+3F73P5xkPDUa1hojACbDN9Ws5QVy/ROcdDAyf1HEyzMk2zjRi2bWUqwbNd/S4ZSiekIsumYV9eerZWSUBFcM2rUfYeLEKWjIthmTVMAdMe7+68HWgFIxnMLAGB5niY851hozD6HzBIoNHaLzN2+JoDlKwEUmZ5xWTKgncStBOeoVNQCCLLpgFIS6mEpCfWmURLqooneI8TL7Jv2PoxjoDkAOvNsBgAAgJMYJz3vUdYGLwFCwwSnumMXP3DK51u2jKZKRl38NXIpwRiepVRiOoJsluiLklBbjYWkZdnTBBwT0bOR1WZTUwAAmD8DAJDD24/b0/aPnYSnnnmhcZTkPO3ih+WbJjvfVJVGSiBFpjYeVpDJLUM2HuPfggiyWQIloSDF5GmjvU8j2GaoOQAAPmMHKADzevcGmLeMi0mDm5fXs5bNyBAgFLv4d9wasPx7URMs3ONk5ztK3t4ZxsCx22IxBNlckFISaqQkFCZOqUQ6wPftfbsV97CuBJZExggAAGp0RRMA81aCKaYJT/1WthO+eXl92OTIzv8yWZsCnFWMgZk2RqXN5JakXOJOyfLHAgiyWbBSEipKQUVwzYtGSSh65pc/fq3hAf4w7uEIlNOjwBL8TxMAAADAiWXMZjO6eXk92ya/LIujY7fEwkw1AXTH24/bEWCTKXNX5kxuSkX1nCCbBYkSM+0RGWsiuCYW6GXBOD07muiSuIdfRKm3CJ7THJ22ogkAAJijoSYAgFTGSc97lOVES0BQhgVGu/gXS9tC9zxNdr63krbzg64/n5VKXCxBNnP0RUmo90kmmV0mMIkuGjazrDabmsKzAwAAAIBuKUEV44Sn/iDRucbaR4ZvcHbxA30bA/faPyaJTjldJrf2fCNJxKDjpynAZsEE2cyBklDQSxsRUBdZq5bw7z7Q/AAAcGH2NAEApJMxuCLKZgyTnGuGUlEHdvEv/prVBGAMnINsSSsyjIFP3QaLJcjmHJSEIrt3918ryXX+l4goH/UmMlld1L90ZXfdR34AALg4gtwBIJm3H7cnTc5SNp1fuLt5eX3Q5CinOXYnLNxAE0Anx8BxsvfYB8maeNTx85solbh4gmzOQEkoKiIwbD7iORBZbR5qCgCAfttf3RbIDgDQDRl3ca8lKJsx0v+LUYLDAOZhnOhcr5QAzs5rzzNDuUSlEi+AIJsTKiWhNtvjv42SUMDfxaC6pRkA5mqoCYCk80IAAJZvnHQu2fWNvRnKZNjFD96V+y5boGGWbDa3On5+ByWTEQsmyOYHSkmoCKqJzDUbBoEqKb0DAACneGHXBAAAdN3bj9sxbx0nPPXOLjTevLw+bHJsQLaLH7onW9bX1N8+SqDhJNEpj7p+giXTXNfPc9xwIQTZfEMpCfWhmZWEGmmRqv1PEzDHZ8dAKwAAldvXBAAAJJEx2CLKZnR1MTpDFhu7+IFza58jNWzQz5TN5lIpxdRlawnaUZDpBRFkc8xXSkJd0SrAKQ00ATBnMkYAAADAGbz9uD1pcmYy71w2m7KDP8MC444r/8KsaALo9BgYz8NpolO+6/zOZa+S4LAUBNk0SkLBBZhoAoCzT441AQAslYBXAMjtacJzXuvoOV3S3ws3TXSu1tI4jX9rgqXIlNlkrQR0dk57XoP2j6HxjyO9DrJREgqgSl7uAACYGzvBACC92MmfLWg2ymaMOnZOGUpF1bCLf+qWpVKDROda00aLcbLzHXX0vNYSXLMyuV2g3gXZvLr27FIpCRVZa5SE6rafNQFwBp7rAAAAABx6+3E768JTZ4JakuzgD3bxX6yhJqBS1Wy0aMfAaZMr0KarAZ0POt5uO2W+wwXpTZDNq2vPBqUk1H+bWUmoge4HAAAAAIDqZQy+GJbgli4YJWivWnbxT92uVGqoCZYmU8moK+3Y16mN1OV8BvqY46oPsimZayK45lOjJBR8SVmdvKSsBwAA828A4ARKCaGM43lXds5nKBVVyy7+/2Q62a4thsOcTCsbAyfJflPXssZ0fQyclj7mAlUdZPPq2rNRI7gGvscEOC9p3wAAwPwbADi5jNlsRss+gZuX14dNjsoAtZSKyjbvtJGXkz5HMvlPhd2Q6Rm5Zizu5fiXSrVBNiV7zQsDPABAWv/UBEBCQ01QJUE2AJDc24/b44Rj+qWbl9eXvdiYIYvNtGQrqkG23+H9hxM9y7z/LV2mMTDGvlEXTqSMwZcS9C0X7B+1/aAoD9X+8b6RoYN+D5YAUAPzOQC6Yr/p3m66b7kuVTQAfNO4PR4mO+cIctlZxr/45uX1S0nmQDXt4s+2XmGDFCeR7RtfdeWCo5xe+0yPsWSU5JRvNd0IHrnV9XlNJaUS06kqk40AGwyWAACwcFNNAABAUhmDMdZuXl4fLOvf3eTIQDGu5QJNmJHHehwnsZLsfKfGwF6PfYdKoOmo4+30m8fLctRWLmrLgA4s2VATAACVm2oCemiiCQAgv7cft6dJx/XRkv69GUpF1biLP9PvGXqycAKp1m7LWFHjGBhBfJkC+dZ6/u//kSiVuNOwFNUE2by69uxhkyfFFfTNVBMAeIYCAABAB7xMeM4XHuxSMggM9edSpMpms+xsE3T++ohsIAP3X2dkymbzoG9jr/EvjyqCbF5dexYP5y3dCZ31H00AcDY3nt+ZagUAWK63H7cnWgEAqhnXx02uTCFhcPPy+vCC/52jBO0yrXSelm2Rf9jAt2WrQDI1BvZ67DuUJNB07PGyPLVksnmhK6s00ATAWeyvbisdCADAvGX5EGkuDAA/9jThOd+t/N93FrXu4s+2aXXFI4XvGCY73/0e9MnY2PdDXS8VtVNrWbMs0gfZvLr2bNiIkq3VQBMAZ3RJEwAAMGdZdhSbCwPAj40TnvOolF1ZuJI5YKAfzTtPaOiRwnf87P7rnEyBpmsXNfZ94UHH20WpqCWrIZPNA91Y7STynmYAAACgQ++pGfxbVwHA95Xd3zsJT310Qf+eDFlsqt3Fn7AE1pUlLYKT5Prw3tfJMTDLcyaeLReaVaZ9nsU1O+hwmxy0fbjTsFSpg2xeXXs2aLqfrolTTozb4/ovf/x6tT3GmmPhpHHM63dNAAAAFypL2v6BrgKAE8m4C3zhm45LsMSa/ls62WxIr2TFyhSAddCjEjyZstkol/i5safL8mXPZCPApg5R1/5Je/z0yx+/3m6PiSa5MBc1uYn+fay5AQDoAVlE6pVloeOKrgKAHyu7wKfJTntQdtgvUqy7dH1RfNqDXfzZgmxuearwFUP3nTFwHtdRO/YNLvDfN+p4ezxtWLrsQTY/68LU4uEdJaEiuOZRe0w1SZ3avj1oj83o6yZPCjoAls8iIZDRQBPUKVHa/ksX/AESADKTzebv7uq3TsiWyXzoccJX3HLfeZbOyegi/iXtu3TXA00nPcq21GnZg2wM2jkdlYSK4JpxBGAs+Xw8jC5IBFK1x/VmFlx1oEUA+AH1vAHoGtlsAKAu44TnvFZKOs1dCdQd6jfzzjO4iCxLJFKeJ9muiYkxsLPuVvbvOauXDZ2QNsjm1bVnMYm08JJHZ0tC3Xh+Z6p7LlYEVzWzrDY1vgz9Uw8DADVb2V2faAV6TJANAFSk7AbPVnYo1kXWFvTPHiX4/b3Yxd/+xph3ZtuoereBvwwT3neTHo6B4ySnOyhZZhamBLCudbgNDhLOWaqVOZOND0Y5xANaSSj+ppSQimsjMtvUVOfSswkAAOq1n+Q8ldcGgJN7mvCcF1UySqmobpkkO9+1Bv5yy/2WwkvXVJpn2M7bj9uqhHTE/2kCFjgY3e5QSSg6KrIatcfV9q+PGyWkALzkAYAxeR6GugoATqZkLpgmO+0r8y7N0/7zYv4w6PjvPmj7a9yjy/P3ZOerZBRHz5N4lqy534yBczZaVLnE4kHHf//Ths4QZMNcJ7jNLK1YBNZcbw8pqzix9nrZbP+IYJuJ1gAAALqopO1PYdGptAGgMhkXru52/J+3COOeXZc7rkuSyvguMjEG9vfaKoFhXQ4S3Mv0PaIPBNkwD9P2eNTMgmvuKQnFWcW1EwFa7V9vN7LacD5DTQAAwIJMkpznLV0FACc2TnjOo3n9g0pmgAyL4r3axf/24/a0yZdladRA9zOCfOmgZHQxBvb32ur6s0sWm44RZMN5xIBzVBLqiZJQzEvJgvRTezzRGgAAQMdkSSM+1FUAcDJvP24fZWnP5NLNy+ujOf2zIsDmUsd/76QEnfTNTsLrUkbFHktSei77fdbnMfBKyTozb3ddo5yGIBtOS0koLkQEbbVHZEiKElJSoP3dVBMAAMBSZHkPHljgAIBTeZnwnO927J+jf+bv94Tn/KChz+66z1LKlCllrs+Y9r05ykQNOvx7xyUQig4RZMNJTRsloWo07PoJttfaXntcLdefQeTzexIAALhgpQ56lncTJaMA4ORj/KTJ981teN4d/eV/P+z474y5105Pr8udJt938eGCMk3QcaX03Cjhqfc+oUB5z82y4X3e11jXAwNfNnSOIBt+JF4s7ikJxbLF9dfMstrIngQAQJdd0QS9eVfOYK186AYATuZxwnM+7+LgKMFv3On5Lv6M38Q3PE566WHG+0uWkD9lyWYz77J0Xc4AOy1BwHSMIBu+ZdweV0tJqLHmoAsig1J73G7/er2RyQWgF97dfz3UCkAyAhr64bdE1+NIdwHAiWXMGnLexcEMpV2e9vy6/C3hOY8Ee/dL6e8H7i9j4AW5O6frdq3p9necpy7LbhJkw3HTZhap/69SEmqvR799ovvzaK/N6K+rTc6dJQAAtbw7QJ9leod8oLsA4GRKNoNsWUMGZ93R3/7vhvG/7/jv2ytlTPp8XWYM/goPG/ok+jtjYJXqCZ+PgeMkpzuvrK1dDzQduzK7SZANYdL8VRJqU0koMojrNK7XZhZsM+nQqSkPAAD0wVQT0GdvP27HPZBlsScW3kZ6DQBOLOOu8bsX/L/THxcvYyDAA9ls+iFxFhulonI/c0dzuG7XXJ+chSCbfhs3SkKRXGRcimu4/eu9phvR/F4agEUwmQaA7nmZ6Fw3dBcAnEzJmpItc0rs6B+c5n+QYHHxiCwTMxmDjeIak82mH7JmsXmp6/42Bk6bPJlbzxsouub65KwyB9ns6b4ziUW6vpaEomIlUOynRuo0oE77mgAAOifTgo9sNgBwOhkDGk471sfiYtcXxcd28c+U4K9pwlPfOG0AGLkkzmJzUEqx8XdZgjuutNffeapLdPm6nbo+uy1tkI2SRqcWE7AIqvmXklDUqpSQiow21xslDPru35oAAIBFSlYyKmxI1w8AJxYLW9m+od9d8H9/Gezi/1zW0lmyKtYt+jfje8ZY133zXTfaZprkdM8UKFOC/650+HcZ/zpOuaj6xYMwykFdVRKKvmiv9Ul7RFabx1qjtwaaAACAC5Dpw1fMkaXrB4ATKNlTxslOOzLXDU/yXyyLi8OO/57YxT9xNX5mnPS8Rye9NsmlPEuyvmM81YNVvOueteTTyPOe8xBkU6ejklA/lZJQJqL0UmRtamYlpNwDAADAImRL3/xAun4AOLGMC7AnzU4z0v75JA3+OrKlB6v0Iut7XMlMyrdledZcOmNp5C5nc5u4PrtPkE1dviwJ5Qbkh97dfz2o+ffFfdAeUT7qdpMvxes3reyuT1y9AACwXOXDV6ZAm0jjboEDAE4+zk+SnfbohOUhM5SKGrsKvypr8NGV9trc1H31KIENw6SnrxRPXe+6t0557UaZqIHrk/MQZFOHmGwqCcVZDfrwI9t7IyYDkdXmiS4HAGCR9le3L2mFXvkt2fmu3by8vqbb6hWLq+3xoT0EVAGcX8aFrtEPxolh0/1vwuOStYUvtO0Sm60nSU9fVsWK5ptN3uD9KEW3oxdPJEtQ39opny0POvxbDtrrc+zS6z5BNnkpCQWn1N4nB+3xqP1rZLbZ0yIAKVioBjK6ogn6o3wAy7YI9OKEu9zJaas8hx62/fxeXwP0bpz/0eJhhiw2v7n6vitrNpuYk7zRfVV40+T9ZvdY9514DJy0f0yTnO7agv67F23systBkE0+8TC718yCa5SEmm+70hMRlBaZn9q/PmoqKiEFUCkL1QBkME52vvFB/IVuq08pwzA69n8atsenkrUAgH6M84NSCuNr40TMAbqe0U6WiR8o7TNNevrKRuWfbz5s8paJkiXk9LIE9T044fW71nQ7QOypSy4HQTZ5xKQpSkJFcM04MnJokrn6jybon/Y+itJRV5s8dSUBALpCVkD4XMYPYWvlAzmVaPtz1P6x8ZX/V3xEfm9BC6BX4/y3Fhu7vrgYXrrkTiRzNo4NAcBp55sRwJe5JKkAhtMbJznPwQmfK13O5rb39uP21CWXgyCbbotAmggCiMCa20pCwfxFNqi4v9q/xjGXwevVtWdeEACA2v1PE8BfyoewjO/sW9/a6U4uZUfmj7ITxYLWG+WjAM40zmfbpLf2jed9hlJRY1fdia7LaKdp4p8Qc5KBnkw138xe7utozZXTPWsOEj2X757gGu5yNjdBYIlkD7KpNZtLTIyOSkI9UhIKFq+9z+JF+apJVjUG+6vbPhxTExkjAKD7sn4QE3SRXAmUOmn5r/io/EFwFcCpZcuu8reFxBLQMOz4ee/YxX8qmbPZXDIPzffe0B6DzO9rJWCEet91137wTOlygE1cm6puJJI9yKbKBScloWBp995BBLY1s2CbiRZJLSb7n/ZXt6W/pxbmBADQcW8/bscHsWnSufN7PZhTCZaJ/rt0yj7/oFwYQPXj/Jclo0YJzlmpqNNdl+Mmdzab7KWH+jTnjIDuYeKfIIvN+Z41sR6fYU3+R5lqHnT43HcEgeWiXBTAF37549e99rje/vVRY2E7s5hQbe2vbr9vD7s0AQC4CFl3E18pH85J5IwBNsdFubAXdpADnFi2AJArX2Qu63qpqGkJZqIf888jI/PQzs85IzB7lPxnyGIzhzZMcp53v3EdD5pZYJ/2ZS4E2QB8wy9//BqRzT81UrRlN2yPD/ur25tKSAEAsEhlN3HWj7cWOBKZQ4DNn/0e/xzlowBOZJzwnO+WcWPYdL/Mi2+wZ59/TpP/jJEMe52dc8ZcMXu2obg/ZLGZzzM6w7vusATUfO29p6v2SrYgEhFk00Gvrj0bagXohlJC6nb71+sdfFkReX06G80s2MYzFgCARcq8A21UPqTTYXMMsDly+M/T9wDf9/bj9rTJFwhy9Gy/m+Bc7eI/u3sV/IYtc5HOzTmjP2oIwn8si81cxsBow3Gyse+4Lo+DSiUmJMgGsFvtBH7549dJe0RWmy6l3xTZenqD9ojyUW/aY6A5AABYgNglmfkj7gsLHN21gACbI5dK38tmBPB92QJBLpUMIWsdP89JCWLiDNq2m0QbVvBTzEO7M+eMfqhhXrhXsj3RrzHw7lfeoQYdPl/XaEKCbADlc07hlz9+3WxmJaQmWiO1+LAQWW2kIQUAFmGgCfqr7PDLvhPbAkcHLTDA5rjIZvThGynWAYzzs2CGabLT3mi6/w3YLv7ze1TJ74h56KbuXOqcM94DXrgv+MoYGOPfJMGpDtrr+Hhw6YMOn+tYpqWcBNkAnNIvf/w6bY8oHxVpOA1+ecXHha391e0ItpHRCbprRRMACQ00Qe9lz2YTYoFjS1d2wwUF2ByJf9eHLz5MA/CXdNlsOn5+BzJNnF/bhntlDlqDDdn1ljbn3GzqCbDZKYGRzFeWoMhbx/6+pj2ZN0E2MKPsDqf2yx+/xstfZLXxEpjb4Qfk/dXtCLiR2Qm6x30J3STQGL6j7ESrYdfkQwscy1eCXS4qwOb4HOyNQCuArxprAu3ZUY8releL7HoxF/Fd6OLmnDHv36jk59TyPtbFd91xkudMPEMulXeprj5HpgLB8hJkA38NuHBqv/zx60F7REabyGxzFKw10DIpRemoT/ur23ZrAsCPCVKHHygfH6cV/JT4OPneAsdylHT9b5rlfRh+qP8B/jbGx7fksZaYG7v453tt1hRYcBhoXDL6sbj5ZgQifIh5f0U/62kpbcSC2jfJecaaT5dLRRn/EhNkAzAHv/zx66Q9rjaz3QI+PuZ1uFtzf3X7fXsMNAcdIhgUAHKqZZFj2MzKB1nguEBlN/GLjvT/p/Z8hnoF4E8WxuZjr5Q5Yk5KoPekop90WDJTGcuFzTcP53mlnWt6rmzq3YUaJznPjfIuox2Zu+xBNlNdCHTJL3/8utkeT7REejHxihJSJuN0wo3nd3xwAoCE3n7c3mnqWeQYNLMFjpGeXayymzjKQ3WprS+V/veOBDAb42N8n2qJc3uqCRYiMq/XtGHrzzKWsuvNdc4Z87qLLkl6Udc/ix0DY/zb0RLnsiPbUm7Zg2z+owsBWODL28b+6naUkBpqDgAAzqimj7wxR34RGVYscCxGyRYU6fq7+g6y0Z7jG/0PcOixJjiXCAKxSLsAZeG2xuszSr98kF3v/PPNUh5qo8Kf90R2rAsjo5v26zXlogDg+wbtEeWjXrSHD8kAAJxKpYsco8YCx9yVLEHvyztIl601yocBhAgQUd75HO3XzpO03+LmoJFtfVLhT4t50ntZbc4839xsZgHdNc7jokzUI718Yc+YGAOnWuJMpqX9SEyQTTeZGAAn8bsmuFCj9oisNiNNAQDAKcUix7Sy3zRoLHDMRSkP9aL9axyXEvV/BNo81INAX5UAEYtkZ6dU1OLVVjbquKOsNiPdfKL55rA9PjV1Zq85fr3jOZ6BuUMFBNl0k51AXKR/agI4scP0+Pur25HZxrMaAIATKYtwtX70jQWOTzcvr6/p6dM7Vh5qlPQnbCkfBvScBcaz2VPS5ULmoNP2j5ozewyaWSnT9zIsfnOuOYj2aXJkSzyPx54pSzHWBOYOfSXIBhAokPhlVBMsTby0fdhf3d5UQgoAgJN4+3F70tS7Yy3mxG/KAod3zBM6lq5/kPynjJpZViN9D/RxfI/vc77Rnd5LTXBh1+i4qT9rwrDMRWI+OtDrfwbXRJbET6V9ajZpr/NNvb6U50tsJhlriVNfr1PNkJ8gG4C8DMTLF+k1I9hmqCkAgGN+1gR8Q80p+0PMiz+UzCYD3f11EYzSHh+autL1R4DNeyUbgJ6yI/30xprgwueg0x78zsis+KkE2wx7Os88HlzTh3lZvFvddosvlaBJ7dVLgmzgr4EYUlnZXd9z7XbCoD2ifNQbWW1gIYaaAIBalJ1+ffgIPGpmCxyCbY6JkkrtsdXMstfUmPXlsLyuQBughyJLiG90JzcucyIufg7al3aPYJv3JctiL+YlEVRUykL1JbjmyG3Pk6U/XyaNjG4ndVCyi1EBQTbQuvH8jgGArCaaoFMvb5/2V7cfagoAesD8Gc6ofIR80pOfO2r+CrbpdSmhssATix61vy/E+LDjTgd6NrYfePadil38y7lOY4x+1LOfPWxmAcAxH92sLfi7ZK15GL+v/Y/vm/5tVHtc3q1YPhndTmasCeohyAYgt981QafEzs2t/dXtKCF1RXMAUKuV3XU7xeB8Hjf9ClYbNbMyUr0rJxS/tyx8vCjvCzU73CVvNzHQ47GdH5taFF+ekkFh3MOfPmhmZToj2OZDCUwZJJ1bXirzyzfNLIB7q/y+vomMWJvu6s6Q0e1kBJlWRJANQP7JC90TATYRaLOlhBRzNNUEAFCHEoRwr+nfh8hh89du4q2aS0l9EVwz6En/RoCNOSvQ17E9nn8TLfFDsh0s/1q91/NrNb7bRmDKUcBNZLgZdnxeeaUEBkW2mv+W+eVaj/uwj1mZMrzfWqv6wXVbMopRiX8kP/+YCGzoRqCvVnbXp/urhwOzrCndFKng19o+etT2lUkm5zVt+rkzBQCqFB/Ybl5ej4/DL3r48wdlrhyLBfE+Ezv6drIHaJSgoVF73O3hvO2ezAQAh+PZUDN811gTdMLtZlZeqO/flK+UY6Odx8V/jrnM7+XPvWVk54tMNeWc4lmyUv60ifMvMid21+PyLsTXCTKtzD80AUAVg/MLzdBZg/Z4s796+MH5XgRGaRIAAEKk7L95ef3npt8fI48WN7aOBdxMsuzyKwshsZM4AmuGPe3DJ6X8BIBx/fJ6ZMiwIP51OxbGO3OtHrTXamS0ee96/cywHBtlnhfX6145/lf+jP/b9DzB4ccCaY7+nf88NifWH98WbX9d5sTOPlem7bU9aQSbfuvatQm7MoJsACp4QW1mKS5NwLv/khYlpJ6u7K5vag4AAEKk7I8U8I2dxE3z1+LC0aJGvOvEbuJOpdYu/RXz+1uNj8jjtm+k6wc49lxsZtna+LuXmqBTc9DIqni9EWjzPZeavwJvvpwPHv31KBDnJPNc7Xw+95TbSfGcH2qGvxFkWiFBNt30b00AnNTK7vrB/uq2F/g8L2YbbX/Fx/goITXRJAAAtGKB40OjNOSXc+dROY7vJP69/Dm9iI/sUvZ/V7S/ABuAz0XGad/o/i7Gbbv4O6bn5UvnOWcdaoaFu+cZkuKZIqPb1wkyrZAgm24aaAIukN2SXuBZzn33vgRHRbCNKGYAgB4rKftvN3YSf8/fdhKXHcRHafuP0vh/uZt471u7Br9I1X80T4//W2x+GjR2HH9PtPF1OzIB/jamK5fxdRYYu3vNjsucSqANXXVPadJUYq1qQzP8KYJMJ5qhPoJsAB8MK7Cyuz7dX91+bPKSzqg91tq+i0AbLwoAYI5Nj5WdxEeBNpzcUZDM8Fv/hWPp/JkPATYA3/e0EWTzpbEm6PQ8VKANnX12CLBJ+by3TvX5nIAK/Z8mAKjGk2a2a5NcYhHuxf7qdmS2GWgO+Lt391+7N4BsZIvkTMoOt3tagg6Ld87bAmwAvjueR0mTqZb4005k+NEMnb9ux+ahdEwE2Lgm8z1L4nmvtNex61gT1EmQDfxlTxOQWSk59EhLpDVsj0/7q9ubmgL+ZqAJoJMssMICWOCg48/96xZKAU5EeaS//KYJzEPhlATYGANruY59O6uUIBv4iwcd6ZWSQxMtkdrG/up2BNsMNQUAHSdIHRakLHA80RJ0yFGAjWc/wMmMNcFs/FDqJeU8VHADS31+CrBJ/xyR0W1GkGnFBNkA1CcmoILGchu0R5SPetMelzQHAED/vP24HVkqx1qCDpg2AmwATjuOx7NTuQxzmazXb/SbIAeW4ZEAm2r0PZvNtAQbUansQTYWkQG+sLK7PvUSVI21ZlZC6qGmoPW7JgCAfikfmMdagiWKwJqrAmwAzkS5jKZ5qgnSzkNjDuobMxfpXnvdyeZZj773pTlA5VIH2fzyx69e8AG+YmV3PSJkH2uJKkQmm6391e3IbHNFcwAA9ItAG5YovrtFBhub3ADONob3vVzGpGT0Ie81HHPQq40N7yxWXF/3lJar7vlx0PP3WNdz5ZSLAqjUyu76poG8KsP2+LC/ur2lhBQAQL+UQJtHWoILNGkE2ADMQ58zudjFX8c89DDothFow2IclDnnWFMYByqyI8i0foJsACq2srseH+MnWqIqUToqgm3WNAUAQH+U1OlS9nMRxu31JsAGYE7P1J7+7gOL5lXNQyPQ5qdmluUO5uUoa6Lrqt5nx6TpZ0Y3QaY9IMimm4aaAJij216AqjNojzf7q9txDDQHAEA/lMWqCLQR/MCiPCqZkwCYz9jd13IZO3q/ymv5eiNzOvMxaQTY9MXjnv3eg1IuksoJsgGad/dfD7VCvVZ2149egCZaozqRzSay2mxqCgCAfiiBNlL2M29xPd0uGZMAmK8+7mh/qturnIceKGPKHDyRNbFXdnr27jrW5f0gyAagByLQpj3sNKjTpfbY2F/djmCboeYAgG6QbY5FkrKfOTtK1W/HJcBixu1J069yGXuyU1R/TUdQrqBvTusoqFuQVr+eF9HvfXrPEGTaE4JsAHpkZXfdToN6XWmP9/ur21vtcUlzUOH1DZDNQBOwSFL2MyfxwVuqfoDFe+q3UtlcdNLMgr4nWoMTiLnmVUHdxsDKTdprfKq7+0GQDfzld01AH6zsrttpULeH7fFpf3V7TVNQEYFj0E1TTQDLJWU/5/SovX5uS9UPcCHGTT++xfUtY4G56Mft+M78WGvwHVEe6qrgg14/KyLIatKDn/pSb/eHIBuAHlrZXY8JzU9eeqsVAQlv9le33ytVAcAC/UcTQDeUlP1XG8FvnMzRTuInmgLgwsbqvgSf7Aje7OX1vdnMNnWai3LcYeZN5aEoXvbgerfe1iOCbAB6amV3/aA9brd/vd3IalOrYTPLarOpKaqZqAMAfFXZHRiBNmOtwXccZjZVHgpgKZ76jVQ8F52UuaggXkIEG/xUrguIZ0S8p9b8fVuQac/UEGTjowDAOazsrh9OeL0AVW1jf3U7gm2GmsKcBwCo17HyUQLp+dK0KTuJffwFWNo4vVf5u/1UEKe5aMlaIqtNf8U887aSpHzDuOLfJsi0Z2oIsvGQBjinktXm6AXIy3CdBu0R5aNetMclzQEAUK+3H7ePAumlqyYclhOzkxigE576bfRgLhpzDllt+mfczLLXeAehb+PEniDT/lEuCoA/reyuT9ojXoAi4EYQY51GzayE1ENNAQBQr7KT+Kg87FSL9NJhCTHZawA6JRafa30mj3UvX8xF4xtzfGueaJGqxbtGZEy8Z87JD54L06bOjSCCTHtIkE1Hvbr2TJYBYGlWdteflBcgUed1ijFma391OzLbXNEcAAD1KjtJ7STul1jciMCaq3ZUAnRuXI5ndI3f28YW1/nGNR8ZHiJ7+r3Gps5a55w/yZjIKbys8DdZR+shQTbdZdGTizTQBHxpZXd92h52vtZt2B4f9le3N5WQAgCo17GdxFFCaqJFqhbBVLHQIagKoLseV/ibXupWfjAfHZe56GOtUYWxOSdnfBZEQMq0pntBkGk/CbIBwkAT8C0ru+tHO1+9ANVro5kF26xpCgBOogRnrmgJyCXSc5edxHFMtUhVxs1soUNpKIAE43FTV9DrVBYLTnjtR+D3ZjMLthlrkZQmZc6pNBTn8dJvITtBNgD80Mru+kF7xAuQGrr1GrTHm/3V7TgGmoOO+acmgG6IMaI9ttq/fmoPwZnfN9QEdFUshEVa92aWtn+qRVKL97PrZaFDXwLkYYGRPs9FIzAr5qG+Neebc14352QOasmAJMi0xwTZwLGHoSaA71vZXd9rj9j1GqnmRarXKRZMI6vNQ01BhyijCUvWjgvDCMRsZsE1MUYoMwgViLT9gm3SmjR/LXRMNAdAvjG4qefb2liPcsb7YO9YlkXzGXNO+nPvH1QydjzVm/0lyAb+MtUEcDIru+sRaRwf43e0RpVi4XRrf3U7gm2GmgOgn6IkVHuM2iMCa943MtdAtQTbpDJuZin6LXQA1PFMz25HVgvmMBedlGCbq42gra6IeabgGhaphixonlc9JsgGgDMpJaRuN7OdBl6m6xTZQ95HWZBYaNUcAP3wRUmoF82spCDQA18E2+xpkc6InZ6Pm1lwjbJQAPWoYQe8UlHMcy66V8pIxXx03MikvgzjRkA3F3O/x/WV+b1mp2TkoacE2QBwLiu765P2iBefx1qjWlEW5NP+6rYMBstloQtYKCWhgCMl2CZ2EkdA/ViLLM2kPSKo5l/tsSm4BqC68Xba5C6RM21/gyzXLOTeOBZs86ixwXPh93Iz+7b/LwHdXLDMa0qCTHvuHxX8ht/bY6grAZZrZXd9c3/1sJ70C8/lKsVC65u2jyftn/fa/vaydcFuPL9z8O7+aw0BzFXJVBZBlBuNjDXAF8ruwsnNy+vx8XPUHnc9KxYu5tmxYPnUAgdAL0Q2m2HSc7fAyKLnopEl4kkc7Xx0rcxFbQKcn5hz/hYB9pqCJV6DkUk52yYvQaZUEWQDQEeUwIvr+6vbo6STI35s2B4f2j5+GoFVmgMgpygJ1cwWzB8Yr4EfKcEeMffbvHl5PeaDRwscnh/zEQtIR4scPtYC9GuM3WnH1hhnBwlPf6wHuch7JeZL7f1yqfkr+PuKljm1eN5EcN+OgG46cF8ftPf0TrmnMxFkiiAbAOZvZXd9vL96+OITu+IfapHqxMvsRtvH8TIbWW0mmgQghygJ1cw+Ro60BnAWR9ltYh5YdhTfagTcnMW0tKPAGgBisW4j2TlPLNCzpLno8ew2g2a2cSTmogOt8915Z8w3X7btpxw9XRNBX6Nk5zzWbQiy6S4TAiC1ld31eOF5tL+6/Vszy2pjZ0GdY9X7UibsUelzADqoZJl7YDwG5uloR3HzV8DNz41Fju+ZNLOy5zsWODp3LV/XCsz5mvp/WoFTXC+bzSxjHHC6e2fa/vEojhJwc1RSyntv08Rc8zfzThLcx3vt/buX6L4VZMohQTbdNdAEXKCfNQGLUrKcXN1fPfxgoCRFnUbxEtv2cQTajDUHQDcoCQVcpGMBN8cXOeJdc9jjZ1C8C8UH4wismZSd1wAAzH8uOm3+ynBzqcxBb5U/Bz1ogmnzeUC3eSeZZAqyUSqKQ4JsALgQK7vrmyXjSWS1WdMi1YmX1xelhFQE29ghAbAkSkJ1xj81AX11fJEj/vPNy+vxwTSOn8ufNe4ujt98FFCzV8pqAQBw8XPRCDA5CgBvSgB4vCevlD9rmIvuNZ8Hc0/1PBmVoLgs60UH7b021msEQTYAXJiV3fWY7N/eX92OSVME2wy0SnXiRfVD28eP2z+fKCHFnHhWwAkoCdU5+gGKkqI+jvHR/+3m5fVhuU/+3fwVeJMh4820HL8f/V1ADQBAp+ei0+Pz0GRz0YPmr4Ca/zSCuanPWpMn8+lYd3FEkA0UN57fmby7/1pDwAVY2V3f2V89fBnYaI+HWqRK0bd3236+V0qGwXkMNAF8XfucvVTG0rvuFSCTsjjwt3liWfAIR38elTeO592ig9em5QixkPG/Y/+3gxIsBABAhXPRklHjyrF55z+PzT8XFYRzFETztfnnnrJP9MCDROf6VHdxRJANAEtRMpw82l/djhqWkdVmqFWqM2iP920fR2rWRyWTEQBz0D5b4wNffIgYaQ2gJsd25k6+998rJajOu9AhcAYAgKN56MGxOejOd+ahg+Z8m1ymyjvBn/dSlizAe+5bjhNkA1CBV9eefWj/uP3LH7+mG+RXdtfjo/b1/dXt2IUf2U8u6dHqRMrHYZSQavv7ieY4lwP3CPRbKQkVWWuGWgPoM8ExAAAsaR46bf7KfgicnSw2pPV/FfwGAxnALNr3w6trz9KWXirBFz8139klQGoRGLK1v7r9oWRf4GwsJkEPRUmo9thsj0/tf3zRCLABAAAAILdRkvOMja/WrfiMIBuAehwGMby69ux9e6QMYogSUu1xu/3rdc/3ah0GhO2vbkfAjYwsAN8RQYntEUE1/21m2d4GWgUAAACAzG5eXh81eTK275RycvCn/9MEANUZNrOsNpvtkTKIYWV3fdL+cbU9HuvOakXWpQi2WdMUAJ+LZ2N7vI/nZJNnVw8AAAAAnMStROeqVBR/I8gGoF6x4z2CbYYZT75ktdlsZiWkJrqzSoP2eBMLye0x0BxAn5WSUA9LSag3jZJQAAAAAFTm5uX1QftHls23e28/bu/pNb4kyKa7VjQBF0jJlnrFZCXKR71pj0HKh+Hu+rQ9onzUvWZW+5L6DJtZVptNTQH0TQQZlpJQEVyz1SgJBQAAAEC9RonO9aXu4msE2XSXoAcu0hVNUL2ICo6sNg+z/oCV3fVxM8tqM9ad1Y57G/ur2xFsM9QcQO2OlYSK4JqR+T8AAAAAPXA30bmOdRdf8w9NAFCFafPjne+xeLf16tqzmMDc++WPX9OluIsSUnHu+6vbET0cu/0FiNUn+jTKR8Xk9VHpc4AqREmoZhZQ86CRsaYvYxoAAAAAzWGpqNgQPkhyuuO3H7etT/BVMtnA5zwsyWp6iv9uLPhEVpsIuEm5a35ld33SHlfbvz5231Zr1B6f9le3R5qC8O7+66FWICsloXpLdiIAAACAv9xKdK5KRfFNgmzgc3uagB6J0lGfXl17tpb1B6zsrm+2f0SwzUR3VikWJ19EOZVYoNYcQDZR/q493jRKQgEAAADQYzcvrx9leM5g+vbj9kSv8S3KRQH0W0xq3ry69iwmC1FCaprtB6zsrsc5X99f3Y5gIdkB6jRsZlltInPREyWkgC4rJaFiTNowJgEAAADAoVGic5XFhu+SyQaAMGxmJaQ2s/6Ald31nWaW1eaJ7qxWLFh/iMwQPW6DqcsAuqmUhIpgz8haE6WhBloFAAAAAA49SHSuY93F99QQZKO8D8B8xM77jVfXnkWwzTDjD4gMJ+3xqJkF2xgf6jRojygf9aZki+ib/7gEoFu+KAn1sFESCgAAAAD+dPPy+pUmz4a0nbcft6d6je9JH2Tzyx+/KhkBMF8x2Xn/6tqzF+2RcqFwZXd9rz0i0CYCbowTdYpSLFFC6qGmAC5aBPm1x6g9IrDmfXkmAQAAAAB/lymLjVJR/JByUQB8y6g9Pr269myU9Qes7K5H6agIttnRnVWKILCt/dXtyGxzRXMAi6YkFAAAAACc3M3L6/EdP8sGtenbj9vWk/ghQTYAfE9MfiKjTWS2GWT8ASu769P2uN3+9XpMkHRplYbt8SEWvntaQgpYsFISKoJqlITiNJSuBAAAAPouAmyyfEsTYMOJCLLprqEm4CK9u//6TXtYMOJ7z6TIarOZuITUpJlltXmsO6sVC98RbKNsCzAXpSTUh2ZWEmqkRTglJSsBAACAvrub6Fyf6i5OQpANcCQWpT+9u//6oabgOzba48Ora8+GGU9+ZXf9oD02m1mwzUR3VmnQHm/2V7fjGGgO4LRKSajN9vhvMysJpRwdZyWTDQAAANBbNy+vD5o8iSUmbz9uT/UaJyHIBjguMpRsvbv/+kN7WFDK5fcL/HfFpCjKR71JnNVmrz2ifNS9xi7zWkXgYGS12dQUVY1RsDBflITacM0xj8tKEwAAAAA99iDRub7UXZyUIBv4nN2mMxFgE4E2W0pI8R2H2Y9eXXuWNvvRyu76uP3jp/YY684qxfNrI0q9xOK55qhibIK5UxIK7xYAAAAACzFKcp4Hbz9uj3UXJyXIBj73P03wmQieiGCbNU3BNxxmP3p17VmUkEq5AF5KSEVGm8hsM9WlVYpr8/3+6vZWe2QPHIwFW9mX4JziWaAkFAs2jcx5mgEAAADoo5uX12NtMcv3+LEe4zQE2QA/MmiPN+/uv45joDn4hsPsR6+uPdtKXEJq0h6R1eZxI4ihVhE4+CmyVmT9ATee39lp/7jaHju6E06vvf+vlJJQEVyjJBSL5DkNAAAA9NndROeqVBSnUkuQjcVQWLyIOI2sNpuagu84zH706tqztNmPVnbX4xqPIIaJ7qxSLKi/2F/djsw2g4w/4MbzO9P2uN3+NY6pLoUfKyWhohxUlIUaaREugI8zAAAAQC/dvLw+aGbrihnsvf24LRsxp1JLkI0LHy5GLE5vvLv/OoJthpqDb4jJ05tX157FMcj4A1Z216PEQ5SPiiAGgZx1imdYZLXZzPoDjmW1eaw74e+OlYT61MxKQpm7cFGUigIAAAD6bJToXJ/qLk5LuSjgLKI00Pt3919vtYcyC3zLYfajV9eebWb9ASu76xHEECWknujOam3EAnx7DDOe/I3ndw7aI+4x2Zeg+EpJqIFW4YIJfgQAAAD6LEupqNhkreQ3pybIBjiPKA306d391yNNwTccZj96de1ZBNsMM/6Ald31g/Z41P41MtvYlV6nQXtE+agoI5UycPDG8zt77RHX6KNG9iV6SkkoOiKy2Iw1AwAAANBHNy+vD5s8m9523n7c9j2dUxNk02FZy6zQO7Eg/eLd/deR2cY1y7ccZj9qn2tb7ZEyiGFld33SHpEtRBBDvUbNrITUw6w/4MbzO5F1KbIvib6nF0pJqIdKQtEhstgAAAAAfXY30bm+1F2chSCbbhtoAhIZNrOsNpuagu84zH706tqzUdYfsLK7HkEMEWwjiKFOEQS2FdkwouRMxh9QSkjdbmbZl6a6lBq19+eglISK4Jot82Y6YiKLDQAAANBXNy+vx/f1UZLTnb79uD3Ra5yFIBv4nFIw57fx7v7rCLYZaoqLnQwkOtfD7Eevrj17nzVj18ruepSCiCCG240ghlrFM+zD/ur2ZuISUpP2iKw2sipQjfZ+XCsloT6VF/ZLWoWOiCx39zQDAAAA0GOjROf6VHdxVoJs4HNKwMzHoD2ifNSb9rD4dTGmCc952Myy2mxmbfSV3fXIZhNZbQQx1GujmQXbrGX9ATee34l7LIJtJsn7YsXl2E9flIR60ygJRTc9iiBczQAAAAD0WKZSUWPdxVkJsoHPyWQzX7EoHVltHmoKvmPj1bVnEWwzzHjyK7vrB+2x2cyCbSa6s0qD9nizv7odxyDjD7jx/M60PaJ8VGRZyBpQKmizZ5SEIpEnykQBAAAAfXbz8vqV9o8rSU53/PbjtsQLnJkgGzjmxvM78UCdaom5ikXRrXf3X0dmmyuag28YtEeUj3rTHikX0ld21/faI4IYHjWyYtUqAgcjq03awMF2nBs3s6w2T3QnXaUkFMmM2/H/kWYAAAAAeu5BonP9TXdxHoJs4O9ks1mMYXt8eHf/9aYSUnzHYfajV9eepQ1iWNldj+CFCGIY684qHQYO7q9uR7DNMOMPiIDS9ogF4evGPLqilIQaKQlFMhFgc08zAAAAAH128/J6fDdfS3K607cft3f0GudRS5DNVFcyR6IXF2ujmQXbrGkKvuEwiOHVtWeR2SZl9qNSQioW3a4bo6oV1+b7/dXtCLhJGTh44/mdSXtEmbPHjexLLEkpCRWloCK4JkpDDbQKSQiwAQAAAJgZNXmyUb/UXZxXLUE2/9GVzNFEEyzcoD3evLv/Oo6B5uAbhu2xlfkHrOyuT9ojsto81p3ViqxLn6K8TdYfcOP5nc32jwi2Eb3PhYlMUO0RGWs+lftIljsyuSfABgAAAOBPmUpFjXUX56VcFHzhxvM700agzUWJRenIavNQU1Czld31zWZWQsqzpU4RHPBmf3U7MtsMso597XG7/WscU13KInxREup9kyeFLByJEntX23F9rCkAAAAADktFDZs82al33n7cnuo1zkuQDXydVGEX57A00Lv7ryPYZqg5qNXK7vq0PaJ8VOx8V5qnTvEMi6w2m1l/wI3ndyKbTWS1eaI7mRcloahAjNuP23E8Amz2NAcAAADAnzJlsbH+y1wIsum2K5pgOW48vzNuLIIv43p//+7+6wi4UTKCapXd75HVRhBDvTYiU0eUw0k6Bh60x6NmFmxjMZkzUxKKSsS4fbVkpQMAAACguHl5fdDkyVZ98Pbj9o5eYx4E2XSbhYjleqoJliIW4T69u/9aCQmqtbK7ftAeEcQQmW0EMdQpXi6ifNSLKJGT8QfceH5nrz0i0CauVYGnnFgpCfWhURKKvOKZF8GwP7Xj9b3IRqdJAAAAAP5mI9G5jnUX8yLIBr4tPqxbVFyOWJB+8+7+68hsM9AcP/bLH79OtEI+K7vrkyg90f71sedNtUbNrITUKOsPuPH8zuFCc3uI8uebSkmozfb4bzMrCSUjIxlNm1lZxwiueSS4BgAAAODrbl5ej7W8TBvsJFdgbgTZwDdEuYxmtnuf5Rk2s6w2m5qCmpUSFBFsI4ihTvGyERltIrNNysCDUkLqdjPLvjRd4phAx5SSUBFUEyWhNhqZGMkpxt/r7XgcwTXjyDinSQAAAAC+K1N5+Mnbj9tTXca8CLKB77jx/M64UcqlCzbe3X8dwTZDTdE7vVmsjd3y7RFBDHGY7NUpnmEfSraPrCWkJs0sIOyx7uy3L0pCjbQICR0vCXU7sstpEgAAAIAfK1lsHiQ65Zd6jXkSZAM/dk8TdMKgPaJ81Iv2sEu+P3pXbmRldz1200cQwxPdX63I9hHBNsOMJ1+y2mw2sxJSE93ZH0pCUYlpoyQUAAAAwHlkymITG61UEWCuBNnAD9x4ficy2Sgb1R2jZlZCaqQpqFWUqYiFv2YWbDPRIlUatEeUj3oTgQtJx8dpe0T5qHvlRYVKRZkzJaGogJJQAAAAAOeUMIvNztuP274DMVe1BNlMdCWLdOP5ncgoIcqxO2IAj4w2kdnGLnqqtbK7vtceEcQQATcmgXVaa2ZZbR4mHiPHzSyrzVh31qWUhIpyUFEWaqRFSOigPJuUhAIAAACYj0xZbMJTXca8yWQDJxc79fc0Q6cM2+PDu/uvN5WQomYru+sR6BdBDIL96hTPr6391e0ItkkZOFhKSMU4ed1YmVt7DV4qJaEia82LMtZCNtNmFqAawTX3lIQCAAAAOL+EWWwmbz9u+17N3AmygROKBcTG4mFXRemKCLYZagpqVUpI3S7PoakWqVIE2ESgTQTcpAwcbMfKSXtEmbPHjexLqRwrCfXfMq4OtAoJTdrjdikJ9URJKAAAAIC52mpyZbF5qctYBEE2cAol0CZ26vtg3z2D9ojyUW/aY6A5qFUpdXEUxECdIt3mp/3V7bXE4+VmuU4nurPblISiAsdLQl1vD1nfAAAAAObs5uX1YZPr++HB24//n737R27rSvMGfDTfAj7PCgYuLkB0hLDhhFVE8qkTJghMBQxQCCytwOQKRAYoBggMBUiQmJNIVUiMDhFZWIDK2MFoB/3dl/eyx3ZLokjhzz0Xz1N1Ct09023ec8/9Q5wf33c0dubYBCGbevubKaifo+uTqGQTbVtUtKmn2JSOqjYvTAVNVVW1Oa/uRXMz0kjx1wC/RPihGK1Mn5erYkTlpajAtHJK60NLKBoi7itaQgEAAABsWNUm6ufMfuyxM8emCNnAI2gdVXvxsH81608jbHO4R8etwtKeiQ3F+Kv9pMJWk3VS2ULqPONnZlSViKo2l07nbkVgq2oJFeEaLaHI1TxpCQUAAACwTTl+l3jltLEpT5pwEJP2sFN8/NrA8zPvLQbfW6b1NutPY7Pq1EzUWmzsXlThqMYq7oVxH+w07biK++ATS/h+UZkilf1Q3Y+aK4KdL6uWYbk+MyP4GM/NxwYgv40KOZbCg+8PUeXtx6RiDXkbx/ucijUAAAAA23N8cBbfLf6S2Y998/b96O/OHpuikg18paPrk6ggETdqf0VbX9E66vdZf/rMVNBUVQupuB+pstVcEUyJ9lE/V6GqHJ+Z74oRVW1ePvK52bIMvkzVEupF1RIqfgnumBUytCrGRTH+U0soAAAAgO06Pji7+6PJ3Khiw0YJ2cAa/KEVxo3ZqK3YkP5l1p/+WoyW6cjHpD08NAtfLqqcFCPuR7EpKfzXTKfF+H3ZHZ1m/Ny89NzcjL+0hIrqVp555GhejOdVS6hzLaEAAAAAtuv44Ox2Xy2V+2s5Wb19P5o7g2ySkA2sSbSvKEZUtImxMiO11SnGb7P+9NxUZOMbU/BwsSmZyhCDl8nmXhdR0SYq27Qyf25+77n59aIlVKyHVIZrTt07ydQ4nl3FM+z7YoxNBwAAAMD2VQGb+K6xleGPf+EMsmlNCdn4y0Zq4w9VbS7NRm3Fy8FPs/40wjYd00FTRVuN2KhMwn9NFvewqGpznnELqXn13PTLzwNpCUVDrNKfW0JpeQgAAACwI38I2OTYZeDD2/ejsbPIpjUiZNNbDHwRS60cXZ98KMbLVG4aWp/1FS8I0T7q52L4i38a6+mbM+G/5vupGL8tu6NOxs/N86T60hepWkJFKygtochZXOtaQgEAAADUROYBm3DlLLIN2kXBBh1dn7wrRmwYRuDGxkF9nRbj91l/epr5cTwvxo3TycfE5mUxhP+arRW/AC27o18yrmoTz83vq/vZX5+bcX9b7fMJjhBVnN9UhmteJC2hyNM4aQkFAAAAUCvHB2cRrPkt5Ruwie+T/aExW/GkKQcyaQ//2cDzM+8tBt9bps1QVUr5uRjPzEa9r7tiPD+6PlllfD/sVGut1ZBz8n1xL5xbmusVLWZSWf3EJn0zxS8UF0/fnGX7S0X13HxVHctVzvflr7xWv6neHX5KKtaQ9z0p/pJoHK0MTQcAAABAfRwfnDVhv2D89v3oubPJNgjZ1Nu73mLwnWXaLLP+tJOaFYBoqotiXEYLk0zvifEidPdSlDshmw2pNu+F/5otqhZFOxbVi/K7PuM94cdUVlsThiPne9CVijUAAAAA9XN8cNZK5R5BpwGH8+3b96OVs8o2CNnUXG8xeGKZNk/11/lNCUA0WTyMo6rNPON7Y5T1e5X5C5KQzYZFC5ok/Nd0UdEmKttoXZjH9RjhGuE3cjYuxuvinuP5DQAAAOyF44OzaPF+W8n37fvRh5r/rHf7lPE9ZBP+wE8VG7ZKyKbmhGyabdafNiEAsQ9uUhm2yXZzurhH5lzqT8hmC6qqNsJ/zbYqxsunb85uTEUtr8HTpCUUedMSCgAAANhLxwdnsd/32x/+o/gO9r/js06BmwaGa+6oYsNWCdnUnJDNfpj1p6epDNtoB1Ff8RJ0cXR9cpnxffKbap2dZvajC9ls0bI7Ev5rvvgF76VN8Fpcb63qnty0X2rZL1pCAQAAAHvt+OCsU3z8+on/c3wf+49UBm5WO/r54nv/u+rZTfseMub171Yh2yRkU3NCNvujaiGVYwBi38RGUlS1eZfx/TJe9nJqDSRkswNVVQ3hv+a6rTjx9M3ZuanYyfUV9+EfPPPJ3DhpCQUAAAAQIZaoDvPqC/5fV8WYpzJ08+7t+9G7Df088b1+pxh/S2WwptXg6f++mMe5Vcg2CdnUnJDN/pn1p/HQyykAsa+ios1F5i2kzlMerYEuinvhuSW3fVULKeG/Zotf4l7aJN/aNRXXUvzFyKHZIFPx3jNOZUhvZToAAAAAbkMt5+nx+y3xHe2qGMvqc3X3n3+u1VQVpLn7njE+499HqKaV9mePcV7M0fdWINsmZFNzQjb7a9afxgNZ+4h6ixedl0fXJzcZ3zvjRStCXZ0a/5hCNjtWVd0Q/mu22+Dg0zdnH0zF2q+fuG5OPdNpwDvPRTFu3CcAAAAA/uz44CxaRXXMxNapYsNONClk81tq4F8FC9nst1l/2kr1D0BQ9tOMsM0q43vos2qt1XEDWMimJpbdUZwHQYHmio3zqGozNhVruV7i2a0lFE14x7lS7QoAAADg04RsdkIVG3bmPxp0LP6iksaJ0EYx4gHxd2u81iKg8ltVfShLvcUgNtG+TWU1C/iop29uS15+l8qesTRPhKd+XnZHv1bVV3iEaAkVc1j8yxinZoRMf6+K94Fvi/v+3wVsAAAAAO7VMQVbd2EK2JUmVbJpZEJQJRvuzPrT2PyMfo4vzEatRe/MqGozz/h+GvfSV6k+1cFUsqmhZXdU5+pHrOnaq4JV3H89fFM9n6NyTcuMkKlV0hIKAAAA4EGOD87iu8H/MRNbNX77fvTcNLArQjY1J2TDX83601jndQpA8HHxF+AXR9cn2W5SFffV81SP1kBCNjVVBQuE/5ptVYznKll88ho4rO6Tp2aDjGkJBQAAAPBIxwdnnVRWtWZ7vn37frQyDezKf5iCepu0h4IU/ElUSClGtGt5mbSQqrMIHfw+609Pcz2AKtgSa+3G6eRjotJBMV5W6+SdGWmkVvyCuOyOfqlCVaQ/tYT6LQnYkKd4hxwnLaEAAAAAvpbvTbfrQsCGXROycWMmU0fXJ1EpRQCi/tfvz7P+9NditHI8gN5isCrG34t/GcNLCx/19M3Zu2II/zVbtAf7fdkd7W3VoggZFeO8GL+nslVax7IgQ6vqXh3hmqhS5dkOAAAA8HUUTNie2H+4NA3smpANZOzo+mRVDAGI+uuksqrNea4H0FsMIsz1nZcXPufpmzPhv2aL4OCrqOBStUnaC8WxtooRoZroqxzt0VqWAhmax/ticZ+OcM1lVCIzJQAAAABr8V+mYGtevn0/8r0WOydkAw1wdH1yF4C4MBu19tOsP42wTSfHH763GHwoxl1roLnTycdEVYRoPZKE/5os7mG/VVVdGltxrzi2Z1VLqKhcc+q0k6E/toT6vhgCkAAAAADr1zIFWzF/+340Ng3UgZANNMTR9cmHYpwnAYgcXraifdQvxchyc7q3GLwrxvdpe62BpMAzVG3mCv81W1R1ibDNs6YcUNUS6kXVEuqXpCUUeVolLaEAAAAAtqVlCjYu9qKemwbq4klTDmTSHsZfGncaeI6+7y0Gc0uVh5r1py9SuQH6jdmo9UvBxdH1SbYtmIp7b6yvaKOyyU32eRXqIVNVa6FXSWChySJU9TLXzfxoCVU9M595bpKx+J3hSsUaAAAAgO05Pjj7p1nYuGgTdWkaqAshm/oTsuHRqkopmw5A8PXiGn95dH3yLuN7cKdaa61NzI+QTTNEhZAk/Ndkt8HBp2/OLjNak/F8/DEJgJG3cXXtrUwFAAAAwPYcH5zFH5j+ZiY2KtpE2SOiVpoUsjlP5cZd0wjZ8NVm/WknbS4AwfpEW53LaP3lXvznFyghm+aIdjyprGpzajYaKwKDUdVmXuM1GOvvR89FMrYqxut4byiutQ+mAwAAAGD7jg/OOsXHr2ZiY+J7r+/evh+tTAV18h+mAJrv6PpkXoxvUxnioL4inPLbrD/NtvJQbzE4Lz5irc2dTj4mNoOLEb1TIzjlxbiZ4q83fl12R6+qQEstREuoYkTg9PdUBr1aThUZiufr8+I++m0xzgVsAAAAAHbq0BRs1HMBG+pIyAb2yNH1yXkSgKi7VjF+mfWnMVo5HkBvMVhVlWciSGHzj4+KKiexSZyE/5os2oP9XrVk2pnin98pxi+pDNecJu3KyNO4GN8V983vizE2HQAAAAC14LvGzbl8+350YxqoIyGb+pOAZK2Ork9WxRCAqL/YlI6qNi9yPYDeYjBOZahr7HTyKVGJIQn/Nf2XzF+W3VFUtmlt6x8aFXSKcVqMCNb8Wt1TITerVAYR/zMqgBXjnSkBAAAAqJW/mYKNmL99P3ppGqirJ005kEl7eJ7KVitNFCm9l1EdwpJlnWb96TfVdfPCbNRabKq9jLZfGd+jO6lsz/KY4OC8qoxDw1UVT6Kdj/R/c11UwapNraFW8fFjUrGGzL9EKMZrFWsAAAAA6u344Cz+wK9jJtZqVYzv3r4fKRRAbQnZ5CNuJBe9xeDSsmXdZv1pvAA8NgDB9sT1f3F0fZLti0V1r44N8IdsfgvZ7JGoQJKE//bhl6SoyjFf47rpVPcWFWvI2bgYVyrWAAAAAOTh+ODsn2ZhrWL/6/u370e+H6PWhGzyEzeV573FwM2FtZv1p3EdPTQAwfZfMJ4fXZ9k24eyuF+3UlmtpPOF/xUhmz1UhSaE/5ptXIyXT9+cfXjkGoln1bPq/a9lOsn4uX4V10NxLaxMBwAAAEAejg/O4vvJ/zETa/WdgA05ELLJ121Fi95ioFQWazXrT1up3NhWDaDe5qkM26wyvm8/q9Za675jFbLZX8vuKJ7vwn/NdVup7+mbs8sHrIm4Z5xaF2Quviy40hIKAAAAIE/HB2ed4uNXM7E2z9++H41NAzkQssnbbUWL3mJwYymzbrP+9EsDEOz2HnB1dH1ynvG9+0taA30o7nP/6XTvrypUIfzXbPNUVrV595l1EL+0/pDKgA3kKr4oeL3OdmkAAAAAbN/xwVl8X/2LmVgLARuyImTTDPNUhm1WljTrNOtPvyQAwe7FtR9VbeYZ38OjJVC0kPpoa6Di/vbEaWbZHQn/Nd9FMS7/2EKqOO+nqaxao3UYudISCgAAAKBhjg/OztP+7k2vk4AN2WlSyOY0lRu0++r2y/veYnBuWbNus/70swEIaiNeQl4eXZ9k20auuJe/qF5K/9QCRsiGO8vuSPiv+VZxL6ueOVpCkTMtoQAAAAAa6vjgLPbNTs3EVxGwIUtNCtl0kr53YZXKqjZzU8G6zfrTjwYgqJUI2ETQJtuXkqqFVLyc/qs1kJANf7XsjiKAEVVtOmYDqJl4BmsJBQAAANBgxwdnsS/dMROPEntZ3799P3pnKsiRkE1zjYvxsrcYfDAVrFPVQupPAQhqaZ7KsE22LyjVfT3WWkvIhk9ZdkfCf0BdvhiI9+8rLaEAAAAAmu/44Oz34qNlJh4s9q2eC9iQMyGbZrutaNFbDMamgnWb9adxzf3sBaL2LopxmWsLqaqqzQut8PicqoWU8B+wC6vqWXvz9M2ZcDsAAADAnjg+OPunWXiwm1QGbHyPRtaEbPbDPJVhG4lA1qqqanNXRYL6WsVLy9H1ydxU0GTL7ijeBYT/gG19IXClJRQAAADA/jk+ODssPn4zEw/y8u370aVpoAmaFLKJzf7/cUo/67aihRZSrNusP22lcmO7YzZqLTYEo4XUylTQZMvu6DwJ/wHrpyUUAAAAABGy6STFH76U9lA0zpMmHcykPYyQzTdO62et4kbWWwzmpoJ1m/Wnp8XHK9dhrcUG4cXR9Ym0MI227I5aSfgPWN/7s5ZQAAAAANw6PjiLLg+vzMS9Lt6+v/2jWGiUpoVsfik+njmtX+S2552qNqxb1UIqXixOzUat3SaHj65PJIdptGV3dJqE/4DHvy9rCQUAAADAnxwfnJ0n1dQ/Z57K6jUrU0ETNS1kIzX4MLcVLXqLgYoWrN2sP+2ksopEy2zUWlz/UdlG4I7GWnZHwn/AQ96PI1xzoSUUAAAAAB9zfHAWraI6ZuLfzFNZvWZuKmiypoVsWsXH707rg91WtOgtBipasHaz/vS8+PgxqSJRZ6tivDy6PrkxFXziOo7n62kxbnKufrTsjuKXngjbHDqrwEeehVfFGGsJBQAAAMDnCNn8m9g3uHr7fjQ2FeyDJ007oEl76Kb2eLcVLbSQYt2qDfqfXZu1N09lC6mVqaC6duOajZDcs78+K3KufrTs3vaAFf4D7p590RJK0BQAAACAL3J8cBbdVeI75taeT8U8qVzDHmpiyOY0lZv5PM6qGC97i4GNBtZu1p8+q65PG9v1FcGJq6Prk3NTsdfX6mn1C8LhZ9bJ85yrHy27o1YS/oN9ftZpCQUAAADAVzk+OIvv0O/+UHVf9r7iu7VxKivXrKwC9tGTJh7UpD2MllEtp/erzFPZQsrNkbWa9afxkvFTMV6YjVqL0n7RQmpuKvbm2ozn5ml6WIWX22dFztWPlt1R/PLzynsD7IW4V2kJBQAAAMDaHR+cxXfN/y+Vf9jZatjh3f3R2n+/fT9SqIG919SQzWlSzWZdN8yr3mJwbipYt1l/elhdp4dmo9bGqQzb2Ixs7rUYL/w/pDJg8+hnRc7Vj5bdkfAfNNs8aQkFAAAAwJZUFW46xfhb9ZljlZv4Y+x5KoM1c2cV/teTph6YajZrv4lGCyk3UNZu1p/GpvZPSQupOosQRQRtxqaiUdfeafp8S6iHWqWyqk22z4pldyT8B816dmkJBQAAAMDOHR+ctVL5vXOMp6ncw67T99CxF7wqxjKVwZp3b9+P/PE1fEKTQzad4uNXp3itxqkM27ipslZVm5po1/LMbNRavFhl3RrItfaollCPelbkXP1o2R0J/0G+4hn1uhiXWkIBAAAAUGfHB2fxHfRd2CY+49//3/TnAM7df/415tVnfF+2/MN/9uHt+9E7ZwIe5kmTD27SHsamvdYP63Vb0aK3GIxNBes2608jZBPXbcts1NpFMS61kMrq2uqkr2sJ9ahnRc7Vj6oWUlHVRvgP8hBfCrx++ubMOyoAAAAAe6FqS/WvAI62TrAdTQ/ZxE0lqtlo+7B+cZN+3lsMVqaCdZr1p3Hd3lWRoL7i2s+6NdCeXE+nqQzXdHb4rIiwTbZJ+GV3FHMXYZuWFQW1NC7G1dM3Z/7iBgAAAACAjXvS9AOctIcRsImgjZYPm3HRWwzOTQPrNutP49qNqjYds1FrN6kM26hqU59r5y6oFuGaVl2eFSnj6kdVVRvhP6iPVdISCgAAAACAHXiyDwdZBW1+c7o3ZpXKqjZzU8G6zfrTu41tQbn6ig3Oi6Prk0tTsdNrJZ51P6bttYR61LMi5+pHy+5I+A92K+4fWkIBAAAAALAzT/blQCft4Wkq2z2wObcVLXqLgb8oZq2qyhyxsX1qNmptnjJvDZTp9RHXxS5bQj3qWZFz9aNld3Ra3ZOE/2A7xklLKAAAAAAAauDJPh3spD18lsqgjU2xzbmtaNFbDFS0YO1m/WmnuoZbZqPW4vq/0EJqo9dCHVtCPfhZkXP1o6qFlPAfbPY+cZW0hAIAAAAAoEae7NsBV62jfk2CNps2L8bL3mLgL45Zu1l/ep7KFlLU1yqVVW1uTMVa136rWvunDTmkeEY8z7n60bI76iThP1j3feFKSygAAAAAAOroyT4e9KQ9jIBNBG0OLYGNu61ooYUU61aFDWJju2M2ai1CNhG2WZmKr1rvUYntxwav9+yrHy27o/PqHAnxwuOMi/H66ZuzuakAAAAAAKCunuzzwU/aw/OkGsY2rFJZ1UZFC9Zu1p+eprJli43t+rpt+XF0fXJuKh60tmNNx/qO4EZrX54VOVc/WnZHcZ6E/+CBz4dijJ++OVuZDgAAAAAA6u7Jvk9A1T4qNug7lsPG3Va06C0GK1PBOlVhhAjMvTAbtRYtQCJEMTcVn13PrWo9R/WafQyPxfp4nnP1o2V3FOfu5yT8B597HmgJBQAAAABAdp6YgtKkPTxNqmFsw+1fLPcWg3NTwbrN+tNOdR1rBVdv2bcG2tD6bXpLqAc/K3KufrTsjoT/4N+Nk5ZQAAAAAABkTMjmDybtYWyIxQb9qdnYuNuKFr3FYG4qWLdZf3qeyrCC0Fx9RYgiqtqM93yt7ltLqEc9K3KufrTsjiL0F1VthP/Y5/u9llAAAAAAADSCkM1HTNrDTio3xFpmY+NuK1r0FgMVLVirquVOhOaemY1am6fMWwN9xfrc55ZQDzVOZdgm22fFsjt6UZ1z55t9Eff1i2LcPH1z5j0PAAAAAIBGELL5jEl7eJ7KDTE267aiRW8xGJsK1q1qwRNhm5bZqLWLnFsDPWA9dlJZtUb465HPipyrHy27o1YS/qP5bopxpSUUAAAAAABNJGRzj0l72EplVZuO2di4eTGe9xaDlalgnaqWPBGYe2E2ai2u/ec5twb6zPp7Vq3BltO8nmdFztWPlt2R8B9NEyG4cSrDNd7jAAAAAABoLCGbLzRpD2NDLMI22jxsXrSPOjcNrNusPz2sruNDs1Fr45R5a6BqvbVSWbXm1LNjM8+KYlzmuk6W3VGsibsWUpCrVdISCgAAAACAPSJk8wCT9lA1jO1ZpbKqzdxUsG6z/vRuY1vwob5iszZaSF1muL46SUuorT4rcq5+tOyOIvQXVW06TicZ0RIKAAAAAIC9JGTzCJP2sJPKDTHVMDZvXIyXvcXAX0ezVlULn6hqIwhRb/NUVrV5l8F60hJqd2LD/3nO1Y+W3ZHwH3WnJRQAAAAAAHtPyOYrTNpDG2LbcVvRorcYXJoK1q2qOhJhm5bZqLVatgbSEqp+z4ocqx/dqVpIvarWE9TFqhhXxRhrCQUAAAAAwL4TsvlKk/awlcoNMdUwNm+eyqo270wF61RVIbkLzVFfq1RWtbmpwZrpFB8/JGGI2j4r6l796HOW3VGsL+E/6nAtRdWaG1MBAAAAAAAlIZs1mbSHEbKJsE3LbGzcbUULLaRYt6oqSWxsd8xGrcWGb4QoVjtYI6eprFyjXWD9RUWbi8xbSJ0n4T+260N1j73QEgoAAAAAAP6dkM0aTdpD1TC2Z5XKqjb+upq1q4IUEZrT/qe+ttYaqApfxZr40ZrI81lRh+pHj7XsjmL9Cf+xjWtFSygAAAAAALiHkM0GTNrDqHAQG/Qds7FxtxUteovBylSwTlULqbiOT81GrUVLoAhRzDewBuIeriVUg54Vu6h+tC7L7igq5kXYRtCLdYp7p5ZQAAAAAADwhYRsNmjSHt5VtbEhtlm3FS16i8GlqWDdqqBFhG20B6q3tbUG0hKq0c+Kq2KNnOd6AMvu6JvqveKF08lXXgtaQgEAAAAAwCMI2WxY1UIq/vL8mdnYuNuKFr3FYG4qWLdZf3qetAuqu9g4fv6Y1kBaQu3fs2IT1Y+2ZdkddZLwHw+3KsbrYlxqCQUAAAAAAI8jZLMlk/awk8qwTctsbNxtRYveYmADibWqghhxHXfMRq3NUxm2WX3BOY2QQgRrTk3bfj4r1lH9aFeW3ZGKeXzpPfH10zdnY1MBAAAAAABfR8hmyybt4XkqN8TYrNuKFr3F4MZUsG6z/jQqU0XYxsZ2ve8Bn2wNVLWE+iEJTFknZVWbca4HsOyOWqmsaqNiHn8V6/rq6Zuzd6YCAAAAAADWQ8hmBybtYSuphrEt81SGbVamgnWa9acRsInA3AuzUWtx7UdVm3l1zuJ8RbimZWr467PiS6of1dWyO4qQzStr2z0vaQkFAAAAAAAbI2SzQ5P28DSVG2KqYWzWbUWL3mJwbipYt6rdUITmDs1Grc2TYCP3u/hU9aMcLLsj4b/9vsdpCQUAAAAAABsmZLNjk/bQhtj2rFJZ1WZuKli3WX/6orqWheagAc+KqH6U6wEsu6MI/UWIt+N0Nt44aQkFAAAAAABbI2RTE5P2sJPKDTHVMDZvXIyXvcVAGwXWataftqrr+JnZgGY8K46uT7J9Viy7I+G/Zrqt0Je0hAIAAAAAgK0TsqmZSXt4Xnz8mGyIbVpsSkXQZmwqWLdZf9pJZQupltmA7J8V0ULqMtcDqFpIxf1I+C9/Ua3mSksoAAAAAADYHSGbGpq0h62kGsa2zFMZttFmgbWa9aexsX1XRQJowLPi6Pok22fFsjvqJOG/XI2L8frpm7O5qQAAAAAAgN0SsqmxSXsYIZsI27TMxsZdFONSCynWbdafHlbXccdsQJZW1TPiJufWUXeW3dF5Ev7LwV1LqPHTN2cr0wEAAAAAAPUgZFNzk/YwqmHEZtgLs7Fxq2I87y0Gc1PBus3607uqNlrBQR5uinF1dH3SuGfCsjtqpbKqTcdprh0toQAAAAAAoMaEbDIxaQ+jGkZsiB2ajY2LjdVoIbUyFaxT1UIqqtqcmg2opageMk5luKbxz4Bld3Ra3ZOE/3Yv1p2WUAAAAAAAUHNCNpmZtIeqYWxHbLRe9BaDS1NRm7Uf7dN+rNZ+VBx6l+uxzPrTTipDcy1nFmphlRrUEuohlt2Rinm7fdfQEgoAAAAAADIiZJOhqoVUbNA/MxsbF0GOrAMdDVjrp6kM17T+8n+OAFQEobLdEJ/1p+ep3NwGdqOxLaEeatkddVJZ1UbFvM1bpSrU9fTN2QfTAQAAAAAA+RCyydikPewk1TC2JftAR2ZrO9Z0hE8iSPa5qk2rVLb2usn1WGf9aau6jjvOPGzFXrWEeqhld3Se/rdqGOt1G+rSEgoAAAAAAPIlZJO5qtLHXQspNis2Zp/nHOjIYD3ftYTqPPC/Oq/OzSrXY5/1p3HsEbaxsQ2bEfeH29Y8+9YS6qGW3VErCf+t891hnMpwzcp0AAAAAABA3oRsGqKq/GFDbDvmKfNAR83W7udaQj1EbGReFeflPNe5mPWnMRcRmHthZcBa79lRtUZA8oGW3VGE/14lFfMeI94RtIQCAAAAAICGEbJpmEl7eJrKDTHVMDYr+0BHDdZqK31ZS6iHepfKFlLzXOdm1p92quv40EqBR9+jI1RzoSXU11l2R8J/D6MlFAAAAAAANJiQTQNVlUFig/7UbGxc9oGOHazPTiqr1jzb8D/qshgXxbnJtoLArD89r+ZKaA6+zCppCbURy+4oQn9RMU/4799pCQUAAAAAAHtCyKbBqjCDahjbMU5l2Mam7sfXYoREIlQT1RBaW/xHf6jOyzjXuZv1p63qOn5mJcEnzZOWUFux7I5eVPdy4b8/hLq0hAIAAAAAgP0gZLMHJu3heVINYxuyD3RsYO21qrV3uuP1Ny/G8+LcrHKdy1l/GiGbCNu0rCz41z1XS6gdqFpIRVWbfQ3/xTMlqtYIdQEAAAAAwJ4RstkTVdghNsQ6ZmPj5inzQMca1luss220hHqoaB91nuu8zvrT2NiOChIvXGbssbi3vi7GpZZQu7XsjjrVu0VrDw73X6EuLaEAAAAAAGB/CdnsmUl7GKGH2BBT1WbzLopxuS8tpHbYEuqhVqkMQc1znetZfxot4KKqTcdlxh6Ja/b10fXJ2FTUR1XV5q6FVBPFM0NLKAAAAAAA4JaQzR6qwhCqYWzHKmUe6PiC9dRKZTuo3FqS3VTnJttN01l/erexLTRHk42LcXV0ffLOVNTXsjuKZ0GTKubFc1tLKAAAAAAA4E+EbPbYpD2MahixIXZoNjYu+0DHR9ZPp/j4IZUBm1zF+YgWUpe5HkDVQiqu42cuMxpklbSEytKyO4pnQlTayjH8pyUUAAAAAADwWUI2RFhCNYztyD7QUa2X01RWrWlSOGtejJfFucm2UsasP+2kMmzTcqmR+bWoJVTmqhZSEbQ5zeRHXqUq1KUlFAAAAAAA8DlCNtyqWv7EhphqGJsXQY7nOQU6Mm4J9VARgLrIteJQVdXmLjQHORknLaEaZ9kddar7UaemP+K8GK+fvjkbO1sAAAAAAMCXELLhT6oWQKphbEftAx0NaQn1UKtUVrW5yfUAZv1pq7qOOy4zaizufVfFGB9dn6xMR3PVMGwzjrX39M2ZUBcAAAAAAPAgQjb8m0l7qBrG9qxSDQMdDW0J9VA31blZ5XoAs/40zmNUqNIKjjqJYMOVllD7pwrb7Cq4GfdyLaEAAAAAAICvImTDJ03awwhYxAZ9x2xs3M4DHX8IVzW9JdRDxEZsVBu6zPUAqhZScR2fOp3s2LgYr4+uT+amYr8tu6O4L0V7yh+28I4Rz9f/1hIKAAAAAABYByEb7lVVNVENY/NuW6f0FoPzLZ/fCFNFsObUKfikqLwRIah5rgcw60871XV86HSy7fta0hKKT/hD4OZv1f3pa+9Rsc7iXv2PYtyoWgMAAAAAAKyTkA1fpKpyohrGdmwl0FGFp7ZRRaBJoqJNVLbJdtN21p+eJ9WK2M59TEsoHqVqK9Wqxn9Vn5/yj+oznpmrp2/OVmYQAAAAAADYFCEbHmTSHnaKj5/T5ze8WI+1Bzr+0BLqB+fw0eJ8PC/Oy02uBzDrT1vVddxxOlmzcdISCgAAAAAAgIYSsuFRJu3hefHxk5nYuAh0RFWb8VeeLy2h1m+eyrDNKtcDmPWn0aIlwjaq2vC196m4R11pCQUAAAAAAECTCdnwaJP2sJVUw9iWeXpEoENLqK2IakPnuf7ws/40AjYRmHvhVPJAcT+6KMbN0fXJB9MBAAAAAABA0wnZ8NUm7aFqGNtzb6Cjagl1msrKNS1TthWrVIag5rkewKw/Payu40Onk3tEq7QrLaEAAAAAAADYN0I2rEUV7FANYztW6SOBjqqyUJyDCD0JPO3GOJXtvbKt6jHrT19U68ga4o+0hAIAAAAAAGDvCdmwVpP2sFN8vEqqYWxDVJN4nspWUD8mLaHqIsIIEbQZ53oAs/60VV3Hz5zOvbdKWkIBAAAAAADALSEbNmLSHqqGwb6bpzJs8y7XA5j1p51UtpBqOZ17R0soAAAAAAAA+AshGzamal+kGgb7LqqAXObaQmrWn0ZQ7i40R7PFGo1wzYWWUAAAAAAAAPDvhGzYuEl7GCGbCNu0zAZ7alWM573FYJ7rAcz608PqOu44nY1cn1fFGGsJBQAAAAAAAJ8mZMNWTNpD1TCgrBISLaRWuR7ArD89TWXYRiu4/M1T2RLqxlQAAAAAAADA/YRs2KpJe6gaBvsuKoVc9BaDy1wPoGohFdfxqdOZ5frTEgoAAAAAAAAeQciGnZi0h3dVbVTDYF+9S2ULqXe5HsCsP+0UHz8nreBysEpaQgEAAAAAAMBXEbJhZ6oWUrFB/8xssMeiok1Utsk2+DDrT8+TVnB1NU9aQgEAAAAAAMBaCNmwc5P2sJNUw2C/rYrxsrcYZBuEmPWnreo67jidtTBOWkIBAAAAAADAWgnZUBuT9vA8qYbB/okKNuNiXPUWg1XuBzPrT6MyVYRttILbvlg/r4txqSUUAAAAAAAArJ+QDbUyaQ9bSTUM9sOqGBfFuMm5VdTHzPrTCNhEYO6F07wV82K8Pro+GZsKAAAAAAAA2BwhG2pp0h6eFh+vkmoYNE+0hIqqNfOmH+isP+1U1/Gh074R41hLR9cn70wFAAAAAAAAbJ6QDbU1aQ9Vw6ApGtUS6qFm/emL6loWmvt6sX60hAIAAAAAAIAdELKh9ibtYSephkGeVqmhLaEeataftqrr+Jll8SjzpCUUAAAAAAAA7JSQDdmYtIfnxcePSTUM6m9ejIt9aAn1ULP+NEI2EbZpmY0vMk5aQgEAAAAAAEAtCNmQlUl72EqqYVBPUanmJpXhmpXp+LRZf6oV3P1r6aoY46PrE2sJAAAAAAAAakLIhixN2kPVMKiLVaoCEfveEuqhZv3pYXUdd8zGrahWc6UlFAAAAAAAANSTkA3ZmrSHqmGwS/NiXPUWgxtT8XVm/emL6lre11Zw42K8Pro+mVsNAAAAAAAAUF9CNmRv0h5GNYyfi3FoNtgwLaE2pGohFdfxsz1aS1pCAQAAAAAAQEaEbGiMSXu479Uw2JxV0hJqK2b9aSeVYZtWQw9RSygAAAAAAADIlJANjVK1kNqnahhs1rwYr3uLwdhUbNesPz1PZWiuKWINaQkFAAAAAAAAGROyoZEm7WEnNbsaBps1LsZVbzF4Zyp2Z9aftqrruJPpIXy4W0taQgEAAAAAAED+hGxorKqqzV0LKbjPqhivi3GpJVS9zPrT0+LjVcqnFVyspYti3Bxdn1hLAAAAAAAA0BBCNjTepD1spbyrYbBZ86QlVO3N+tMI2ETQ5rTGP+ZNKqvWzJ0xAAAAAAAAaB4hG/bGpD08TXlVw2CzxklLqOzM+tNOKqtTdWryI2kJBQAAAAAAAHtCyIa9UrWQqns1DDZnlbSEaoSqhVSEbVo7XEtaQgEAAAAAAMAeEbJhL03aw04qwzaHZmMvRLWaKy2hmmfWnz4rPn5M26tsoyUUAAAAAAAA7CkhG/bapD08T+UGvRZSzTQuxuveYjA3Fc02609bqaxQ9f/S+sNzWkIBAAAAAAAAQjYwaQ9bxcfPaXuVMNisCERcFWPcWwxWpmP/VIGbuJ7/Vn22HvE/My/GP+JT1RoAAAAAAAAgCNlAZdIeRtuZCNuoapMnLaH4pFl/2qn+5eEnrvHV3VCtBgAAAAAAAPgYIRv4g0l7GJvvPxXjhdnIxjhpCQUAAAAAAADAhgnZwEdM2sOodhFVbQ7NRi1pCQUAAAAAAADAVgnZwGdM2sOoaBOVbbSQqodVMS60hAIAAAAAAABg24Rs4B6T9rBVfLwqxjOzsTM3xbjSEgoAAAAAAACAXRGygS80aQ87qWwh1TIbWxEtocapDNesTAcAAAAAAAAAuyRkAw8waQ+jbdRdCyk2Y1WMi2Lc9BaDD6YDAAAAAAAAgDoQsoFHmLSHh6lsIdUxG2ujJRQAAAAAAAAAtSVkA19h0h6epjJs843ZeBQtoQAAAAAAAADIgpANfKWqhVQEbU7NxhdbJS2hAAAAAAAAAMiIkA2syaQ97BQfPxejZTY+aZ7KqjU3pgIAAAAAAACAnAjZwJpN2sPz4uMnM/EvUakmQjUXWkIBAAAAAAAAkCshG9iASXvYSmVVm84eT8OqGFfFGGsJBQAAAAAAAEDuhGxggybt4bNUhm2+2aPDnictoQAAAAAAAABoGCEb2LBJexgBm2gf9aLBh6klFAAAAAAAAACNJmQDWzJpDzvFx6tiHDbosFbFeF2MSy2hAAAAAAAAAGgyIRvYskl7GBVtorJNzi2k5sV43VsMxs4oAAAAAAAAAPtAyAZ2YNIetlJZ1eZZZj/6uBhXvcXgnbMIAAAAAAAAwD4RsoEdmrSHEbKJsE2rxj/mKmkJBQAAAAAAAMCeE7KBHZu0h9E26q6FVJ3Mk5ZQAAAAAAAAAHBLyAZqYtIeHqayqk1nxz/KOGkJBQAAAAAAAAB/ImQDNTNpD09TWdWmtcV/bLSBukpaQgEAAAAAAADARwnZQE1tKWwT1WqutIQCAAAAAAAAgM8TsoGam7SHneLjh2I8K8Y3a/ifjEo1N8V43VsM5mYYAAAAAAAAAO4nZAMZmbSHh6kM2/ytGPGvvzR0M09l1Zp/9BaDGzMJAAAAAAAAAA8jZAOZqyrdfMqqtxiszBIAAAAAAAAAAAAAAAAAAAAAG/V/TAEAAAAAAAAAAHyekA0AAAAAAAAAANxDyAYAAAAAAAAAAO4hZAMAAAAAAAAAAPcQsgEAAAAAAAAAgHsI2QAAAAAAAAAAwD2EbAAAAAAAAAAA4B5CNgAAAAAAAAAAcA8hGwAAAAAAAAAAuIeQDQAAAAAAAAAA3EPIBgAAAAAAAAAA7iFkAwAAAAAAAAAA9xCyAQAAAAAAAACAewjZAAAAAAAAAADAPYRsAAAAAAAAAADgHkI2AAAAAAAAAABwDyEbAAAAAAAAAAC4h5ANAAAAAAAAAADcQ8gGAAAAAAAAAADuIWQDAAAAAAAAAAD3ELIBAAAAAAAAAIB7CNkAAAAAAAAAAMA9hGwAAAAAAAAAAOAeQjYAAAAAAAAAAHAPIRsAAAAAAAAAALiHkA0AAAAAAAAAANzj/wswANKOqJt2PHfQAAAAAElFTkSuQmCC;" parent="1" vertex="1">
          <mxGeometry x="530" y="205" width="146.44" height="49.01" as="geometry" />
        </mxCell>
        <mxCell id="iU7n7ivI7I0KxXx9MVES-10" style="edgeStyle=orthogonalEdgeStyle;rounded=0;orthogonalLoop=1;jettySize=auto;html=1;" parent="1" source="iU7n7ivI7I0KxXx9MVES-7" target="iU7n7ivI7I0KxXx9MVES-5" edge="1">
          <mxGeometry relative="1" as="geometry" />
        </mxCell>
        <mxCell id="V6uiQ73Qk9pvWtEWWRC6-1" value="" style="points=[[0.015,0.015,0],[0.25,0,0],[0.5,0,0],[0.75,0,0],[0.985,0.015,0],[1,0.22,0],[1,0.44,0],[1,0.67,0],[0.985,0.89,0],[0,0.22,0],[0,0.44,0],[0,0.67,0],[0.015,0.89,0],[0.25,0.91,0],[0.5,0.91,0],[0.785,0.955,0]];verticalLabelPosition=bottom;sketch=0;html=1;verticalAlign=top;aspect=fixed;align=center;pointerEvents=1;shape=mxgraph.cisco19.x509_certificate;fillColor=#005073;strokeColor=none;" vertex="1" parent="1">
          <mxGeometry x="246.9" y="140" width="52.63" height="50" as="geometry" />
        </mxCell>
        <mxCell id="V6uiQ73Qk9pvWtEWWRC6-2" value="" style="points=[[0.015,0.015,0],[0.25,0,0],[0.5,0,0],[0.75,0,0],[0.985,0.015,0],[1,0.22,0],[1,0.44,0],[1,0.67,0],[0.985,0.89,0],[0,0.22,0],[0,0.44,0],[0,0.67,0],[0.015,0.89,0],[0.25,0.91,0],[0.5,0.91,0],[0.785,0.955,0]];verticalLabelPosition=bottom;sketch=0;html=1;verticalAlign=top;aspect=fixed;align=center;pointerEvents=1;shape=mxgraph.cisco19.x509_certificate;fillColor=#005073;strokeColor=none;" vertex="1" parent="1">
          <mxGeometry x="576.9" y="140" width="52.63" height="50" as="geometry" />
        </mxCell>
        <mxCell id="V6uiQ73Qk9pvWtEWWRC6-3" value="Certificate Authority" style="sketch=0;outlineConnect=0;fontColor=#232F3E;gradientColor=none;fillColor=#DD344C;strokeColor=none;dashed=0;verticalLabelPosition=bottom;verticalAlign=top;align=center;html=1;fontSize=12;fontStyle=0;aspect=fixed;pointerEvents=1;shape=mxgraph.aws4.certificate_manager_2;" vertex="1" parent="1">
          <mxGeometry x="400" y="30" width="78" height="72" as="geometry" />
        </mxCell>
        <mxCell id="V6uiQ73Qk9pvWtEWWRC6-8" value="" style="endArrow=classic;html=1;rounded=0;entryX=0.015;entryY=0.015;entryDx=0;entryDy=0;entryPerimeter=0;strokeColor=#3399FF;" edge="1" parent="1" source="V6uiQ73Qk9pvWtEWWRC6-3" target="V6uiQ73Qk9pvWtEWWRC6-2">
          <mxGeometry width="50" height="50" relative="1" as="geometry">
            <mxPoint x="400" y="410" as="sourcePoint" />
            <mxPoint x="450" y="360" as="targetPoint" />
          </mxGeometry>
        </mxCell>
        <mxCell id="V6uiQ73Qk9pvWtEWWRC6-9" value="" style="endArrow=classic;html=1;rounded=0;entryX=0.985;entryY=0.015;entryDx=0;entryDy=0;entryPerimeter=0;strokeColor=#3399FF;" edge="1" parent="1" source="V6uiQ73Qk9pvWtEWWRC6-3" target="V6uiQ73Qk9pvWtEWWRC6-1">
          <mxGeometry width="50" height="50" relative="1" as="geometry">
            <mxPoint x="474" y="95" as="sourcePoint" />
            <mxPoint x="588" y="151" as="targetPoint" />
          </mxGeometry>
        </mxCell>
      </root>
    </mxGraphModel>
  </diagram>
</mxfile>
